<svg width="1440" height="58" viewBox="0 0 1440 58" fill="none" xmlns="http://www.w3.org/2000/svg">
<rect width="1440" height="57.9287" fill="#010101"/>
<path d="M187.726 29.2405H191.961C193.093 29.2405 194.707 29.9257 194.707 31.234C194.707 32.6046 193.093 32.9784 191.961 32.9784H187.726V29.2405ZM187.726 23.4882H191.961C193.722 23.4882 194.267 24.6096 194.267 25.2741C194.267 26.1047 193.701 26.8316 191.961 26.8316H187.726V23.4882ZM191.961 20.9962C189.634 20.9962 187.306 20.9962 185 20.9962V35.5327C187.327 35.5327 189.634 35.5327 191.961 35.5327C195.001 35.5327 197.454 34.4943 197.454 31.2548C197.454 30.3411 196.825 28.5344 195.106 28.0152C196.469 27.413 197.014 26.3332 197.014 25.2118C197.014 22.2837 194.854 20.9962 191.961 20.9962Z" fill="white"/>
<path d="M199.207 25.2948V35.5327H201.765V30.1334C201.765 28.2437 203.002 27.5376 204.344 27.5376C205.183 27.5376 205.665 27.766 206.189 28.2021L207.342 26.0009C206.776 25.4402 205.749 25.0249 204.679 25.0249C203.631 25.0249 202.562 25.2118 201.765 26.4785L201.576 25.2948H199.207Z" fill="white"/>
<path d="M210.856 25.2533V35.5327H208.298V25.2533H210.856ZM208.067 22.4083C208.067 24.3811 211.087 24.3811 211.087 22.4083C211.087 20.4355 208.067 20.4355 208.067 22.4083Z" fill="white"/>
<path d="M218.182 27.413C219.797 27.413 221.18 28.6175 221.18 30.4034C221.18 32.2516 219.797 33.4145 218.182 33.4145C216.547 33.4145 215.247 32.1893 215.247 30.4034C215.247 28.5552 216.547 27.413 218.182 27.413ZM221.348 21.017V26.6862C220.74 25.6271 219.042 25.0456 217.952 25.0456C214.932 25.0456 212.689 26.8731 212.689 30.4034C212.689 33.7675 214.974 35.7611 218.014 35.7611C219.272 35.7611 220.551 35.3458 221.348 34.1206L221.516 35.5327H223.906V21.017H221.348Z" fill="white"/>
<path d="M233.219 25.544C232.506 25.0664 231.667 24.9626 230.849 24.9626C227.956 24.9626 225.608 26.9562 225.608 30.1542C225.608 33.3522 227.62 35.3042 230.849 35.3042C232.128 35.3042 233.47 35.948 233.47 37.3601C233.47 38.7722 232.317 39.5613 230.849 39.5613C229.382 39.5613 228.145 38.6892 228.145 37.3601H225.608C225.608 40.122 227.851 41.9287 230.849 41.9287C233.848 41.9287 236.028 40.1843 236.028 37.3601C236.028 36.0518 235.609 34.8266 233.889 33.9752C235.588 33.2068 236.07 31.4209 236.07 30.1542C236.07 29.0328 235.776 28.0152 234.98 27.1223L236.133 25.6686L234.246 24.2565L233.219 25.544ZM230.849 27.2676C232.317 27.2676 233.533 28.389 233.533 30.1542C233.533 31.9193 232.317 32.9992 230.849 32.9992C229.361 32.9992 228.145 31.9401 228.145 30.1542C228.145 28.3683 229.361 27.2676 230.849 27.2676Z" fill="white"/>
<path d="M247.953 31.3171C248.351 27.1015 246.192 24.9833 242.732 24.9833C239.378 24.9833 237.239 27.2261 237.239 30.3411C237.239 33.6222 239.357 35.8026 242.921 35.8026C244.493 35.8026 246.276 35.2627 247.366 34.1413L245.73 32.5423C245.143 33.1445 243.906 33.4976 242.963 33.4976C241.16 33.4976 240.049 32.5838 239.881 31.3171H247.953ZM239.923 29.2197C240.3 27.8906 241.432 27.2261 242.816 27.2261C244.284 27.2261 245.332 27.8906 245.5 29.2197H239.923Z" fill="white"/>
<path d="M169.424 36.0294C169.698 36.3027 170.143 36.3043 170.396 36.0119C171.913 34.2584 172.755 32.0113 172.755 29.6773C172.755 27.1092 171.735 24.6463 169.919 22.8303C168.103 21.0144 165.64 19.9942 163.072 19.9942C160.738 19.9942 158.491 20.8369 156.738 22.3537C156.445 22.6066 156.447 23.0519 156.72 23.3253L163.072 29.6773L169.424 36.0294Z" fill="url(#paint0_linear_732_404)"/>
<path d="M162 33.9287C162 35.5856 160.657 36.9287 159 36.9287C157.343 36.9287 156 35.5856 156 33.9287C156 32.2719 157.343 30.9287 159 30.9287C160.657 30.9287 162 32.2719 162 33.9287Z" fill="#6562D6"/>
<path d="M294.411 34.4648V24.283H295.947V28.7077H301.023V24.283H302.564V34.4648H301.023V30.0252H295.947V34.4648H294.411ZM307.899 34.619C307.183 34.619 306.558 34.4549 306.024 34.1268C305.491 33.7987 305.076 33.3396 304.781 32.7496C304.486 32.1597 304.339 31.4703 304.339 30.6815C304.339 29.8893 304.486 29.1966 304.781 28.6033C305.076 28.0101 305.491 27.5494 306.024 27.2212C306.558 26.8931 307.183 26.729 307.899 26.729C308.614 26.729 309.239 26.8931 309.773 27.2212C310.306 27.5494 310.721 28.0101 311.016 28.6033C311.311 29.1966 311.458 29.8893 311.458 30.6815C311.458 31.4703 311.311 32.1597 311.016 32.7496C310.721 33.3396 310.306 33.7987 309.773 34.1268C309.239 34.4549 308.614 34.619 307.899 34.619ZM307.903 33.3711C308.368 33.3711 308.752 33.2485 309.057 33.0032C309.362 32.7579 309.587 32.4315 309.733 32.0238C309.882 31.6161 309.957 31.167 309.957 30.6765C309.957 30.1893 309.882 29.7418 309.733 29.3342C309.587 28.9232 309.362 28.5934 309.057 28.3448C308.752 28.0962 308.368 27.9719 307.903 27.9719C307.436 27.9719 307.048 28.0962 306.74 28.3448C306.435 28.5934 306.208 28.9232 306.059 29.3342C305.913 29.7418 305.84 30.1893 305.84 30.6765C305.84 31.167 305.913 31.6161 306.059 32.0238C306.208 32.4315 306.435 32.7579 306.74 33.0032C307.048 33.2485 307.436 33.3711 307.903 33.3711ZM313.117 34.4648V26.8285H314.544V28.0714H314.639C314.798 27.6504 315.058 27.3223 315.419 27.087C315.781 26.8484 316.213 26.729 316.717 26.729C317.227 26.729 317.655 26.8484 318 27.087C318.348 27.3256 318.604 27.6538 318.77 28.0714H318.85C319.032 27.6637 319.322 27.3389 319.72 27.0969C320.117 26.8517 320.591 26.729 321.142 26.729C321.834 26.729 322.399 26.9461 322.837 27.3803C323.278 27.8145 323.498 28.4691 323.498 29.3441V34.4648H322.012V29.4833C322.012 28.9663 321.871 28.5917 321.589 28.3597C321.307 28.1277 320.971 28.0117 320.58 28.0117C320.096 28.0117 319.72 28.1609 319.451 28.4592C319.183 28.7541 319.049 29.1336 319.049 29.5977V34.4648H317.567V29.3888C317.567 28.9745 317.438 28.6415 317.179 28.3896C316.921 28.1377 316.584 28.0117 316.17 28.0117C315.888 28.0117 315.628 28.0863 315.389 28.2354C315.154 28.3813 314.964 28.5851 314.818 28.8469C314.675 29.1088 314.604 29.4121 314.604 29.7567V34.4648H313.117ZM328.782 34.619C328.029 34.619 327.381 34.4582 326.838 34.1367C326.298 33.8119 325.88 33.3562 325.585 32.7695C325.293 32.1796 325.147 31.4885 325.147 30.6964C325.147 29.9142 325.293 29.2248 325.585 28.6282C325.88 28.0316 326.291 27.5659 326.818 27.2312C327.348 26.8964 327.968 26.729 328.677 26.729C329.108 26.729 329.526 26.8003 329.93 26.9428C330.334 27.0853 330.697 27.3091 331.019 27.614C331.34 27.9189 331.594 28.315 331.78 28.8022C331.965 29.2861 332.058 29.8744 332.058 30.5671V31.0941H325.988V29.9805H330.601C330.601 29.5894 330.522 29.243 330.363 28.9414C330.204 28.6365 329.98 28.3962 329.691 28.2205C329.406 28.0449 329.072 27.957 328.687 27.957C328.27 27.957 327.905 28.0598 327.593 28.2653C327.285 28.4674 327.047 28.7326 326.878 29.0607C326.712 29.3855 326.629 29.7385 326.629 30.1197V30.9897C326.629 31.5001 326.718 31.9343 326.897 32.2923C327.08 32.6502 327.333 32.9237 327.658 33.1126C327.983 33.2982 328.362 33.391 328.797 33.391C329.078 33.391 329.335 33.3512 329.567 33.2717C329.799 33.1888 330 33.0662 330.169 32.9038C330.338 32.7414 330.467 32.5408 330.557 32.3022L331.964 32.5558C331.851 32.9701 331.649 33.333 331.357 33.6445C331.069 33.9528 330.706 34.1931 330.268 34.3654C329.834 34.5344 329.339 34.619 328.782 34.619Z" fill="#999AA3"/>
<path d="M382.693 34.4648H379.397V24.283H382.797C383.795 24.283 384.652 24.4869 385.368 24.8945C386.084 25.2989 386.632 25.8806 387.013 26.6396C387.398 27.3952 387.59 28.3017 387.59 29.359C387.59 30.4196 387.396 31.3311 387.008 32.0934C386.624 32.8557 386.067 33.4424 385.338 33.8533C384.609 34.261 383.727 34.4648 382.693 34.4648ZM380.933 33.1225H382.609C383.384 33.1225 384.029 32.9767 384.543 32.685C385.056 32.39 385.441 31.9641 385.696 31.4073C385.951 30.8472 386.079 30.1644 386.079 29.359C386.079 28.5603 385.951 27.8825 385.696 27.3256C385.444 26.7688 385.068 26.3462 384.567 26.0579C384.067 25.7695 383.445 25.6254 382.703 25.6254H380.933V33.1225ZM392.598 34.619C391.882 34.619 391.257 34.4549 390.723 34.1268C390.19 33.7987 389.776 33.3396 389.481 32.7496C389.186 32.1597 389.038 31.4703 389.038 30.6815C389.038 29.8893 389.186 29.1966 389.481 28.6033C389.776 28.0101 390.19 27.5494 390.723 27.2212C391.257 26.8931 391.882 26.729 392.598 26.729C393.314 26.729 393.938 26.8931 394.472 27.2212C395.006 27.5494 395.42 28.0101 395.715 28.6033C396.01 29.1966 396.157 29.8893 396.157 30.6815C396.157 31.4703 396.01 32.1597 395.715 32.7496C395.42 33.3396 395.006 33.7987 394.472 34.1268C393.938 34.4549 393.314 34.619 392.598 34.619ZM392.603 33.3711C393.067 33.3711 393.451 33.2485 393.756 33.0032C394.061 32.7579 394.286 32.4315 394.432 32.0238C394.581 31.6161 394.656 31.167 394.656 30.6765C394.656 30.1893 394.581 29.7418 394.432 29.3342C394.286 28.9232 394.061 28.5934 393.756 28.3448C393.451 28.0962 393.067 27.9719 392.603 27.9719C392.135 27.9719 391.748 28.0962 391.439 28.3448C391.134 28.5934 390.907 28.9232 390.758 29.3342C390.612 29.7418 390.54 30.1893 390.54 30.6765C390.54 31.167 390.612 31.6161 390.758 32.0238C390.907 32.4315 391.134 32.7579 391.439 33.0032C391.748 33.2485 392.135 33.3711 392.603 33.3711ZM401.033 34.619C400.294 34.619 399.658 34.4516 399.124 34.1168C398.594 33.7788 398.186 33.3131 397.901 32.7198C397.616 32.1265 397.474 31.4471 397.474 30.6815C397.474 29.9059 397.619 29.2215 397.911 28.6282C398.203 28.0316 398.614 27.5659 399.144 27.2312C399.674 26.8964 400.299 26.729 401.018 26.729C401.598 26.729 402.115 26.8368 402.57 27.0522C403.024 27.2643 403.39 27.5626 403.668 27.9471C403.95 28.3316 404.117 28.7807 404.17 29.2944H402.724C402.644 28.9364 402.462 28.6282 402.177 28.3697C401.895 28.1112 401.517 27.9819 401.043 27.9819C400.629 27.9819 400.266 28.0913 399.954 28.31C399.646 28.5254 399.406 28.8337 399.234 29.2347C399.061 29.6325 398.975 30.1031 398.975 30.6467C398.975 31.2035 399.06 31.6841 399.229 32.0884C399.398 32.4928 399.636 32.806 399.945 33.0281C400.256 33.2501 400.622 33.3612 401.043 33.3612C401.325 33.3612 401.58 33.3098 401.809 33.207C402.041 33.101 402.235 32.9502 402.391 32.7546C402.55 32.5591 402.661 32.3237 402.724 32.0487H404.17C404.117 32.5425 403.957 32.9833 403.688 33.3711C403.42 33.7589 403.06 34.0638 402.609 34.2859C402.162 34.5079 401.637 34.619 401.033 34.619ZM410.597 31.2979V26.8285H412.089V34.4648H410.627V33.1424H410.548C410.372 33.5501 410.09 33.8898 409.703 34.1616C409.318 34.43 408.839 34.5643 408.266 34.5643C407.775 34.5643 407.341 34.4566 406.963 34.2411C406.589 34.0224 406.294 33.6992 406.078 33.2717C405.866 32.8441 405.76 32.3155 405.76 31.6857V26.8285H407.247V31.5067C407.247 32.0271 407.391 32.4414 407.679 32.7496C407.967 33.0579 408.342 33.212 408.803 33.212C409.081 33.212 409.358 33.1424 409.633 33.0032C409.911 32.864 410.142 32.6535 410.324 32.3718C410.51 32.0901 410.601 31.7321 410.597 31.2979ZM414.086 34.4648V26.8285H415.513V28.0714H415.608C415.767 27.6504 416.027 27.3223 416.388 27.087C416.749 26.8484 417.182 26.729 417.686 26.729C418.196 26.729 418.624 26.8484 418.968 27.087C419.316 27.3256 419.573 27.6538 419.739 28.0714H419.818C420.001 27.6637 420.291 27.3389 420.688 27.0969C421.086 26.8517 421.56 26.729 422.11 26.729C422.803 26.729 423.368 26.9461 423.806 27.3803C424.246 27.8145 424.467 28.4691 424.467 29.3441V34.4648H422.98V29.4833C422.98 28.9663 422.84 28.5917 422.558 28.3597C422.276 28.1277 421.94 28.0117 421.549 28.0117C421.065 28.0117 420.688 28.1609 420.42 28.4592C420.152 28.7541 420.017 29.1336 420.017 29.5977V34.4648H418.536V29.3888C418.536 28.9745 418.407 28.6415 418.148 28.3896C417.889 28.1377 417.553 28.0117 417.139 28.0117C416.857 28.0117 416.597 28.0863 416.358 28.2354C416.123 28.3813 415.932 28.5851 415.786 28.8469C415.644 29.1088 415.573 29.4121 415.573 29.7567V34.4648H414.086ZM429.75 34.619C428.998 34.619 428.35 34.4582 427.807 34.1367C427.266 33.8119 426.849 33.3562 426.554 32.7695C426.262 32.1796 426.116 31.4885 426.116 30.6964C426.116 29.9142 426.262 29.2248 426.554 28.6282C426.849 28.0316 427.26 27.5659 427.787 27.2312C428.317 26.8964 428.937 26.729 429.646 26.729C430.077 26.729 430.495 26.8003 430.899 26.9428C431.303 27.0853 431.666 27.3091 431.988 27.614C432.309 27.9189 432.563 28.315 432.748 28.8022C432.934 29.2861 433.027 29.8744 433.027 30.5671V31.0941H426.956V29.9805H431.57C431.57 29.5894 431.491 29.243 431.331 28.9414C431.172 28.6365 430.949 28.3962 430.66 28.2205C430.375 28.0449 430.04 27.957 429.656 27.957C429.238 27.957 428.874 28.0598 428.562 28.2653C428.254 28.4674 428.015 28.7326 427.846 29.0607C427.681 29.3855 427.598 29.7385 427.598 30.1197V30.9897C427.598 31.5001 427.687 31.9343 427.866 32.2923C428.049 32.6502 428.302 32.9237 428.627 33.1126C428.952 33.2982 429.331 33.391 429.765 33.391C430.047 33.391 430.304 33.3512 430.536 33.2717C430.768 33.1888 430.968 33.0662 431.138 32.9038C431.307 32.7414 431.436 32.5408 431.525 32.3022L432.932 32.5558C432.82 32.9701 432.617 33.333 432.326 33.6445C432.037 33.9528 431.674 34.1931 431.237 34.3654C430.803 34.5344 430.307 34.619 429.75 34.619ZM436.163 29.9308V34.4648H434.676V26.8285H436.103V28.0714H436.197C436.373 27.667 436.648 27.3422 437.023 27.0969C437.4 26.8517 437.876 26.729 438.449 26.729C438.97 26.729 439.426 26.8384 439.817 27.0572C440.208 27.2726 440.511 27.5941 440.726 28.0217C440.942 28.4492 441.05 28.9779 441.05 29.6076V34.4648H439.563V29.7866C439.563 29.2331 439.419 28.8005 439.131 28.489C438.842 28.1741 438.446 28.0167 437.942 28.0167C437.598 28.0167 437.291 28.0913 437.023 28.2404C436.757 28.3896 436.547 28.6083 436.391 28.8967C436.239 29.1817 436.163 29.5264 436.163 29.9308ZM446.608 26.8285V28.0217H442.437V26.8285H446.608ZM443.555 24.9989H445.042V32.2227C445.042 32.511 445.085 32.7281 445.171 32.8739C445.257 33.0165 445.368 33.1142 445.504 33.1673C445.643 33.217 445.794 33.2418 445.957 33.2418C446.076 33.2418 446.18 33.2335 446.27 33.217C446.359 33.2004 446.429 33.1871 446.479 33.1772L446.747 34.4052C446.661 34.4383 446.538 34.4715 446.379 34.5046C446.22 34.5411 446.021 34.561 445.783 34.5643C445.391 34.5709 445.027 34.5013 444.689 34.3555C444.351 34.2096 444.077 33.9843 443.869 33.6793C443.66 33.3744 443.555 32.9916 443.555 32.5309V24.9989ZM450.475 34.6339C449.991 34.6339 449.553 34.5444 449.162 34.3654C448.771 34.1831 448.461 33.9196 448.232 33.5749C448.007 33.2302 447.894 32.8076 447.894 32.3072C447.894 31.8763 447.977 31.5217 448.143 31.2433C448.309 30.9648 448.532 30.7444 448.814 30.582C449.096 30.4196 449.411 30.297 449.759 30.2141C450.107 30.1313 450.461 30.0683 450.823 30.0252C451.28 29.9722 451.651 29.9291 451.936 29.896C452.221 29.8595 452.428 29.8015 452.558 29.7219C452.687 29.6424 452.752 29.5131 452.752 29.3342V29.2994C452.752 28.8652 452.629 28.5288 452.384 28.2901C452.142 28.0515 451.78 27.9322 451.3 27.9322C450.799 27.9322 450.405 28.0432 450.117 28.2653C449.832 28.484 449.634 28.7276 449.525 28.9961L448.128 28.6779C448.294 28.2139 448.536 27.8394 448.854 27.5543C449.175 27.266 449.545 27.0572 449.962 26.9279C450.38 26.7953 450.819 26.729 451.28 26.729C451.585 26.729 451.908 26.7655 452.249 26.8384C452.594 26.908 452.916 27.0373 453.214 27.2262C453.515 27.4151 453.762 27.6853 453.955 28.0366C454.147 28.3846 454.243 28.837 454.243 29.3938V34.4648H452.791V33.4208H452.732C452.636 33.613 452.491 33.802 452.299 33.9876C452.107 34.1732 451.86 34.3273 451.558 34.4499C451.257 34.5726 450.895 34.6339 450.475 34.6339ZM450.798 33.4407C451.209 33.4407 451.56 33.3595 451.852 33.1971C452.147 33.0347 452.37 32.8226 452.523 32.5607C452.679 32.2956 452.756 32.0122 452.756 31.7106V30.7262C452.703 30.7792 452.601 30.829 452.448 30.8754C452.299 30.9184 452.128 30.9566 451.936 30.9897C451.744 31.0195 451.557 31.0477 451.374 31.0742C451.192 31.0974 451.04 31.1173 450.917 31.1339C450.629 31.1703 450.365 31.2317 450.127 31.3178C449.891 31.404 449.702 31.5283 449.56 31.6907C449.421 31.8498 449.351 32.0619 449.351 32.3271C449.351 32.695 449.487 32.9734 449.759 33.1623C450.03 33.3479 450.377 33.4407 450.798 33.4407ZM459.788 26.8285V28.0217H455.616V26.8285H459.788ZM456.735 24.9989H458.222V32.2227C458.222 32.511 458.265 32.7281 458.351 32.8739C458.437 33.0165 458.548 33.1142 458.684 33.1673C458.823 33.217 458.974 33.2418 459.136 33.2418C459.256 33.2418 459.36 33.2335 459.449 33.217C459.539 33.2004 459.609 33.1871 459.658 33.1772L459.927 34.4052C459.841 34.4383 459.718 34.4715 459.559 34.5046C459.4 34.5411 459.201 34.561 458.962 34.5643C458.571 34.5709 458.207 34.5013 457.869 34.3555C457.53 34.2096 457.257 33.9843 457.048 33.6793C456.839 33.3744 456.735 32.9916 456.735 32.5309V24.9989ZM461.432 34.4648V26.8285H462.918V34.4648H461.432ZM462.183 25.6502C461.924 25.6502 461.702 25.564 461.516 25.3917C461.334 25.216 461.243 25.0072 461.243 24.7653C461.243 24.52 461.334 24.3112 461.516 24.1388C461.702 23.9632 461.924 23.8754 462.183 23.8754C462.441 23.8754 462.662 23.9632 462.844 24.1388C463.029 24.3112 463.122 24.52 463.122 24.7653C463.122 25.0072 463.029 25.216 462.844 25.3917C462.662 25.564 462.441 25.6502 462.183 25.6502ZM468.135 34.619C467.419 34.619 466.794 34.4549 466.261 34.1268C465.727 33.7987 465.313 33.3396 465.018 32.7496C464.723 32.1597 464.575 31.4703 464.575 30.6815C464.575 29.8893 464.723 29.1966 465.018 28.6033C465.313 28.0101 465.727 27.5494 466.261 27.2212C466.794 26.8931 467.419 26.729 468.135 26.729C468.851 26.729 469.476 26.8931 470.009 27.2212C470.543 27.5494 470.957 28.0101 471.252 28.6033C471.547 29.1966 471.695 29.8893 471.695 30.6815C471.695 31.4703 471.547 32.1597 471.252 32.7496C470.957 33.3396 470.543 33.7987 470.009 34.1268C469.476 34.4549 468.851 34.619 468.135 34.619ZM468.14 33.3711C468.604 33.3711 468.988 33.2485 469.293 33.0032C469.598 32.7579 469.824 32.4315 469.969 32.0238C470.119 31.6161 470.193 31.167 470.193 30.6765C470.193 30.1893 470.119 29.7418 469.969 29.3342C469.824 28.9232 469.598 28.5934 469.293 28.3448C468.988 28.0962 468.604 27.9719 468.14 27.9719C467.672 27.9719 467.285 28.0962 466.976 28.3448C466.672 28.5934 466.445 28.9232 466.295 29.3342C466.15 29.7418 466.077 30.1893 466.077 30.6765C466.077 31.167 466.15 31.6161 466.295 32.0238C466.445 32.4315 466.672 32.7579 466.976 33.0032C467.285 33.2485 467.672 33.3711 468.14 33.3711ZM474.84 29.9308V34.4648H473.354V26.8285H474.781V28.0714H474.875C475.051 27.667 475.326 27.3422 475.7 27.0969C476.078 26.8517 476.554 26.729 477.127 26.729C477.648 26.729 478.103 26.8384 478.494 27.0572C478.886 27.2726 479.189 27.5941 479.404 28.0217C479.62 28.4492 479.727 28.9779 479.727 29.6076V34.4648H478.241V29.7866C478.241 29.2331 478.097 28.8005 477.808 28.489C477.52 28.1741 477.124 28.0167 476.62 28.0167C476.275 28.0167 475.969 28.0913 475.7 28.2404C475.435 28.3896 475.225 28.6083 475.069 28.8967C474.917 29.1817 474.84 29.5264 474.84 29.9308Z" fill="#999AA3"/>
<g clip-path="url(#clip0_732_404)">
<path d="M1182.93 24.8516C1181.66 24.2667 1180.29 23.8357 1178.86 23.5889C1178.83 23.5842 1178.81 23.5961 1178.79 23.6199C1178.62 23.9326 1178.42 24.3405 1178.29 24.6611C1176.75 24.4309 1175.22 24.4309 1173.72 24.6611C1173.58 24.3333 1173.38 23.9326 1173.2 23.6199C1173.19 23.5969 1173.16 23.585 1173.14 23.5889C1171.71 23.8349 1170.34 24.2659 1169.06 24.8516C1169.05 24.8563 1169.04 24.8643 1169.04 24.8746C1166.44 28.7482 1165.73 32.5266 1166.08 36.2582C1166.08 36.2765 1166.09 36.2939 1166.11 36.305C1167.82 37.5613 1169.48 38.324 1171.1 38.8295C1171.13 38.8375 1171.16 38.8279 1171.17 38.8065C1171.56 38.2811 1171.9 37.7272 1172.19 37.1447C1172.21 37.1106 1172.2 37.0701 1172.16 37.0566C1171.62 36.8502 1171.1 36.5987 1170.6 36.313C1170.56 36.29 1170.56 36.2336 1170.59 36.2066C1170.7 36.128 1170.8 36.0463 1170.9 35.9638C1170.92 35.9487 1170.95 35.9455 1170.97 35.955C1174.24 37.4494 1177.78 37.4494 1181.02 35.955C1181.04 35.9447 1181.07 35.9479 1181.08 35.963C1181.18 36.0455 1181.29 36.128 1181.4 36.2066C1181.43 36.2336 1181.43 36.29 1181.39 36.313C1180.89 36.6042 1180.37 36.8502 1179.83 37.0558C1179.79 37.0693 1179.78 37.1106 1179.79 37.1447C1180.1 37.7264 1180.44 38.2803 1180.82 38.8057C1180.83 38.8279 1180.86 38.8375 1180.89 38.8295C1182.52 38.324 1184.18 37.5613 1185.89 36.305C1185.9 36.2939 1185.91 36.2773 1185.91 36.259C1186.33 31.9449 1185.22 28.1975 1182.96 24.8754C1182.95 24.8643 1182.94 24.8563 1182.93 24.8516ZM1172.68 33.9861C1171.7 33.9861 1170.89 33.0814 1170.89 31.9703C1170.89 30.8592 1171.68 29.9545 1172.68 29.9545C1173.69 29.9545 1174.5 30.8672 1174.48 31.9703C1174.48 33.0814 1173.68 33.9861 1172.68 33.9861ZM1179.33 33.9861C1178.34 33.9861 1177.53 33.0814 1177.53 31.9703C1177.53 30.8592 1178.33 29.9545 1179.33 29.9545C1180.34 29.9545 1181.14 30.8672 1181.13 31.9703C1181.13 33.0814 1180.34 33.9861 1179.33 33.9861Z" fill="white" fill-opacity="0.75"/>
</g>
<path d="M1234.55 24.4796C1234.23 24.6189 1233.91 24.7365 1233.58 24.832C1233.97 24.3901 1234.27 23.8701 1234.45 23.3011C1234.49 23.1735 1234.45 23.0339 1234.34 22.9505C1234.24 22.867 1234.09 22.857 1233.98 22.9253C1233.28 23.3411 1232.52 23.6398 1231.73 23.8145C1230.93 23.034 1229.84 22.5898 1228.72 22.5898C1226.36 22.5898 1224.43 24.5158 1224.43 26.8832C1224.43 27.0696 1224.44 27.2551 1224.46 27.4379C1221.53 27.18 1218.8 25.736 1216.92 23.4355C1216.85 23.3535 1216.75 23.3093 1216.64 23.3177C1216.54 23.326 1216.44 23.3855 1216.39 23.4769C1216.01 24.1296 1215.81 24.8761 1215.81 25.6356C1215.81 26.6702 1216.18 27.6517 1216.83 28.4187C1216.63 28.35 1216.44 28.2641 1216.26 28.1621C1216.16 28.1072 1216.04 28.108 1215.94 28.1642C1215.84 28.2204 1215.78 28.3238 1215.78 28.4367C1215.78 28.4558 1215.78 28.4748 1215.78 28.4941C1215.78 30.0383 1216.61 31.4285 1217.88 32.1863C1217.77 32.1754 1217.66 32.1596 1217.55 32.1388C1217.44 32.1175 1217.33 32.1567 1217.25 32.2419C1217.18 32.327 1217.15 32.4457 1217.18 32.5541C1217.66 34.0225 1218.87 35.1026 1220.33 35.4319C1219.12 36.1923 1217.73 36.5906 1216.27 36.5906C1215.97 36.5906 1215.66 36.5728 1215.36 36.5373C1215.21 36.5197 1215.07 36.6075 1215.02 36.7489C1214.97 36.8904 1215.02 37.0481 1215.15 37.1292C1217.02 38.3298 1219.19 38.9644 1221.41 38.9644C1225.78 38.9644 1228.52 36.9031 1230.04 35.1739C1231.94 33.0177 1233.03 30.1637 1233.03 27.3438C1233.03 27.226 1233.03 27.107 1233.02 26.9884C1233.77 26.4234 1234.42 25.7397 1234.95 24.9538C1235.03 24.8345 1235.02 24.6767 1234.92 24.5669C1234.83 24.4569 1234.68 24.4214 1234.55 24.4796Z" fill="white" fill-opacity="0.75"/>
<g clip-path="url(#clip1_732_404)">
<path fill-rule="evenodd" clip-rule="evenodd" d="M1274 18.9648C1268.47 18.9648 1264 23.4398 1264 28.9648C1264 33.3898 1266.86 37.1273 1270.84 38.4523C1271.34 38.5398 1271.52 38.2398 1271.52 37.9773C1271.52 37.7398 1271.51 36.9523 1271.51 36.1148C1269 36.5773 1268.35 35.5023 1268.15 34.9398C1268.04 34.6523 1267.55 33.7648 1267.12 33.5273C1266.77 33.3398 1266.27 32.8773 1267.11 32.8648C1267.9 32.8523 1268.46 33.5898 1268.65 33.8898C1269.55 35.4023 1270.99 34.9773 1271.56 34.7148C1271.65 34.0648 1271.91 33.6273 1272.2 33.3773C1269.97 33.1273 1267.65 32.2648 1267.65 28.4398C1267.65 27.3523 1268.04 26.4523 1268.68 25.7523C1268.58 25.5023 1268.22 24.4773 1268.77 23.1023C1268.77 23.1023 1269.61 22.8398 1271.52 24.1273C1272.32 23.9023 1273.18 23.7898 1274.03 23.7898C1274.88 23.7898 1275.73 23.9023 1276.53 24.1273C1278.44 22.8273 1279.28 23.1023 1279.28 23.1023C1279.83 24.4773 1279.48 25.5023 1279.38 25.7523C1280.01 26.4523 1280.4 27.3398 1280.4 28.4398C1280.4 32.2773 1278.06 33.1273 1275.84 33.3773C1276.2 33.6898 1276.51 34.2898 1276.51 35.2273C1276.51 36.5648 1276.5 37.6398 1276.5 37.9773C1276.5 38.2398 1276.69 38.5523 1277.19 38.4523C1281.14 37.1273 1284 33.3773 1284 28.9648C1284 23.4398 1279.53 18.9648 1274 18.9648Z" fill="white" fill-opacity="0.75"/>
</g>
<defs>
<linearGradient id="paint0_linear_732_404" x1="162.605" y1="18.361" x2="169.955" y2="37.0272" gradientUnits="userSpaceOnUse">
<stop stop-color="#868EF5"/>
<stop offset="1" stop-color="#7875FF"/>
</linearGradient>
<clipPath id="clip0_732_404">
<rect width="20" height="15.493" fill="white" transform="translate(1166 23.4717)"/>
</clipPath>
<clipPath id="clip1_732_404">
<rect width="20" height="20" fill="white" transform="translate(1264 18.9648)"/>
</clipPath>
</defs>
</svg>
