<svg width="695" height="235" viewBox="0 0 695 235" fill="none" xmlns="http://www.w3.org/2000/svg">
<g clip-path="url(#clip0_837_397)">
<path opacity="0.27" d="M702.498 -399.25C928.935 -399.25 1112.5 -215.687 1112.5 10.75C1112.5 237.187 928.935 420.75 702.498 420.75C476.061 420.75 292.498 237.187 292.498 10.75C292.498 -215.687 476.061 -399.25 702.498 -399.25Z" stroke="#3F3F46"/>
<path opacity="0.2" d="M724.8 -514.6C1014.64 -514.6 1249.6 -279.639 1249.6 10.2C1249.6 300.039 1014.64 535 724.8 535C434.961 535 200 300.039 200 10.2C200 -279.639 434.961 -514.6 724.8 -514.6Z" stroke="#3F3F46"/>
<path opacity="0.15" d="M769.744 -671.488C1140.74 -671.488 1441.49 -370.738 1441.49 0.255981C1441.49 371.25 1140.74 672 769.744 672C398.75 672 98 371.25 98 0.255981C98 -370.738 398.75 -671.488 769.744 -671.488Z" stroke="#3F3F46"/>
<path opacity="0.7" d="M703.134 -55.8289C740.181 -55.8289 770.213 -25.7966 770.213 11.2501C770.213 48.2968 740.181 78.3291 703.134 78.3291C666.087 78.3291 636.055 48.2968 636.055 11.2501C636.055 -25.7966 666.087 -55.8289 703.134 -55.8289Z" stroke="#52525B"/>
<path opacity="0.6" d="M703.129 -141.301C786.829 -141.301 854.682 -73.4485 854.682 10.2519C854.682 93.9523 786.829 161.805 703.129 161.805C619.429 161.805 551.576 93.9523 551.576 10.2519C551.576 -73.4485 619.429 -141.301 703.129 -141.301Z" stroke="#52525B"/>
<path opacity="0.5" d="M703.128 -224.775C833.482 -224.775 939.154 -119.103 939.154 11.2509C939.154 141.604 833.482 247.277 703.128 247.277C572.774 247.277 467.102 141.604 467.102 11.2509C467.102 -119.103 572.774 -224.775 703.128 -224.775Z" stroke="#3F3F46"/>
<path opacity="0.3" d="M703.127 -309.25C880.134 -309.25 1023.63 -165.757 1023.63 11.25C1023.63 188.257 880.134 331.75 703.127 331.75C526.12 331.75 382.627 188.257 382.627 11.25C382.627 -165.757 526.12 -309.25 703.127 -309.25Z" stroke="#3F3F46"/>
<path d="M628 50.0215C628 36.7548 638.755 26 652.021 26C665.288 26 676.043 36.7548 676.043 50.0215C676.043 63.2882 665.288 74.043 652.021 74.043C638.755 74.043 628 63.2882 628 50.0215Z" fill="#202023"/>
<path d="M628 50.0215C628 36.7548 638.755 26 652.021 26C665.288 26 676.043 36.7548 676.043 50.0215C676.043 63.2882 665.288 74.043 652.021 74.043C638.755 74.043 628 63.2882 628 50.0215Z" stroke="#27272A" stroke-width="0.826"/>
<g clip-path="url(#clip1_837_397)">
<path d="M661.656 38.043H642.344C641.049 38.043 640 39.0923 640 40.3867V59.6992C640 60.9936 641.049 62.043 642.344 62.043H661.656C662.951 62.043 664 60.9936 664 59.6992V40.3867C664 39.0923 662.951 38.043 661.656 38.043Z" fill="#3178C6"/>
<path d="M661.656 38.043H642.344C641.049 38.043 640 39.0923 640 40.3867V59.6992C640 60.9936 641.049 62.043 642.344 62.043H661.656C662.951 62.043 664 60.9936 664 59.6992V40.3867C664 39.0923 662.951 38.043 661.656 38.043Z" fill="#3178C6"/>
<path fill-rule="evenodd" clip-rule="evenodd" d="M654.857 57.141V59.4876C655.238 59.6831 655.689 59.8298 656.21 59.9275C656.731 60.0253 657.28 60.0742 657.857 60.0742C658.419 60.0742 658.954 60.0205 659.46 59.9129C659.966 59.8053 660.41 59.6281 660.791 59.3812C661.173 59.1344 661.475 58.8117 661.697 58.4132C661.92 58.0148 662.031 57.5223 662.031 56.9357C662.031 56.5103 661.968 56.1376 661.841 55.8174C661.713 55.4972 661.53 55.2124 661.29 54.9631C661.051 54.7137 660.763 54.49 660.428 54.292C660.093 54.094 659.715 53.9071 659.295 53.7311C658.987 53.604 658.71 53.4805 658.466 53.3608C658.221 53.241 658.013 53.1188 657.842 52.9941C657.671 52.8694 657.539 52.7374 657.446 52.5981C657.353 52.4588 657.307 52.3011 657.307 52.1251C657.307 51.9638 657.348 51.8184 657.432 51.6888C657.515 51.5592 657.632 51.448 657.784 51.3551C657.935 51.2623 658.121 51.1901 658.341 51.1388C658.561 51.0875 658.806 51.0618 659.075 51.0618C659.27 51.0618 659.477 51.0765 659.695 51.1058C659.912 51.1352 660.131 51.1804 660.351 51.2415C660.571 51.3026 660.785 51.3796 660.993 51.4725C661.201 51.5654 661.393 51.6729 661.569 51.7952V49.6025C661.212 49.4657 660.822 49.3642 660.399 49.2982C659.976 49.2322 659.49 49.1992 658.943 49.1992C658.385 49.1992 657.857 49.2591 657.358 49.3789C656.859 49.4987 656.42 49.6856 656.041 49.9398C655.662 50.1941 655.363 50.518 655.143 50.9115C654.923 51.305 654.812 51.7756 654.812 52.3231C654.812 53.0222 655.014 53.6186 655.418 54.1124C655.821 54.6062 656.434 55.0241 657.255 55.3664C657.578 55.4984 657.879 55.6279 658.158 55.755C658.437 55.8821 658.677 56.0141 658.88 56.151C659.083 56.2879 659.243 56.437 659.361 56.5983C659.478 56.7596 659.537 56.943 659.537 57.1483C659.537 57.2999 659.5 57.4404 659.427 57.57C659.354 57.6995 659.242 57.8119 659.093 57.9073C658.944 58.0026 658.758 58.0772 658.536 58.1309C658.313 58.1847 658.053 58.2116 657.754 58.2116C657.246 58.2116 656.742 58.1224 656.243 57.9439C655.744 57.7655 655.282 57.4979 654.857 57.141ZM650.912 51.3593H653.922V49.4336H645.531V51.3593H648.527V59.9336H650.912V51.3593Z" fill="white"/>
</g>
<path d="M406 183.066C406 167.013 419.013 154 435.066 154C451.119 154 464.132 167.013 464.132 183.066C464.132 199.119 451.119 212.132 435.066 212.132C419.013 212.132 406 199.119 406 183.066Z" fill="#202023"/>
<path d="M406 183.066C406 167.013 419.013 154 435.066 154C451.119 154 464.132 167.013 464.132 183.066C464.132 199.119 451.119 212.132 435.066 212.132C419.013 212.132 406 199.119 406 183.066Z" stroke="#27272A"/>
<g clip-path="url(#clip2_837_397)">
<path d="M447 170.132H423V194.132H447V170.132Z" fill="#F7DF1E"/>
<path d="M439.122 188.882C439.605 189.671 440.234 190.252 441.347 190.252C442.281 190.252 442.878 189.784 442.878 189.139C442.878 188.366 442.265 188.092 441.236 187.642L440.672 187.4C439.045 186.707 437.964 185.838 437.964 184.002C437.964 182.311 439.253 181.023 441.267 181.023C442.701 181.023 443.731 181.522 444.474 182.829L442.718 183.956C442.331 183.263 441.914 182.99 441.267 182.99C440.606 182.99 440.187 183.409 440.187 183.956C440.187 184.633 440.606 184.907 441.574 185.326L442.138 185.567C444.054 186.389 445.136 187.227 445.136 189.11C445.136 191.141 443.541 192.253 441.399 192.253C439.304 192.253 437.951 191.255 437.289 189.947L439.122 188.882ZM431.155 189.077C431.509 189.706 431.832 190.237 432.606 190.237C433.347 190.237 433.815 189.948 433.815 188.82V181.152H436.07V188.851C436.07 191.186 434.701 192.249 432.702 192.249C430.897 192.249 429.851 191.314 429.319 190.189L431.155 189.077Z" fill="black"/>
</g>
<path d="M438 49.066C438 33.0133 451.013 20 467.066 20C483.119 20 496.132 33.0133 496.132 49.066C496.132 65.1187 483.119 78.132 467.066 78.132C451.013 78.132 438 65.1187 438 49.066Z" fill="#202023"/>
<path d="M438 49.066C438 33.0133 451.013 20 467.066 20C483.119 20 496.132 33.0133 496.132 49.066C496.132 65.1187 483.119 78.132 467.066 78.132C451.013 78.132 438 65.1187 438 49.066Z" stroke="#27272A"/>
<g clip-path="url(#clip3_837_397)">
<path d="M466.562 37.1323C465.597 37.1368 464.675 37.2191 463.864 37.3625C461.476 37.7845 461.042 38.6678 461.042 40.2967V42.4481H466.687V43.1652H461.042H458.924C457.283 43.1652 455.847 44.1512 455.397 46.027C454.879 48.1771 454.856 49.5188 455.397 51.7639C455.799 53.435 456.757 54.6257 458.397 54.6257H460.338V52.0467C460.338 50.1836 461.95 48.5402 463.864 48.5402H469.503C471.072 48.5402 472.325 47.2479 472.325 45.6717V40.2967C472.325 38.767 471.034 37.6178 469.503 37.3625C468.533 37.2011 467.527 37.1278 466.562 37.1323ZM463.509 38.8625C464.092 38.8625 464.568 39.3465 464.568 39.9415C464.568 40.5344 464.092 41.0139 463.509 41.0139C462.924 41.0139 462.45 40.5344 462.45 39.9415C462.45 39.3465 462.924 38.8625 463.509 38.8625Z" fill="url(#paint0_linear_837_397)"/>
<path d="M473.029 43.1653V45.6719C473.029 47.6152 471.381 49.2508 469.503 49.2508H463.864C462.32 49.2508 461.042 50.5726 461.042 52.1192V57.4942C461.042 59.024 462.372 59.9238 463.864 60.3627C465.651 60.888 467.365 60.983 469.503 60.3627C470.924 59.9512 472.325 59.1232 472.325 57.4942V55.3429H466.687V54.6258H472.325H475.147C476.788 54.6258 477.399 53.4815 477.97 51.764C478.559 49.9958 478.534 48.2954 477.97 46.0271C477.564 44.394 476.79 43.1653 475.147 43.1653H473.029ZM469.858 56.7771C470.443 56.7771 470.917 57.2566 470.917 57.8495C470.917 58.4445 470.443 58.9284 469.858 58.9284C469.275 58.9284 468.799 58.4445 468.799 57.8495C468.799 57.2566 469.275 56.7771 469.858 56.7771Z" fill="url(#paint1_linear_837_397)"/>
</g>
<path d="M618.055 111H618.056C630.237 111 640.111 120.874 640.111 133.055V133.056C640.111 145.237 630.237 155.111 618.056 155.111H618.055C605.874 155.111 596 145.237 596 133.056V133.055C596 120.874 605.874 111 618.055 111Z" fill="#202023"/>
<path d="M618.055 111H618.056C630.237 111 640.111 120.874 640.111 133.055V133.056C640.111 145.237 630.237 155.111 618.056 155.111H618.055C605.874 155.111 596 145.237 596 133.056V133.055C596 120.874 605.874 111 618.055 111Z" stroke="#27272A" stroke-width="0.759"/>
<g clip-path="url(#clip4_837_397)">
<path d="M617.649 123.624L624.855 123.616L612.765 135.7L609.614 138.833L606.029 135.244L617.649 123.624ZM617.582 134.414C617.675 134.29 617.847 134.351 617.978 134.335L624.849 134.337L618.587 140.593L614.983 137.011L617.582 134.414Z" fill="#44D1FD"/>
<path d="M611.391 140.599L614.983 137.011L618.587 140.593L618.602 140.609L614.984 144.193L611.391 140.599Z" fill="#1FBCFD"/>
<path d="M614.984 144.193L618.602 140.608L624.851 146.864C622.497 146.87 620.144 146.863 617.791 146.868C617.657 146.898 617.574 146.775 617.488 146.699L614.984 144.193Z" fill="#08589C"/>
</g>
<path d="M275 104.066C275 88.0133 288.013 75 304.066 75C320.119 75 333.132 88.0133 333.132 104.066C333.132 120.119 320.119 133.132 304.066 133.132C288.013 133.132 275 120.119 275 104.066Z" fill="#202023"/>
<path d="M275 104.066C275 88.0133 288.013 75 304.066 75C320.119 75 333.132 88.0133 333.132 104.066C333.132 120.119 320.119 133.132 304.066 133.132C288.013 133.132 275 120.119 275 104.066Z" stroke="#27272A"/>
<g clip-path="url(#clip5_837_397)">
<path d="M292.503 116.25L304.543 104.21L316.503 116.25H292.503Z" fill="url(#paint2_linear_837_397)"/>
<path d="M292.503 92.25H304.543L292.503 105.25V92.25Z" fill="url(#paint3_linear_837_397)"/>
<path d="M304.543 92.25L292.503 104.93V116.25L304.543 104.21L316.503 92.25H304.543Z" fill="url(#paint4_linear_837_397)"/>
</g>
</g>
<defs>
<linearGradient id="paint0_linear_837_397" x1="455" y1="37.1321" x2="468.016" y2="48.2236" gradientUnits="userSpaceOnUse">
<stop stop-color="#5A9FD4"/>
<stop offset="1" stop-color="#306998"/>
</linearGradient>
<linearGradient id="paint1_linear_837_397" x1="469.722" y1="57.6686" x2="465.053" y2="51.125" gradientUnits="userSpaceOnUse">
<stop stop-color="#FFD43B"/>
<stop offset="1" stop-color="#FFE873"/>
</linearGradient>
<linearGradient id="paint2_linear_837_397" x1="298.887" y1="121.856" x2="310.226" y2="110.517" gradientUnits="userSpaceOnUse">
<stop offset="0.09677" stop-color="#0095D5"/>
<stop offset="0.3007" stop-color="#238AD9"/>
<stop offset="0.6211" stop-color="#557BDE"/>
<stop offset="0.8643" stop-color="#7472E2"/>
<stop offset="1" stop-color="#806EE3"/>
</linearGradient>
<linearGradient id="paint3_linear_837_397" x1="294.187" y1="97.0736" x2="300.772" y2="90.488" gradientUnits="userSpaceOnUse">
<stop offset="0.1183" stop-color="#0095D5"/>
<stop offset="0.4178" stop-color="#3C83DC"/>
<stop offset="0.6962" stop-color="#6D74E1"/>
<stop offset="0.8333" stop-color="#806EE3"/>
</linearGradient>
<linearGradient id="paint4_linear_837_397" x1="288.462" y1="114.316" x2="310.796" y2="91.9822" gradientUnits="userSpaceOnUse">
<stop offset="0.1075" stop-color="#C757BC"/>
<stop offset="0.2138" stop-color="#D0609A"/>
<stop offset="0.4254" stop-color="#E1725C"/>
<stop offset="0.6048" stop-color="#EE7E2F"/>
<stop offset="0.743" stop-color="#F58613"/>
<stop offset="0.8232" stop-color="#F88909"/>
</linearGradient>
<clipPath id="clip0_837_397">
<rect width="695" height="235" fill="white"/>
</clipPath>
<clipPath id="clip1_837_397">
<rect width="24" height="24" fill="white" transform="translate(640 38.043)"/>
</clipPath>
<clipPath id="clip2_837_397">
<rect width="24" height="24" fill="white" transform="translate(423 170.132)"/>
</clipPath>
<clipPath id="clip3_837_397">
<rect width="23.3684" height="24" fill="white" transform="translate(455 37.1321)"/>
</clipPath>
<clipPath id="clip4_837_397">
<rect width="19.9412" height="24" fill="white" transform="translate(605.624 123.263)"/>
</clipPath>
<clipPath id="clip5_837_397">
<rect width="24" height="24" fill="white" transform="translate(292.503 92.25)"/>
</clipPath>
</defs>
</svg>
