<svg width="48" height="48" viewBox="0 0 48 48" fill="none" xmlns="http://www.w3.org/2000/svg">
<rect width="48" height="48" rx="8" fill="#161616" fill-opacity="0.5"/>
<path fill-rule="evenodd" clip-rule="evenodd" d="M20.478 13.6C20.5632 13.6494 20.6379 13.7151 20.6977 13.7933C20.7576 13.8715 20.8014 13.9608 20.8268 14.056C20.8521 14.1512 20.8585 14.2504 20.8455 14.348C20.8325 14.4457 20.8004 14.5398 20.751 14.625C20.5495 14.9736 20.406 15.3525 20.326 15.747C20.384 15.804 20.444 15.861 20.506 15.915C20.9274 15.3945 21.4599 14.9749 22.0644 14.6868C22.669 14.3987 23.3303 14.2495 24 14.25C25.413 14.25 26.673 14.901 27.497 15.918C27.557 15.864 27.617 15.808 27.675 15.751C27.5951 15.355 27.4512 14.9747 27.249 14.625C27.1956 14.5396 27.16 14.4444 27.1442 14.345C27.1285 14.2455 27.1329 14.1439 27.1572 14.0462C27.1816 13.9486 27.2253 13.8568 27.2859 13.7763C27.3465 13.6959 27.4226 13.6285 27.5098 13.5781C27.5969 13.5278 27.6934 13.4955 27.7933 13.4832C27.8932 13.4709 27.9946 13.4788 28.0914 13.5065C28.1882 13.5342 28.2784 13.5811 28.3567 13.6444C28.4349 13.7077 28.4997 13.7862 28.547 13.875C28.9103 14.5027 29.1388 15.1991 29.218 15.92C29.2294 16.0247 29.2187 16.1307 29.1865 16.2309C29.1542 16.3312 29.1013 16.4236 29.031 16.502C28.79 16.772 28.526 17.022 28.244 17.251C28.4817 17.9239 28.5557 18.6438 28.46 19.351C28.354 20.143 27.707 20.646 27.043 20.754C26.861 20.784 26.679 20.811 26.496 20.835C26.648 21.062 26.769 21.311 26.855 21.576C28.1527 21.4175 29.4346 21.1492 30.687 20.774C30.6223 19.8902 30.5071 19.0107 30.342 18.14C30.3048 17.9446 30.3469 17.7423 30.4588 17.5779C30.5708 17.4134 30.7435 17.3001 30.939 17.263C31.1344 17.2259 31.3366 17.2679 31.5011 17.3799C31.6656 17.4918 31.7788 17.6646 31.816 17.86C32.026 18.975 32.164 20.116 32.22 21.278C32.2279 21.4422 32.1817 21.6043 32.0885 21.7397C31.9952 21.875 31.8602 21.9759 31.704 22.027C30.177 22.527 28.585 22.882 26.944 23.077C26.87 23.457 26.724 23.812 26.521 24.127C28.5506 24.3316 30.5469 24.7878 32.464 25.485C32.6159 25.5403 32.7458 25.6432 32.8345 25.7784C32.9231 25.9135 32.9657 26.0737 32.956 26.235C32.8311 28.3609 32.4315 30.4618 31.767 32.485C31.7361 32.5786 31.6871 32.6652 31.6228 32.7398C31.5585 32.8144 31.4801 32.8757 31.3921 32.92C31.3041 32.9643 31.2083 32.9909 31.11 32.9982C31.0118 33.0055 30.913 32.9934 30.8195 32.9625C30.7259 32.9317 30.6393 32.8827 30.5647 32.8183C30.4901 32.754 30.4288 32.6756 30.3845 32.5877C30.3402 32.4997 30.3136 32.4038 30.3063 32.3056C30.299 32.2073 30.3111 32.1086 30.342 32.015C30.9074 30.2943 31.2689 28.5131 31.419 26.708C30.919 26.54 30.41 26.388 29.895 26.254C29.963 26.488 29.999 26.738 29.999 27C29.999 30.956 27.478 34.5 23.999 34.5C20.521 34.5 17.999 30.956 17.999 27C17.999 26.738 18.036 26.489 18.103 26.254C17.589 26.388 17.081 26.54 16.581 26.708C16.731 28.5134 17.0924 30.2949 17.658 32.016C17.7172 32.2042 17.6999 32.4082 17.6098 32.5837C17.5196 32.7592 17.364 32.8921 17.1766 32.9537C16.9891 33.0152 16.785 33.0005 16.6084 32.9125C16.4317 32.8246 16.2969 32.6707 16.233 32.484C15.5681 30.4608 15.1681 28.36 15.043 26.234C15.0335 26.0727 15.0764 25.9127 15.1652 25.7777C15.254 25.6428 15.3841 25.5401 15.536 25.485C17.143 24.9002 18.8067 24.4846 20.5 24.245H20.51C20.831 24.199 21.154 24.16 21.479 24.127C21.2719 23.8073 21.1279 23.4509 21.055 23.077C19.4375 22.8854 17.843 22.5337 16.295 22.027C16.1386 21.9759 16.0034 21.8748 15.9102 21.7393C15.8169 21.6037 15.7708 21.4413 15.779 21.277C15.836 20.116 15.973 18.975 16.184 17.86C16.2211 17.6646 16.3344 17.4918 16.4988 17.3799C16.6633 17.2679 16.8655 17.2259 17.061 17.263C17.2564 17.3001 17.4291 17.4134 17.5411 17.5779C17.6531 17.7423 17.6951 17.9446 17.658 18.14C17.494 19.002 17.378 19.88 17.313 20.774C18.55 21.144 19.83 21.415 21.145 21.576C21.23 21.311 21.352 21.062 21.504 20.836C21.3212 20.8114 21.1389 20.784 20.957 20.754C20.293 20.646 19.646 20.143 19.54 19.351C19.4456 18.6427 19.52 17.9221 19.757 17.248C19.4746 17.0192 19.2111 16.768 18.969 16.497C18.8986 16.4185 18.8455 16.3259 18.8133 16.2255C18.7811 16.125 18.7704 16.0189 18.782 15.914C18.8615 15.1949 19.0897 14.5002 19.452 13.874C19.5013 13.7887 19.5671 13.7139 19.6454 13.6539C19.7237 13.594 19.8131 13.5501 19.9084 13.5247C20.0037 13.4994 20.103 13.4931 20.2008 13.5062C20.2985 13.5192 20.3927 13.5505 20.478 13.6Z" fill="white"/>
<rect x="0.5" y="0.5" width="47" height="47" rx="7.5" stroke="white" stroke-opacity="0.05"/>
</svg>
