<svg width="88" height="88" viewBox="0 0 88 88" fill="none" xmlns="http://www.w3.org/2000/svg">
<g filter="url(#filter0_b_832_603)">
<rect x="12" y="12" width="64" height="64" rx="6" fill="#1B1A1C" fill-opacity="0.25"/>
<path d="M43 34.044C40.9108 32.7058 38.481 31.9963 36 32C34.524 31.9985 33.0585 32.2488 31.6667 32.74C31.4717 32.8089 31.3029 32.9366 31.1835 33.1054C31.0642 33.2742 31 33.4759 31 33.6827V52.6827C31 52.8426 31.0384 53.0003 31.112 53.1423C31.1855 53.2844 31.2921 53.4067 31.4227 53.4991C31.5533 53.5914 31.7042 53.6511 31.8626 53.6731C32.0211 53.695 32.1825 53.6787 32.3333 53.6253C33.5111 53.2099 34.7511 52.9985 36 53C38.66 53 41.0973 53.9427 43 55.5147V34.044ZM45 55.5147C46.9685 53.8855 49.4448 52.996 52 53C53.288 53 54.52 53.2213 55.6667 53.6267C55.8176 53.68 55.9791 53.6964 56.1377 53.6744C56.2962 53.6523 56.4472 53.5925 56.5778 53.5C56.7085 53.4075 56.815 53.285 56.8885 53.1428C56.9619 53.0006 57.0002 52.8428 57 52.6827V33.6827C57 33.4759 56.9358 33.2742 56.8165 33.1054C56.6971 32.9366 56.5283 32.8089 56.3333 32.74C54.9415 32.2488 53.476 31.9985 52 32C49.519 31.9963 47.0892 32.7058 45 34.044V55.5147Z" fill="white"/>
<rect x="12.5" y="12.5" width="63" height="63" rx="5.5" stroke="white" stroke-opacity="0.1"/>
</g>
<rect x="6.5" y="6.5" width="75" height="75" rx="9.5" stroke="white" stroke-opacity="0.02"/>
<rect x="0.5" y="0.5" width="87" height="87" rx="11.5" stroke="white" stroke-opacity="0.02"/>
<defs>
<filter id="filter0_b_832_603" x="-88" y="-88" width="264" height="264" filterUnits="userSpaceOnUse" color-interpolation-filters="sRGB">
<feFlood flood-opacity="0" result="BackgroundImageFix"/>
<feGaussianBlur in="BackgroundImageFix" stdDeviation="50"/>
<feComposite in2="SourceAlpha" operator="in" result="effect1_backgroundBlur_832_603"/>
<feBlend mode="normal" in="SourceGraphic" in2="effect1_backgroundBlur_832_603" result="shape"/>
</filter>
</defs>
</svg>
