<svg width="20" height="20" viewBox="0 0 20 20" fill="none" xmlns="http://www.w3.org/2000/svg">
<path fill-rule="evenodd" clip-rule="evenodd" d="M7.83415 2.50244C8.79665 0.835775 11.2033 0.835775 12.165 2.50244L18.2942 13.1258C19.2558 14.7924 18.0525 16.8758 16.1283 16.8758H3.87082C1.94665 16.8758 0.744153 14.7924 1.70582 13.1258L7.83332 2.50244H7.83415ZM9.99999 6.87494C10.1657 6.87494 10.3247 6.94079 10.4419 7.058C10.5591 7.17521 10.625 7.33418 10.625 7.49994V10.6249C10.625 10.7907 10.5591 10.9497 10.4419 11.0669C10.3247 11.1841 10.1657 11.2499 9.99999 11.2499C9.83423 11.2499 9.67525 11.1841 9.55804 11.0669C9.44083 10.9497 9.37499 10.7907 9.37499 10.6249V7.49994C9.37499 7.33418 9.44083 7.17521 9.55804 7.058C9.67525 6.94079 9.83423 6.87494 9.99999 6.87494ZM9.99999 13.7499C10.1657 13.7499 10.3247 13.6841 10.4419 13.5669C10.5591 13.4497 10.625 13.2907 10.625 13.1249C10.625 12.9592 10.5591 12.8002 10.4419 12.683C10.3247 12.5658 10.1657 12.4999 9.99999 12.4999C9.83423 12.4999 9.67525 12.5658 9.55804 12.683C9.44083 12.8002 9.37499 12.9592 9.37499 13.1249C9.37499 13.2907 9.44083 13.4497 9.55804 13.5669C9.67525 13.6841 9.83423 13.7499 9.99999 13.7499Z" fill="#C30404" fill-opacity="0.66"/>
</svg>
