<svg width="48" height="48" viewBox="0 0 48 48" fill="none" xmlns="http://www.w3.org/2000/svg">
<rect width="48" height="48" rx="8" fill="#121212"/>
<path fill-rule="evenodd" clip-rule="evenodd" d="M25.615 13.595C25.7614 13.6765 25.8763 13.8047 25.9414 13.9591C26.0065 14.1135 26.018 14.2853 25.974 14.447L23.982 21.75H31.25C31.3962 21.75 31.5391 21.7927 31.6614 21.8729C31.7836 21.9531 31.8797 22.0672 31.9379 22.2013C31.9961 22.3353 32.0139 22.4835 31.989 22.6275C31.9642 22.7715 31.8978 22.9052 31.798 23.012L21.298 34.262C21.1837 34.3848 21.0314 34.4657 20.8656 34.4917C20.6999 34.5178 20.5302 34.4875 20.3836 34.4057C20.2371 34.3239 20.1222 34.1954 20.0574 34.0406C19.9926 33.8858 19.9815 33.7138 20.026 33.552L22.018 26.25H14.75C14.6039 26.25 14.4609 26.2073 14.3387 26.1271C14.2165 26.0469 14.1203 25.9328 14.0621 25.7987C14.0039 25.6646 13.9861 25.5165 14.011 25.3724C14.0358 25.2284 14.1022 25.0948 14.202 24.988L24.702 13.738C24.8164 13.6156 24.9684 13.5351 25.1339 13.5092C25.2993 13.4832 25.4687 13.5135 25.615 13.595Z" fill="white"/>
<rect x="0.5" y="0.5" width="47" height="47" rx="7.5" stroke="white" stroke-opacity="0.05"/>
</svg>
