<svg width="912" height="226" viewBox="0 0 912 226" fill="none" xmlns="http://www.w3.org/2000/svg">
<path d="M0.411611 107.318H2.15664L4.81644 111.947H4.92582L7.58562 107.318H9.33065L5.63675 113.503V117.5H4.1055V113.503L0.411611 107.318ZM13.3206 117.654C12.6047 117.654 11.9799 117.49 11.4463 117.162C10.9127 116.834 10.4984 116.375 10.2034 115.785C9.90843 115.195 9.76094 114.505 9.76094 113.717C9.76094 112.924 9.90843 112.232 10.2034 111.638C10.4984 111.045 10.9127 110.585 11.4463 110.256C11.9799 109.928 12.6047 109.764 13.3206 109.764C14.0365 109.764 14.6613 109.928 15.1949 110.256C15.7285 110.585 16.1428 111.045 16.4378 111.638C16.7328 112.232 16.8803 112.924 16.8803 113.717C16.8803 114.505 16.7328 115.195 16.4378 115.785C16.1428 116.375 15.7285 116.834 15.1949 117.162C14.6613 117.49 14.0365 117.654 13.3206 117.654ZM13.3256 116.406C13.7896 116.406 14.1741 116.284 14.479 116.038C14.7839 115.793 15.0093 115.467 15.1551 115.059C15.3043 114.651 15.3788 114.202 15.3788 113.712C15.3788 113.224 15.3043 112.777 15.1551 112.369C15.0093 111.958 14.7839 111.629 14.479 111.38C14.1741 111.131 13.7896 111.007 13.3256 111.007C12.8582 111.007 12.4705 111.131 12.1622 111.38C11.8573 111.629 11.6303 111.958 11.4811 112.369C11.3353 112.777 11.2624 113.224 11.2624 113.712C11.2624 114.202 11.3353 114.651 11.4811 115.059C11.6303 115.467 11.8573 115.793 12.1622 116.038C12.4705 116.284 12.8582 116.406 13.3256 116.406ZM24.0769 114.333V109.864H25.5684V117.5H24.1067V116.178H24.0272C23.8515 116.585 23.5698 116.925 23.182 117.197C22.7975 117.465 22.3186 117.599 21.7452 117.599C21.2547 117.599 20.8205 117.492 20.4426 117.276C20.0681 117.058 19.7731 116.734 19.5577 116.307C19.3456 115.879 19.2395 115.351 19.2395 114.721V109.864H20.726V114.542C20.726 115.062 20.8702 115.477 21.1586 115.785C21.4469 116.093 21.8214 116.247 22.2821 116.247C22.5605 116.247 22.8373 116.178 23.1124 116.038C23.3908 115.899 23.6212 115.689 23.8034 115.407C23.989 115.125 24.0802 114.767 24.0769 114.333ZM28.2657 117.5V109.864H29.7025V111.077H29.782C29.9212 110.666 30.1665 110.343 30.5178 110.107C30.8725 109.869 31.2735 109.749 31.721 109.749C31.8138 109.749 31.9231 109.753 32.0491 109.759C32.1783 109.766 32.2794 109.774 32.3523 109.784V111.206C32.2927 111.189 32.1866 111.171 32.0342 111.151C31.8817 111.128 31.7292 111.116 31.5768 111.116C31.2254 111.116 30.9122 111.191 30.6371 111.34C30.3654 111.486 30.1499 111.69 29.9908 111.952C29.8317 112.21 29.7522 112.505 29.7522 112.837V117.5H28.2657ZM38.8631 117.5V107.318H42.5918C43.3144 107.318 43.9126 107.437 44.3866 107.676C44.8605 107.911 45.2152 108.231 45.4505 108.636C45.6858 109.037 45.8035 109.489 45.8035 109.993C45.8035 110.417 45.7256 110.775 45.5698 111.067C45.414 111.355 45.2052 111.587 44.9434 111.763C44.6849 111.935 44.3998 112.061 44.0883 112.141V112.24C44.4263 112.257 44.7561 112.366 45.0776 112.568C45.4024 112.767 45.6709 113.05 45.883 113.418C46.0951 113.786 46.2012 114.234 46.2012 114.761C46.2012 115.281 46.0786 115.748 45.8333 116.163C45.5914 116.574 45.2168 116.9 44.7097 117.142C44.2026 117.381 43.5547 117.5 42.7658 117.5H38.8631ZM40.3994 116.183H42.6167C43.3525 116.183 43.8795 116.04 44.1977 115.755C44.5158 115.47 44.6749 115.114 44.6749 114.686C44.6749 114.365 44.5937 114.07 44.4313 113.801C44.2689 113.533 44.0369 113.319 43.7353 113.16C43.437 113.001 43.0824 112.921 42.6714 112.921H40.3994V116.183ZM40.3994 111.723H42.4576C42.8023 111.723 43.1122 111.657 43.3873 111.524C43.6657 111.392 43.8861 111.206 44.0485 110.967C44.2142 110.725 44.2971 110.44 44.2971 110.112C44.2971 109.691 44.1496 109.338 43.8546 109.053C43.5596 108.768 43.1072 108.626 42.4974 108.626H40.3994V111.723ZM48.604 117.5V109.864H50.0408V111.077H50.1203C50.2595 110.666 50.5048 110.343 50.8561 110.107C51.2107 109.869 51.6118 109.749 52.0592 109.749C52.152 109.749 52.2614 109.753 52.3874 109.759C52.5166 109.766 52.6177 109.774 52.6906 109.784V111.206C52.631 111.189 52.5249 111.171 52.3724 111.151C52.22 111.128 52.0675 111.116 51.9151 111.116C51.5637 111.116 51.2505 111.191 50.9754 111.34C50.7036 111.486 50.4882 111.69 50.3291 111.952C50.17 112.21 50.0905 112.505 50.0905 112.837V117.5H48.604ZM54.677 117.5V109.864H56.1635V117.5H54.677ZM55.4277 108.685C55.1692 108.685 54.9471 108.599 54.7615 108.427C54.5792 108.251 54.4881 108.042 54.4881 107.8C54.4881 107.555 54.5792 107.346 54.7615 107.174C54.9471 106.998 55.1692 106.911 55.4277 106.911C55.6863 106.911 55.9067 106.998 56.089 107.174C56.2746 107.346 56.3674 107.555 56.3674 107.8C56.3674 108.042 56.2746 108.251 56.089 108.427C55.9067 108.599 55.6863 108.685 55.4277 108.685ZM61.722 117.649C61.1055 117.649 60.5553 117.492 60.0714 117.177C59.5909 116.859 59.213 116.406 58.9379 115.82C58.6661 115.23 58.5303 114.522 58.5303 113.697C58.5303 112.871 58.6678 112.165 58.9429 111.579C59.2213 110.992 59.6025 110.543 60.0864 110.232C60.5703 109.92 61.1188 109.764 61.732 109.764C62.2059 109.764 62.5871 109.844 62.8754 110.003C63.1671 110.159 63.3925 110.341 63.5516 110.55C63.714 110.759 63.8399 110.942 63.9294 111.102H64.0189V107.318H65.5054V117.5H64.0537V116.312H63.9294C63.8399 116.474 63.7107 116.66 63.5416 116.869C63.3759 117.077 63.1472 117.26 62.8555 117.415C62.5639 117.571 62.186 117.649 61.722 117.649ZM62.0501 116.381C62.4777 116.381 62.839 116.269 63.1339 116.043C63.4322 115.815 63.6576 115.498 63.8101 115.094C63.9659 114.689 64.0437 114.219 64.0437 113.682C64.0437 113.152 63.9675 112.687 63.8151 112.29C63.6626 111.892 63.4389 111.582 63.1439 111.36C62.8489 111.138 62.4843 111.027 62.0501 111.027C61.6027 111.027 61.2298 111.143 60.9315 111.375C60.6332 111.607 60.4079 111.924 60.2554 112.325C60.1062 112.726 60.0317 113.178 60.0317 113.682C60.0317 114.192 60.1079 114.651 60.2604 115.059C60.4128 115.467 60.6382 115.79 60.9365 116.028C61.2381 116.264 61.6093 116.381 62.0501 116.381ZM71.5287 120.523C70.9222 120.523 70.4002 120.443 69.9627 120.284C69.5285 120.125 69.1739 119.915 68.8988 119.653C68.6237 119.391 68.4182 119.104 68.2823 118.793L69.56 118.266C69.6495 118.411 69.7688 118.566 69.9179 118.728C70.0704 118.894 70.2759 119.035 70.5344 119.151C70.7962 119.267 71.1327 119.325 71.5436 119.325C72.1071 119.325 72.5728 119.187 72.9407 118.912C73.3086 118.64 73.4925 118.206 73.4925 117.609V116.108H73.398C73.3086 116.27 73.1793 116.451 73.0103 116.65C72.8445 116.849 72.6159 117.021 72.3242 117.167C72.0325 117.313 71.653 117.386 71.1857 117.386C70.5825 117.386 70.0389 117.245 69.555 116.963C69.0744 116.678 68.6933 116.259 68.4115 115.705C68.1331 115.148 67.9939 114.464 67.9939 113.652C67.9939 112.84 68.1315 112.144 68.4066 111.564C68.685 110.984 69.0661 110.54 69.55 110.232C70.0339 109.92 70.5825 109.764 71.1956 109.764C71.6696 109.764 72.0524 109.844 72.3441 110.003C72.6357 110.159 72.8628 110.341 73.0252 110.55C73.1909 110.759 73.3185 110.942 73.408 111.102H73.5174V109.864H74.974V117.669C74.974 118.325 74.8216 118.864 74.5167 119.285C74.2117 119.706 73.7991 120.017 73.2787 120.219C72.7617 120.422 72.1784 120.523 71.5287 120.523ZM71.5138 116.153C71.9414 116.153 72.3026 116.053 72.5976 115.854C72.8959 115.652 73.1213 115.364 73.2738 114.989C73.4295 114.612 73.5074 114.159 73.5074 113.632C73.5074 113.118 73.4312 112.666 73.2787 112.275C73.1263 111.884 72.9025 111.579 72.6076 111.36C72.3126 111.138 71.948 111.027 71.5138 111.027C71.0664 111.027 70.6935 111.143 70.3952 111.375C70.0969 111.604 69.8715 111.915 69.7191 112.31C69.5699 112.704 69.4953 113.145 69.4953 113.632C69.4953 114.133 69.5716 114.572 69.724 114.95C69.8765 115.327 70.1019 115.622 70.4002 115.835C70.7018 116.047 71.073 116.153 71.5138 116.153ZM80.9588 117.654C80.2065 117.654 79.5585 117.493 79.0149 117.172C78.4747 116.847 78.0571 116.391 77.7621 115.805C77.4704 115.215 77.3246 114.524 77.3246 113.732C77.3246 112.949 77.4704 112.26 77.7621 111.663C78.0571 111.067 78.4681 110.601 78.9951 110.266C79.5254 109.932 80.1452 109.764 80.8544 109.764C81.2853 109.764 81.7029 109.835 82.1073 109.978C82.5116 110.121 82.8746 110.344 83.1961 110.649C83.5176 110.954 83.7711 111.35 83.9567 111.837C84.1423 112.321 84.2351 112.91 84.2351 113.602V114.129H78.1648V113.016H82.7784C82.7784 112.625 82.6989 112.278 82.5398 111.977C82.3807 111.672 82.157 111.431 81.8686 111.256C81.5836 111.08 81.2489 110.992 80.8644 110.992C80.4468 110.992 80.0822 111.095 79.7706 111.3C79.4624 111.503 79.2238 111.768 79.0547 112.096C78.889 112.421 78.8061 112.774 78.8061 113.155V114.025C78.8061 114.535 78.8956 114.969 79.0746 115.327C79.2569 115.685 79.5105 115.959 79.8353 116.148C80.1601 116.333 80.5396 116.426 80.9738 116.426C81.2555 116.426 81.5123 116.386 81.7444 116.307C81.9764 116.224 82.1769 116.101 82.3459 115.939C82.5149 115.777 82.6442 115.576 82.7337 115.337L84.1407 115.591C84.028 116.005 83.8258 116.368 83.5341 116.68C83.2458 116.988 82.8828 117.228 82.4453 117.401C82.0112 117.57 81.5157 117.654 80.9588 117.654ZM91.9689 117.5H90.3382L94.0023 107.318H95.7772L99.4412 117.5H97.8105L94.932 109.168H94.8525L91.9689 117.5ZM92.2424 113.513H97.5321V114.805H92.2424V113.513ZM101.612 117.5V107.318H105.241C106.033 107.318 106.689 107.462 107.21 107.751C107.73 108.039 108.119 108.433 108.378 108.934C108.636 109.431 108.766 109.991 108.766 110.614C108.766 111.241 108.635 111.804 108.373 112.305C108.114 112.802 107.723 113.196 107.2 113.488C106.679 113.776 106.025 113.92 105.236 113.92H102.74V112.618H105.097C105.597 112.618 106.003 112.532 106.315 112.359C106.626 112.184 106.855 111.945 107.001 111.643C107.147 111.342 107.22 110.999 107.22 110.614C107.22 110.23 107.147 109.888 107.001 109.59C106.855 109.292 106.625 109.058 106.31 108.889C105.998 108.72 105.587 108.636 105.077 108.636H103.148V117.5H101.612ZM112.803 107.318V117.5H111.267V107.318H112.803Z" fill="white" fill-opacity="0.75"/>
<g filter="url(#filter0_b_890_417)">
<rect x="136" y="84" width="56" height="56" rx="6" fill="#1B1A1C" fill-opacity="0.25"/>
<path fill-rule="evenodd" clip-rule="evenodd" d="M155 106C155 105.204 155.316 104.441 155.879 103.879C156.441 103.316 157.204 103 158 103H170C170.796 103 171.559 103.316 172.121 103.879C172.684 104.441 173 105.204 173 106V118C173 118.796 172.684 119.559 172.121 120.121C171.559 120.684 170.796 121 170 121H158C157.204 121 156.441 120.684 155.879 120.121C155.316 119.559 155 118.796 155 118V106ZM169.25 112C169.25 112.199 169.171 112.389 169.03 112.53L166.78 114.78C166.711 114.854 166.629 114.913 166.537 114.954C166.445 114.995 166.345 115.017 166.245 115.019C166.144 115.02 166.044 115.002 165.95 114.964C165.857 114.926 165.772 114.87 165.701 114.799C165.63 114.728 165.574 114.643 165.536 114.55C165.498 114.456 165.48 114.356 165.481 114.255C165.483 114.155 165.505 114.055 165.546 113.963C165.587 113.871 165.646 113.789 165.72 113.72L167.44 112L165.72 110.28C165.646 110.211 165.587 110.129 165.546 110.037C165.505 109.945 165.483 109.845 165.481 109.745C165.48 109.644 165.498 109.544 165.536 109.45C165.574 109.357 165.63 109.272 165.701 109.201C165.772 109.13 165.857 109.074 165.95 109.036C166.044 108.998 166.144 108.98 166.245 108.981C166.345 108.983 166.445 109.005 166.537 109.046C166.629 109.087 166.711 109.146 166.78 109.22L169.03 111.47C169.171 111.61 169.25 111.801 169.25 112ZM158.97 111.47C158.83 111.611 158.751 111.801 158.751 112C158.751 112.199 158.83 112.389 158.97 112.53L161.22 114.78C161.289 114.854 161.371 114.913 161.463 114.954C161.555 114.995 161.655 115.017 161.755 115.019C161.856 115.02 161.956 115.002 162.05 114.964C162.143 114.926 162.228 114.87 162.299 114.799C162.37 114.728 162.426 114.643 162.464 114.55C162.502 114.456 162.52 114.356 162.519 114.255C162.517 114.155 162.495 114.055 162.454 113.963C162.413 113.871 162.354 113.789 162.28 113.72L160.56 112L162.28 110.28C162.354 110.211 162.413 110.129 162.454 110.037C162.495 109.945 162.517 109.845 162.519 109.745C162.52 109.644 162.502 109.544 162.464 109.45C162.426 109.357 162.37 109.272 162.299 109.201C162.228 109.13 162.143 109.074 162.05 109.036C161.956 108.998 161.856 108.98 161.755 108.981C161.655 108.983 161.555 109.005 161.463 109.046C161.371 109.087 161.289 109.146 161.22 109.22L158.97 111.47Z" fill="url(#paint0_linear_890_417)"/>
<rect x="136.5" y="84.5" width="55" height="55" rx="5.5" stroke="white" stroke-opacity="0.1"/>
</g>
<rect x="130.5" y="78.5" width="67" height="67" rx="9.5" stroke="white" stroke-opacity="0.05"/>
<rect x="124.5" y="72.5" width="79" height="79" rx="11.5" stroke="white" stroke-opacity="0.02"/>
<line x1="366" y1="112.5" x2="208" y2="112.5" stroke="url(#paint1_linear_890_417)"/>
<g clip-path="url(#clip0_890_417)">
<rect x="684" width="64" height="64" rx="12" fill="#252326" fill-opacity="0.25"/>
<g filter="url(#filter1_f_890_417)">
<circle cx="698" cy="52" r="14" fill="url(#paint2_radial_890_417)"/>
</g>
<path d="M716 26.042C714.352 24.5634 712.214 23.747 710 23.75C708.948 23.75 707.938 23.93 707 24.262V38.512C707.964 38.172 708.978 37.9989 710 38C712.305 38 714.408 38.867 716 40.292M716 26.042C717.648 24.5633 719.786 23.7469 722 23.75C723.052 23.75 724.062 23.93 725 24.262V38.512C724.036 38.172 723.022 37.9989 722 38C719.786 37.997 717.648 38.8134 716 40.292M716 26.042V40.292" stroke="url(#paint3_linear_890_417)" stroke-width="1.5" stroke-linecap="round" stroke-linejoin="round"/>
</g>
<rect x="684.5" y="0.5" width="63" height="63" rx="11.5" stroke="#27282C"/>
<path d="M773.979 37.5H772.348L776.012 27.3182H777.787L781.451 37.5H779.82L776.942 29.1676H776.862L773.979 37.5ZM774.252 33.5128H779.542V34.8054H774.252V33.5128ZM783.621 37.5V27.3182H787.251C788.043 27.3182 788.699 27.4624 789.219 27.7507C789.74 28.0391 790.129 28.4335 790.388 28.9339C790.646 29.4311 790.775 29.9912 790.775 30.6143C790.775 31.2408 790.645 31.8042 790.383 32.3047C790.124 32.8018 789.733 33.1963 789.209 33.4879C788.689 33.7763 788.034 33.9205 787.246 33.9205H784.75V32.6179H787.106C787.607 32.6179 788.013 32.5317 788.324 32.3594C788.636 32.1837 788.865 31.9451 789.011 31.6435C789.156 31.3419 789.229 30.9988 789.229 30.6143C789.229 30.2299 789.156 29.8885 789.011 29.5902C788.865 29.2919 788.634 29.0582 788.319 28.8892C788.008 28.7202 787.597 28.6357 787.087 28.6357H785.158V37.5H783.621ZM794.813 27.3182V37.5H793.276V27.3182H794.813ZM805.451 37.5H802.155V27.3182H805.556C806.553 27.3182 807.41 27.522 808.126 27.9297C808.842 28.334 809.39 28.9157 809.771 29.6747C810.156 30.4304 810.348 31.3369 810.348 32.3942C810.348 33.4548 810.154 34.3662 809.766 35.1286C809.382 35.8909 808.825 36.4775 808.096 36.8885C807.367 37.2962 806.485 37.5 805.451 37.5ZM803.691 36.1577H805.367C806.142 36.1577 806.787 36.0118 807.301 35.7202C807.814 35.4252 808.199 34.9993 808.454 34.4425C808.709 33.8823 808.837 33.1996 808.837 32.3942C808.837 31.5954 808.709 30.9176 808.454 30.3608C808.202 29.804 807.826 29.3814 807.325 29.093C806.825 28.8047 806.203 28.6605 805.461 28.6605H803.691V36.1577ZM816.056 37.6541C815.34 37.6541 814.715 37.4901 814.181 37.1619C813.648 36.8338 813.234 36.3748 812.939 35.7848C812.644 35.1948 812.496 34.5054 812.496 33.7166C812.496 32.9245 812.644 32.2318 812.939 31.6385C813.234 31.0452 813.648 30.5845 814.181 30.2564C814.715 29.9283 815.34 29.7642 816.056 29.7642C816.772 29.7642 817.396 29.9283 817.93 30.2564C818.464 30.5845 818.878 31.0452 819.173 31.6385C819.468 32.2318 819.615 32.9245 819.615 33.7166C819.615 34.5054 819.468 35.1948 819.173 35.7848C818.878 36.3748 818.464 36.8338 817.93 37.1619C817.396 37.4901 816.772 37.6541 816.056 37.6541ZM816.061 36.4062C816.525 36.4062 816.909 36.2836 817.214 36.0384C817.519 35.7931 817.744 35.4666 817.89 35.0589C818.039 34.6513 818.114 34.2022 818.114 33.7116C818.114 33.2244 818.039 32.777 817.89 32.3693C817.744 31.9583 817.519 31.6286 817.214 31.38C816.909 31.1314 816.525 31.0071 816.061 31.0071C815.593 31.0071 815.206 31.1314 814.897 31.38C814.592 31.6286 814.365 31.9583 814.216 32.3693C814.07 32.777 813.998 33.2244 813.998 33.7116C813.998 34.2022 814.07 34.6513 814.216 35.0589C814.365 35.4666 814.592 35.7931 814.897 36.0384C815.206 36.2836 815.593 36.4062 816.061 36.4062ZM825.191 37.6541C824.452 37.6541 823.816 37.4867 823.282 37.152C822.752 36.8139 822.344 36.3482 822.059 35.755C821.774 35.1617 821.632 34.4822 821.632 33.7166C821.632 32.9411 821.777 32.2566 822.069 31.6634C822.361 31.0668 822.772 30.6011 823.302 30.2663C823.832 29.9316 824.457 29.7642 825.176 29.7642C825.756 29.7642 826.273 29.8719 826.728 30.0874C827.182 30.2995 827.548 30.5978 827.826 30.9822C828.108 31.3667 828.275 31.8158 828.328 32.3295H826.882C826.802 31.9716 826.62 31.6634 826.335 31.4048C826.053 31.1463 825.675 31.017 825.201 31.017C824.787 31.017 824.424 31.1264 824.112 31.3452C823.804 31.5606 823.564 31.8688 823.392 32.2699C823.219 32.6676 823.133 33.1383 823.133 33.6818C823.133 34.2386 823.218 34.7192 823.387 35.1236C823.556 35.5279 823.794 35.8411 824.103 36.0632C824.414 36.2853 824.78 36.3963 825.201 36.3963C825.483 36.3963 825.738 36.3449 825.967 36.2422C826.199 36.1361 826.393 35.9853 826.549 35.7898C826.708 35.5942 826.819 35.3589 826.882 35.0838H828.328C828.275 35.5777 828.115 36.0185 827.846 36.4062C827.578 36.794 827.218 37.099 826.767 37.321C826.32 37.5431 825.795 37.6541 825.191 37.6541ZM835.455 34.3331V29.8636H836.947V37.5H835.485V36.1776H835.406C835.23 36.5852 834.948 36.925 834.561 37.1967C834.176 37.4652 833.697 37.5994 833.124 37.5994C832.633 37.5994 832.199 37.4917 831.821 37.2763C831.447 37.0575 831.152 36.7344 830.936 36.3068C830.724 35.8793 830.618 35.3506 830.618 34.7209V29.8636H832.105V34.5419C832.105 35.0623 832.249 35.4766 832.537 35.7848C832.825 36.093 833.2 36.2472 833.661 36.2472C833.939 36.2472 834.216 36.1776 834.491 36.0384C834.769 35.8991 835 35.6887 835.182 35.407C835.368 35.1252 835.459 34.7673 835.455 34.3331ZM839.644 37.5V29.8636H841.071V31.1065H841.166C841.325 30.6856 841.585 30.3575 841.946 30.1222C842.307 29.8835 842.74 29.7642 843.244 29.7642C843.754 29.7642 844.182 29.8835 844.526 30.1222C844.874 30.3608 845.131 30.6889 845.297 31.1065H845.376C845.559 30.6989 845.849 30.3741 846.246 30.1321C846.644 29.8868 847.118 29.7642 847.668 29.7642C848.361 29.7642 848.926 29.9813 849.364 30.4155C849.804 30.8497 850.025 31.5043 850.025 32.3793V37.5H848.538V32.5185C848.538 32.0014 848.398 31.6269 848.116 31.3949C847.834 31.1629 847.498 31.0469 847.107 31.0469C846.623 31.0469 846.246 31.196 845.978 31.4943C845.71 31.7893 845.575 32.1688 845.575 32.6328V37.5H844.094V32.424C844.094 32.0097 843.965 31.6766 843.706 31.4247C843.447 31.1728 843.111 31.0469 842.697 31.0469C842.415 31.0469 842.155 31.1214 841.916 31.2706C841.681 31.4164 841.49 31.6203 841.344 31.8821C841.202 32.1439 841.131 32.4472 841.131 32.7919V37.5H839.644ZM856.008 37.6541C855.256 37.6541 854.608 37.4934 854.065 37.1719C853.524 36.8471 853.107 36.3913 852.812 35.8047C852.52 35.2147 852.374 34.5237 852.374 33.7315C852.374 32.9493 852.52 32.2599 852.812 31.6634C853.107 31.0668 853.518 30.6011 854.045 30.2663C854.575 29.9316 855.195 29.7642 855.904 29.7642C856.335 29.7642 856.753 29.8355 857.157 29.978C857.561 30.1205 857.924 30.3442 858.246 30.6491C858.567 30.9541 858.821 31.3501 859.006 31.8374C859.192 32.3213 859.285 32.9096 859.285 33.6023V34.1293H853.214V33.0156H857.828C857.828 32.6245 857.749 32.2782 857.589 31.9766C857.43 31.6716 857.207 31.4313 856.918 31.2557C856.633 31.08 856.298 30.9922 855.914 30.9922C855.496 30.9922 855.132 31.0949 854.82 31.3004C854.512 31.5026 854.273 31.7678 854.104 32.0959C853.939 32.4207 853.856 32.7737 853.856 33.1548V34.0249C853.856 34.5353 853.945 34.9695 854.124 35.3274C854.307 35.6854 854.56 35.9588 854.885 36.1477C855.21 36.3333 855.589 36.4261 856.023 36.4261C856.305 36.4261 856.562 36.3864 856.794 36.3068C857.026 36.224 857.226 36.1013 857.396 35.9389C857.565 35.7765 857.694 35.576 857.783 35.3374L859.19 35.5909C859.078 36.0052 858.875 36.3681 858.584 36.6797C858.295 36.9879 857.932 37.2282 857.495 37.4006C857.061 37.5696 856.565 37.6541 856.008 37.6541ZM863.121 32.9659V37.5H861.634V29.8636H863.061V31.1065H863.155C863.331 30.7022 863.606 30.3774 863.981 30.1321C864.358 29.8868 864.834 29.7642 865.407 29.7642C865.928 29.7642 866.384 29.8736 866.775 30.0923C867.166 30.3078 867.469 30.6293 867.684 31.0568C867.9 31.4844 868.008 32.013 868.008 32.6428V37.5H866.521V32.8217C866.521 32.2682 866.377 31.8357 866.089 31.5241C865.8 31.2093 865.404 31.0518 864.9 31.0518C864.556 31.0518 864.249 31.1264 863.981 31.2756C863.715 31.4247 863.505 31.6435 863.349 31.9318C863.197 32.2169 863.121 32.5616 863.121 32.9659ZM874.266 29.8636V31.0568H870.095V29.8636H874.266ZM871.213 28.0341H872.7V35.2578C872.7 35.5462 872.743 35.7633 872.829 35.9091C872.915 36.0516 873.026 36.1494 873.162 36.2024C873.301 36.2521 873.452 36.277 873.615 36.277C873.734 36.277 873.838 36.2687 873.928 36.2521C874.017 36.2356 874.087 36.2223 874.137 36.2124L874.405 37.4403C874.319 37.4735 874.196 37.5066 874.037 37.5398C873.878 37.5762 873.679 37.5961 873.441 37.5994C873.049 37.6061 872.685 37.5365 872.347 37.3906C872.009 37.2448 871.735 37.0194 871.527 36.7145C871.318 36.4096 871.213 36.0268 871.213 35.5661V28.0341ZM878.833 37.669C878.349 37.669 877.911 37.5795 877.52 37.4006C877.129 37.2183 876.819 36.9548 876.59 36.6101C876.365 36.2654 876.252 35.8428 876.252 35.3423C876.252 34.9115 876.335 34.5568 876.501 34.2784C876.667 34 876.89 33.7796 877.172 33.6172C877.454 33.4548 877.769 33.3321 878.117 33.2493C878.465 33.1664 878.819 33.1035 879.181 33.0604C879.638 33.0073 880.009 32.9643 880.294 32.9311C880.579 32.8946 880.786 32.8366 880.916 32.7571C881.045 32.6776 881.11 32.5483 881.11 32.3693V32.3345C881.11 31.9003 880.987 31.5639 880.742 31.3253C880.5 31.0866 880.138 30.9673 879.658 30.9673C879.157 30.9673 878.763 31.0784 878.475 31.3004C878.19 31.5192 877.992 31.7628 877.883 32.0312L876.486 31.7131C876.652 31.2491 876.894 30.8745 877.212 30.5895C877.533 30.3011 877.903 30.0923 878.32 29.9631C878.738 29.8305 879.177 29.7642 879.638 29.7642C879.943 29.7642 880.266 29.8007 880.607 29.8736C880.952 29.9432 881.274 30.0724 881.572 30.2614C881.873 30.4503 882.12 30.7204 882.313 31.0717C882.505 31.4197 882.601 31.8722 882.601 32.429V37.5H881.149V36.456H881.09C880.994 36.6482 880.849 36.8371 880.657 37.0227C880.465 37.2083 880.218 37.3625 879.916 37.4851C879.615 37.6077 879.253 37.669 878.833 37.669ZM879.156 36.4759C879.567 36.4759 879.918 36.3946 880.21 36.2322C880.505 36.0698 880.728 35.8577 880.881 35.5959C881.037 35.3307 881.114 35.0473 881.114 34.7457V33.7614C881.061 33.8144 880.959 33.8641 880.806 33.9105C880.657 33.9536 880.486 33.9917 880.294 34.0249C880.102 34.0547 879.915 34.0829 879.732 34.1094C879.55 34.1326 879.398 34.1525 879.275 34.169C878.987 34.2055 878.723 34.2668 878.485 34.353C878.249 34.4392 878.06 34.5634 877.918 34.7259C877.779 34.8849 877.709 35.0971 877.709 35.3622C877.709 35.7301 877.845 36.0085 878.117 36.1974C878.388 36.383 878.735 36.4759 879.156 36.4759ZM888.846 29.8636V31.0568H884.674V29.8636H888.846ZM885.793 28.0341H887.28V35.2578C887.28 35.5462 887.323 35.7633 887.409 35.9091C887.495 36.0516 887.606 36.1494 887.742 36.2024C887.881 36.2521 888.032 36.277 888.194 36.277C888.314 36.277 888.418 36.2687 888.507 36.2521C888.597 36.2356 888.667 36.2223 888.716 36.2124L888.985 37.4403C888.899 37.4735 888.776 37.5066 888.617 37.5398C888.458 37.5762 888.259 37.5961 888.02 37.5994C887.629 37.6061 887.265 37.5365 886.927 37.3906C886.588 37.2448 886.315 37.0194 886.106 36.7145C885.897 36.4096 885.793 36.0268 885.793 35.5661V28.0341ZM891.19 37.5V29.8636H892.676V37.5H891.19ZM891.941 28.6854C891.682 28.6854 891.46 28.5992 891.274 28.4268C891.092 28.2512 891.001 28.0424 891.001 27.8004C891.001 27.5552 891.092 27.3464 891.274 27.174C891.46 26.9983 891.682 26.9105 891.941 26.9105C892.199 26.9105 892.42 26.9983 892.602 27.174C892.787 27.3464 892.88 27.5552 892.88 27.8004C892.88 28.0424 892.787 28.2512 892.602 28.4268C892.42 28.5992 892.199 28.6854 891.941 28.6854ZM898.593 37.6541C897.877 37.6541 897.252 37.4901 896.719 37.1619C896.185 36.8338 895.771 36.3748 895.476 35.7848C895.181 35.1948 895.033 34.5054 895.033 33.7166C895.033 32.9245 895.181 32.2318 895.476 31.6385C895.771 31.0452 896.185 30.5845 896.719 30.2564C897.252 29.9283 897.877 29.7642 898.593 29.7642C899.309 29.7642 899.934 29.9283 900.467 30.2564C901.001 30.5845 901.415 31.0452 901.71 31.6385C902.005 32.2318 902.153 32.9245 902.153 33.7166C902.153 34.5054 902.005 35.1948 901.71 35.7848C901.415 36.3748 901.001 36.8338 900.467 37.1619C899.934 37.4901 899.309 37.6541 898.593 37.6541ZM898.598 36.4062C899.062 36.4062 899.446 36.2836 899.751 36.0384C900.056 35.7931 900.282 35.4666 900.427 35.0589C900.577 34.6513 900.651 34.2022 900.651 33.7116C900.651 33.2244 900.577 32.777 900.427 32.3693C900.282 31.9583 900.056 31.6286 899.751 31.38C899.446 31.1314 899.062 31.0071 898.598 31.0071C898.131 31.0071 897.743 31.1314 897.434 31.38C897.13 31.6286 896.903 31.9583 896.753 32.3693C896.608 32.777 896.535 33.2244 896.535 33.7116C896.535 34.2022 896.608 34.6513 896.753 35.0589C896.903 35.4666 897.13 35.7931 897.434 36.0384C897.743 36.2836 898.131 36.4062 898.598 36.4062ZM905.998 32.9659V37.5H904.512V29.8636H905.939V31.1065H906.033C906.209 30.7022 906.484 30.3774 906.858 30.1321C907.236 29.8868 907.712 29.7642 908.285 29.7642C908.806 29.7642 909.261 29.8736 909.652 30.0923C910.044 30.3078 910.347 30.6293 910.562 31.0568C910.778 31.4844 910.885 32.013 910.885 32.6428V37.5H909.399V32.8217C909.399 32.2682 909.255 31.8357 908.966 31.5241C908.678 31.2093 908.282 31.0518 907.778 31.0518C907.433 31.0518 907.127 31.1264 906.858 31.2756C906.593 31.4247 906.383 31.6435 906.227 31.9318C906.075 32.2169 905.998 32.5616 905.998 32.9659Z" fill="white" fill-opacity="0.75"/>
<g clip-path="url(#clip1_890_417)">
<rect x="684" y="162" width="64" height="64" rx="12" fill="#252326" fill-opacity="0.25"/>
<g filter="url(#filter2_f_890_417)">
<circle cx="698" cy="214" r="14" fill="url(#paint4_radial_890_417)"/>
</g>
<path d="M710.75 189.5L713.75 191.75L710.75 194M715.25 194H718.25M709.25 202.25H722.75C723.347 202.25 723.919 202.013 724.341 201.591C724.763 201.169 725 200.597 725 200V188C725 187.403 724.763 186.831 724.341 186.409C723.919 185.987 723.347 185.75 722.75 185.75H709.25C708.653 185.75 708.081 185.987 707.659 186.409C707.237 186.831 707 187.403 707 188V200C707 200.597 707.237 201.169 707.659 201.591C708.081 202.013 708.653 202.25 709.25 202.25Z" stroke="url(#paint5_linear_890_417)" stroke-width="1.5" stroke-linecap="round" stroke-linejoin="round"/>
</g>
<rect x="684.5" y="162.5" width="63" height="63" rx="11.5" stroke="#27282C"/>
<path d="M775.055 199.5H773.425L777.089 189.318H778.864L782.528 199.5H780.897L778.019 191.168H777.939L775.055 199.5ZM775.329 195.513H780.619V196.805H775.329V195.513ZM784.698 199.5V189.318H788.327C789.12 189.318 789.776 189.462 790.296 189.751C790.816 190.039 791.206 190.433 791.464 190.934C791.723 191.431 791.852 191.991 791.852 192.614C791.852 193.241 791.721 193.804 791.459 194.305C791.201 194.802 790.81 195.196 790.286 195.488C789.766 195.776 789.111 195.92 788.322 195.92H785.827V194.618H788.183C788.684 194.618 789.09 194.532 789.401 194.359C789.713 194.184 789.941 193.945 790.087 193.643C790.233 193.342 790.306 192.999 790.306 192.614C790.306 192.23 790.233 191.888 790.087 191.59C789.941 191.292 789.711 191.058 789.396 190.889C789.085 190.72 788.674 190.636 788.163 190.636H786.234V199.5H784.698ZM795.889 189.318V199.5H794.353V189.318H795.889ZM808.785 191.993C808.732 191.522 808.513 191.158 808.129 190.899C807.744 190.637 807.26 190.506 806.677 190.506C806.259 190.506 805.898 190.573 805.593 190.705C805.288 190.835 805.051 191.013 804.882 191.242C804.717 191.468 804.634 191.724 804.634 192.013C804.634 192.255 804.69 192.464 804.803 192.639C804.919 192.815 805.07 192.962 805.255 193.082C805.444 193.198 805.646 193.295 805.862 193.375C806.077 193.451 806.284 193.514 806.483 193.564L807.477 193.822C807.802 193.902 808.135 194.01 808.477 194.146C808.818 194.281 809.135 194.46 809.426 194.683C809.718 194.905 809.953 195.18 810.132 195.508C810.315 195.836 810.406 196.229 810.406 196.686C810.406 197.263 810.257 197.775 809.958 198.222C809.663 198.67 809.234 199.023 808.671 199.281C808.11 199.54 807.433 199.669 806.637 199.669C805.875 199.669 805.215 199.548 804.659 199.306C804.102 199.064 803.666 198.721 803.351 198.277C803.036 197.83 802.862 197.299 802.829 196.686H804.37C804.4 197.054 804.519 197.361 804.728 197.606C804.94 197.848 805.21 198.028 805.539 198.148C805.87 198.264 806.233 198.322 806.627 198.322C807.061 198.322 807.448 198.254 807.786 198.118C808.127 197.979 808.396 197.786 808.591 197.541C808.787 197.293 808.884 197.003 808.884 196.671C808.884 196.37 808.798 196.123 808.626 195.93C808.457 195.738 808.226 195.579 807.935 195.453C807.646 195.327 807.32 195.216 806.955 195.12L805.752 194.792C804.937 194.57 804.291 194.243 803.813 193.812C803.339 193.382 803.102 192.812 803.102 192.102C803.102 191.516 803.262 191.004 803.58 190.566C803.898 190.129 804.329 189.789 804.872 189.547C805.416 189.302 806.029 189.179 806.712 189.179C807.401 189.179 808.009 189.3 808.536 189.542C809.067 189.784 809.484 190.117 809.789 190.541C810.094 190.962 810.253 191.446 810.266 191.993H808.785ZM816.238 199.5H812.941V189.318H816.342C817.34 189.318 818.196 189.522 818.912 189.93C819.628 190.334 820.177 190.916 820.558 191.675C820.942 192.43 821.135 193.337 821.135 194.394C821.135 195.455 820.941 196.366 820.553 197.129C820.168 197.891 819.612 198.478 818.883 198.888C818.153 199.296 817.272 199.5 816.238 199.5ZM814.478 198.158H816.153C816.929 198.158 817.573 198.012 818.087 197.72C818.601 197.425 818.985 196.999 819.24 196.442C819.496 195.882 819.623 195.2 819.623 194.394C819.623 193.595 819.496 192.918 819.24 192.361C818.989 191.804 818.612 191.381 818.112 191.093C817.611 190.805 816.99 190.661 816.248 190.661H814.478V198.158ZM823.745 199.5V189.318H825.281V194.18H825.405L829.676 189.318H831.61L827.503 193.902L831.625 199.5H829.776L826.484 194.951L825.281 196.333V199.5H823.745Z" fill="white" fill-opacity="0.75"/>
<path d="M535 113C644.5 113 612.927 32 683 32" stroke="url(#paint6_linear_890_417)"/>
<path d="M535 113C649.5 113 612.927 194 683 194" stroke="url(#paint7_linear_890_417)"/>
<rect x="370.5" y="97.5" width="164" height="32" rx="16" fill="white" fill-opacity="0.04"/>
<path d="M395.531 119V108.818H399.26C399.982 108.818 400.58 108.937 401.054 109.176C401.528 109.411 401.883 109.731 402.118 110.136C402.354 110.537 402.471 110.989 402.471 111.493C402.471 111.917 402.393 112.275 402.238 112.567C402.082 112.855 401.873 113.087 401.611 113.263C401.353 113.435 401.068 113.561 400.756 113.641V113.74C401.094 113.757 401.424 113.866 401.745 114.068C402.07 114.267 402.339 114.55 402.551 114.918C402.763 115.286 402.869 115.734 402.869 116.261C402.869 116.781 402.746 117.248 402.501 117.663C402.259 118.074 401.885 118.4 401.378 118.642C400.87 118.881 400.222 119 399.434 119H395.531ZM397.067 117.683H399.284C400.02 117.683 400.547 117.54 400.865 117.255C401.184 116.97 401.343 116.614 401.343 116.186C401.343 115.865 401.261 115.57 401.099 115.301C400.937 115.033 400.705 114.819 400.403 114.66C400.105 114.501 399.75 114.421 399.339 114.421H397.067V117.683ZM397.067 113.223H399.125C399.47 113.223 399.78 113.157 400.055 113.024C400.333 112.892 400.554 112.706 400.716 112.467C400.882 112.225 400.965 111.94 400.965 111.612C400.965 111.191 400.817 110.838 400.522 110.553C400.227 110.268 399.775 110.126 399.165 110.126H397.067V113.223ZM405.391 119V108.818H409.02C409.809 108.818 410.464 108.954 410.984 109.226C411.508 109.498 411.899 109.874 412.157 110.354C412.416 110.832 412.545 111.384 412.545 112.01C412.545 112.633 412.414 113.182 412.152 113.656C411.894 114.126 411.503 114.492 410.979 114.754C410.459 115.016 409.804 115.147 409.015 115.147H406.266V113.825H408.876C409.373 113.825 409.778 113.753 410.089 113.611C410.404 113.468 410.634 113.261 410.78 112.989C410.926 112.718 410.999 112.391 410.999 112.01C410.999 111.625 410.924 111.292 410.775 111.011C410.629 110.729 410.399 110.513 410.084 110.364C409.773 110.212 409.363 110.136 408.856 110.136H406.927V119H405.391ZM410.417 114.406L412.933 119H411.183L408.717 114.406H410.417ZM416.651 108.818V119H415.115V108.818H416.651ZM422.884 119H419.588V108.818H422.989C423.986 108.818 424.843 109.022 425.559 109.43C426.275 109.834 426.823 110.416 427.204 111.175C427.589 111.93 427.781 112.837 427.781 113.894C427.781 114.955 427.587 115.866 427.199 116.629C426.815 117.391 426.258 117.978 425.529 118.388C424.8 118.796 423.918 119 422.884 119ZM421.124 117.658H422.8C423.575 117.658 424.22 117.512 424.734 117.22C425.247 116.925 425.632 116.499 425.887 115.942C426.142 115.382 426.27 114.7 426.27 113.894C426.27 113.095 426.142 112.418 425.887 111.861C425.635 111.304 425.259 110.881 424.758 110.593C424.258 110.305 423.636 110.161 422.894 110.161H421.124V117.658ZM437.282 112.035C437.186 111.733 437.057 111.463 436.894 111.224C436.735 110.982 436.545 110.777 436.323 110.608C436.101 110.436 435.847 110.305 435.562 110.215C435.28 110.126 434.97 110.081 434.632 110.081C434.059 110.081 433.542 110.228 433.081 110.523C432.62 110.818 432.256 111.251 431.987 111.821C431.722 112.388 431.59 113.082 431.59 113.904C431.59 114.729 431.724 115.427 431.992 115.997C432.261 116.567 432.629 117 433.096 117.295C433.563 117.59 434.095 117.737 434.692 117.737C435.245 117.737 435.728 117.625 436.139 117.399C436.553 117.174 436.873 116.856 437.098 116.445C437.327 116.03 437.441 115.543 437.441 114.983L437.839 115.058H434.926V113.79H438.928V114.948C438.928 115.803 438.745 116.546 438.381 117.175C438.02 117.802 437.519 118.286 436.879 118.627C436.243 118.969 435.514 119.139 434.692 119.139C433.77 119.139 432.962 118.927 432.266 118.503C431.573 118.079 431.033 117.477 430.645 116.698C430.257 115.916 430.063 114.988 430.063 113.914C430.063 113.102 430.176 112.373 430.401 111.727C430.627 111.08 430.943 110.532 431.351 110.081C431.762 109.627 432.244 109.281 432.798 109.042C433.355 108.8 433.963 108.679 434.622 108.679C435.172 108.679 435.685 108.76 436.159 108.923C436.636 109.085 437.06 109.315 437.431 109.614C437.806 109.912 438.116 110.267 438.361 110.678C438.606 111.085 438.772 111.538 438.858 112.035H437.282ZM441.578 119V108.818H447.961V110.141H443.114V113.243H447.628V114.56H443.114V117.678H448.021V119H441.578ZM460.672 111.493C460.619 111.022 460.4 110.658 460.015 110.399C459.631 110.137 459.147 110.006 458.564 110.006C458.146 110.006 457.785 110.073 457.48 110.205C457.175 110.335 456.938 110.513 456.769 110.742C456.603 110.968 456.52 111.224 456.52 111.513C456.52 111.755 456.577 111.964 456.689 112.139C456.805 112.315 456.956 112.462 457.142 112.582C457.331 112.698 457.533 112.795 457.748 112.875C457.964 112.951 458.171 113.014 458.37 113.064L459.364 113.322C459.689 113.402 460.022 113.51 460.363 113.646C460.705 113.781 461.021 113.96 461.313 114.183C461.605 114.405 461.84 114.68 462.019 115.008C462.201 115.336 462.292 115.729 462.292 116.186C462.292 116.763 462.143 117.275 461.845 117.722C461.55 118.17 461.121 118.523 460.557 118.781C459.997 119.04 459.319 119.169 458.524 119.169C457.762 119.169 457.102 119.048 456.545 118.806C455.988 118.564 455.553 118.221 455.238 117.777C454.923 117.33 454.749 116.799 454.716 116.186H456.257C456.287 116.554 456.406 116.861 456.615 117.106C456.827 117.348 457.097 117.528 457.425 117.648C457.757 117.764 458.12 117.822 458.514 117.822C458.948 117.822 459.334 117.754 459.672 117.618C460.014 117.479 460.282 117.286 460.478 117.041C460.673 116.793 460.771 116.503 460.771 116.171C460.771 115.87 460.685 115.623 460.513 115.43C460.344 115.238 460.113 115.079 459.822 114.953C459.533 114.827 459.207 114.716 458.842 114.62L457.639 114.292C456.824 114.07 456.177 113.743 455.7 113.312C455.226 112.882 454.989 112.312 454.989 111.602C454.989 111.016 455.148 110.504 455.466 110.066C455.785 109.629 456.215 109.289 456.759 109.047C457.303 108.802 457.916 108.679 458.599 108.679C459.288 108.679 459.896 108.8 460.423 109.042C460.953 109.284 461.371 109.617 461.676 110.041C461.981 110.462 462.14 110.946 462.153 111.493H460.672ZM464.326 110.141V108.818H472.206V110.141H469.029V119H467.498V110.141H464.326ZM481.195 108.818H482.736V115.515C482.736 116.228 482.569 116.859 482.234 117.409C481.899 117.956 481.429 118.387 480.822 118.702C480.216 119.013 479.505 119.169 478.689 119.169C477.877 119.169 477.168 119.013 476.561 118.702C475.955 118.387 475.484 117.956 475.149 117.409C474.815 116.859 474.647 116.228 474.647 115.515V108.818H476.184V115.391C476.184 115.851 476.285 116.261 476.487 116.619C476.692 116.977 476.982 117.258 477.357 117.464C477.731 117.666 478.175 117.767 478.689 117.767C479.206 117.767 479.652 117.666 480.027 117.464C480.404 117.258 480.693 116.977 480.892 116.619C481.094 116.261 481.195 115.851 481.195 115.391V108.818ZM488.966 119H485.67V108.818H489.07C490.068 108.818 490.925 109.022 491.64 109.43C492.356 109.834 492.905 110.416 493.286 111.175C493.671 111.93 493.863 112.837 493.863 113.894C493.863 114.955 493.669 115.866 493.281 116.629C492.897 117.391 492.34 117.978 491.611 118.388C490.881 118.796 490 119 488.966 119ZM487.206 117.658H488.881C489.657 117.658 490.301 117.512 490.815 117.22C491.329 116.925 491.713 116.499 491.969 115.942C492.224 115.382 492.351 114.7 492.351 113.894C492.351 113.095 492.224 112.418 491.969 111.861C491.717 111.304 491.341 110.881 490.84 110.593C490.34 110.305 489.718 110.161 488.976 110.161H487.206V117.658ZM498.009 108.818V119H496.473V108.818H498.009ZM509.791 113.909C509.791 114.996 509.592 115.931 509.194 116.713C508.797 117.492 508.251 118.092 507.559 118.513C506.869 118.93 506.086 119.139 505.207 119.139C504.326 119.139 503.538 118.93 502.846 118.513C502.156 118.092 501.613 117.49 501.215 116.708C500.817 115.926 500.618 114.993 500.618 113.909C500.618 112.822 500.817 111.889 501.215 111.11C501.613 110.328 502.156 109.728 502.846 109.31C503.538 108.889 504.326 108.679 505.207 108.679C506.086 108.679 506.869 108.889 507.559 109.31C508.251 109.728 508.797 110.328 509.194 111.11C509.592 111.889 509.791 112.822 509.791 113.909ZM508.27 113.909C508.27 113.08 508.135 112.383 507.867 111.816C507.602 111.246 507.237 110.815 506.773 110.523C506.313 110.228 505.791 110.081 505.207 110.081C504.621 110.081 504.097 110.228 503.636 110.523C503.175 110.815 502.811 111.246 502.542 111.816C502.277 112.383 502.145 113.08 502.145 113.909C502.145 114.738 502.277 115.437 502.542 116.007C502.811 116.574 503.175 117.005 503.636 117.3C504.097 117.591 504.621 117.737 505.207 117.737C505.791 117.737 506.313 117.591 506.773 117.3C507.237 117.005 507.602 116.574 507.867 116.007C508.135 115.437 508.27 114.738 508.27 113.909Z" fill="white"/>
<rect x="370.5" y="97.5" width="164" height="32" rx="16" stroke="url(#paint8_linear_890_417)"/>
<defs>
<filter id="filter0_b_890_417" x="36" y="-16" width="256" height="256" filterUnits="userSpaceOnUse" color-interpolation-filters="sRGB">
<feFlood flood-opacity="0" result="BackgroundImageFix"/>
<feGaussianBlur in="BackgroundImageFix" stdDeviation="50"/>
<feComposite in2="SourceAlpha" operator="in" result="effect1_backgroundBlur_890_417"/>
<feBlend mode="normal" in="SourceGraphic" in2="effect1_backgroundBlur_890_417" result="shape"/>
</filter>
<filter id="filter1_f_890_417" x="643" y="-3" width="110" height="110" filterUnits="userSpaceOnUse" color-interpolation-filters="sRGB">
<feFlood flood-opacity="0" result="BackgroundImageFix"/>
<feBlend mode="normal" in="SourceGraphic" in2="BackgroundImageFix" result="shape"/>
<feGaussianBlur stdDeviation="20.5" result="effect1_foregroundBlur_890_417"/>
</filter>
<filter id="filter2_f_890_417" x="643" y="159" width="110" height="110" filterUnits="userSpaceOnUse" color-interpolation-filters="sRGB">
<feFlood flood-opacity="0" result="BackgroundImageFix"/>
<feBlend mode="normal" in="SourceGraphic" in2="BackgroundImageFix" result="shape"/>
<feGaussianBlur stdDeviation="20.5" result="effect1_foregroundBlur_890_417"/>
</filter>
<linearGradient id="paint0_linear_890_417" x1="169.131" y1="103.544" x2="157.845" y2="114.864" gradientUnits="userSpaceOnUse">
<stop stop-color="#59F7C8"/>
<stop offset="1" stop-color="#7D90D7"/>
</linearGradient>
<linearGradient id="paint1_linear_890_417" x1="366" y1="112" x2="208" y2="112" gradientUnits="userSpaceOnUse">
<stop stop-color="white" stop-opacity="0.1"/>
<stop offset="0.0885417" stop-color="white" stop-opacity="0.15"/>
<stop offset="0.296875" stop-color="white" stop-opacity="0.4"/>
<stop offset="0.453125" stop-color="white" stop-opacity="0.2"/>
<stop offset="0.619792" stop-color="white" stop-opacity="0.1"/>
<stop offset="0.880208" stop-color="white" stop-opacity="0.5"/>
<stop offset="1" stop-color="white" stop-opacity="0.1"/>
</linearGradient>
<radialGradient id="paint2_radial_890_417" cx="0" cy="0" r="1" gradientUnits="userSpaceOnUse" gradientTransform="translate(698 52) rotate(90) scale(14)">
<stop stop-color="white"/>
<stop offset="1" stop-color="white" stop-opacity="0"/>
</radialGradient>
<linearGradient id="paint3_linear_890_417" x1="721.131" y1="24.2501" x2="710.799" y2="35.5268" gradientUnits="userSpaceOnUse">
<stop stop-color="#59F7C8"/>
<stop offset="1" stop-color="#7D90D7"/>
</linearGradient>
<radialGradient id="paint4_radial_890_417" cx="0" cy="0" r="1" gradientUnits="userSpaceOnUse" gradientTransform="translate(698 214) rotate(90) scale(14)">
<stop stop-color="white"/>
<stop offset="1" stop-color="white" stop-opacity="0"/>
</radialGradient>
<linearGradient id="paint5_linear_890_417" x1="721.131" y1="186.249" x2="710.827" y2="197.523" gradientUnits="userSpaceOnUse">
<stop stop-color="#59F7C8"/>
<stop offset="1" stop-color="#7D90D7"/>
</linearGradient>
<linearGradient id="paint6_linear_890_417" x1="683" y1="31" x2="525.116" y2="82.977" gradientUnits="userSpaceOnUse">
<stop offset="0.0001" stop-color="white" stop-opacity="0.5"/>
<stop offset="0.296875" stop-color="white" stop-opacity="0.1"/>
<stop offset="0.4375" stop-color="white" stop-opacity="0.4"/>
<stop offset="0.713542" stop-color="white" stop-opacity="0.1"/>
<stop offset="1" stop-color="white" stop-opacity="0.1"/>
</linearGradient>
<linearGradient id="paint7_linear_890_417" x1="683" y1="195" x2="525.116" y2="143.023" gradientUnits="userSpaceOnUse">
<stop stop-color="white" stop-opacity="0.19"/>
<stop offset="0.510417" stop-color="white" stop-opacity="0.5"/>
<stop offset="0.645833" stop-color="white" stop-opacity="0.126727"/>
<stop offset="0.859375" stop-color="white" stop-opacity="0.1"/>
<stop offset="1" stop-color="white" stop-opacity="0.5"/>
</linearGradient>
<linearGradient id="paint8_linear_890_417" x1="499.531" y1="97.9977" x2="491.596" y2="137.795" gradientUnits="userSpaceOnUse">
<stop stop-color="#59F7C8"/>
<stop offset="1" stop-color="#7D90D7"/>
</linearGradient>
<clipPath id="clip0_890_417">
<rect x="684" width="64" height="64" rx="12" fill="white"/>
</clipPath>
<clipPath id="clip1_890_417">
<rect x="684" y="162" width="64" height="64" rx="12" fill="white"/>
</clipPath>
</defs>
</svg>
