<svg width="690" height="278" viewBox="0 0 690 278" fill="none" xmlns="http://www.w3.org/2000/svg">
<g clip-path="url(#clip0_877_39)">
<path opacity="0.25" d="M340.498 1.34998C566.935 1.34998 750.498 184.913 750.498 411.35C750.498 637.787 566.935 821.35 340.498 821.35C114.061 821.35 -69.502 637.787 -69.502 411.35C-69.502 184.913 114.061 1.34998 340.498 1.34998Z" stroke="#3F3F46"/>
<path opacity="0.1" d="M362.8 -154C652.639 -154 887.6 80.9609 887.6 370.8C887.6 660.639 652.639 895.6 362.8 895.6C72.961 895.6 -162 660.639 -162 370.8C-162 80.9609 72.961 -154 362.8 -154Z" stroke="#3F3F46"/>
<path opacity="0.6" d="M341.129 259.299C424.829 259.299 492.682 327.151 492.682 410.852C492.682 494.552 424.829 562.405 341.129 562.405C257.429 562.405 189.576 494.552 189.576 410.852C189.576 327.151 257.429 259.299 341.129 259.299Z" stroke="#52525B"/>
<path opacity="0.5" d="M341.128 175.825C471.482 175.825 577.154 281.497 577.154 411.851C577.154 542.204 471.482 647.877 341.128 647.877C210.774 647.877 105.102 542.204 105.102 411.851C105.102 281.497 210.774 175.825 341.128 175.825Z" stroke="#3F3F46"/>
<path opacity="0.3" d="M341.127 91.35C518.134 91.35 661.627 234.843 661.627 411.85C661.627 588.857 518.134 732.35 341.127 732.35C164.12 732.35 20.627 588.857 20.627 411.85C20.627 234.843 164.12 91.35 341.127 91.35Z" stroke="#3F3F46"/>
<rect x="305" y="140" width="71" height="71" rx="12" fill="#0F0F0F"/>
<path fill-rule="evenodd" clip-rule="evenodd" d="M335.5 170C335.5 168.807 335.974 167.662 336.818 166.818C337.662 165.974 338.807 165.5 340 165.5C341.193 165.5 342.338 165.974 343.182 166.818C344.026 167.662 344.5 168.807 344.5 170C344.5 171.193 344.026 172.338 343.182 173.182C342.338 174.026 341.193 174.5 340 174.5C338.807 174.5 337.662 174.026 336.818 173.182C335.974 172.338 335.5 171.193 335.5 170ZM331.751 184.105C331.785 181.939 332.669 179.874 334.212 178.355C335.755 176.835 337.834 175.983 340 175.983C342.166 175.983 344.245 176.835 345.788 178.355C347.331 179.874 348.215 181.939 348.249 184.105C348.252 184.251 348.212 184.394 348.134 184.518C348.056 184.641 347.945 184.739 347.812 184.8C345.361 185.924 342.696 186.504 340 186.5C337.214 186.5 334.567 185.892 332.188 184.8C332.055 184.739 331.944 184.641 331.866 184.518C331.788 184.394 331.748 184.251 331.751 184.105Z" fill="white"/>
<rect x="305.5" y="140.5" width="70" height="70" rx="11.5" stroke="white" stroke-opacity="0.1"/>
<rect x="166" y="206" width="47" height="47" rx="12" fill="#0F0F0F"/>
<path d="M190 228C190.796 228 191.559 227.684 192.121 227.121C192.684 226.559 193 225.796 193 225C193 224.204 192.684 223.441 192.121 222.879C191.559 222.316 190.796 222 190 222C189.204 222 188.441 222.316 187.879 222.879C187.316 223.441 187 224.204 187 225C187 225.796 187.316 226.559 187.879 227.121C188.441 227.684 189.204 228 190 228ZM183.465 234.493C183.372 234.741 183.362 235.013 183.436 235.267C183.51 235.521 183.664 235.745 183.875 235.905C185.626 237.266 187.782 238.003 190 238C192.31 238 194.438 237.216 196.131 235.9C196.561 235.567 196.735 234.997 196.539 234.49C196.031 233.168 195.135 232.031 193.967 231.229C192.8 230.427 191.417 229.998 190.001 229.999C188.585 229.999 187.202 230.429 186.035 231.231C184.868 232.033 183.972 233.171 183.465 234.493Z" fill="white" fill-opacity="0.75"/>
<rect x="166.5" y="206.5" width="46" height="46" rx="11.5" stroke="white" stroke-opacity="0.1"/>
<rect x="469" y="206" width="47" height="47" rx="12" fill="#0F0F0F"/>
<path d="M493 228C493.796 228 494.559 227.684 495.121 227.121C495.684 226.559 496 225.796 496 225C496 224.204 495.684 223.441 495.121 222.879C494.559 222.316 493.796 222 493 222C492.204 222 491.441 222.316 490.879 222.879C490.316 223.441 490 224.204 490 225C490 225.796 490.316 226.559 490.879 227.121C491.441 227.684 492.204 228 493 228ZM486.465 234.493C486.372 234.741 486.362 235.013 486.436 235.267C486.51 235.521 486.664 235.745 486.875 235.905C488.626 237.266 490.782 238.003 493 238C495.31 238 497.438 237.216 499.131 235.9C499.561 235.567 499.735 234.997 499.539 234.49C499.031 233.168 498.135 232.031 496.967 231.229C495.8 230.427 494.417 229.998 493.001 229.999C491.585 229.999 490.202 230.429 489.035 231.231C487.868 232.033 486.972 233.171 486.465 234.493Z" fill="white" fill-opacity="0.75"/>
<rect x="469.5" y="206.5" width="46" height="46" rx="11.5" stroke="white" stroke-opacity="0.1"/>
</g>
<defs>
<clipPath id="clip0_877_39">
<rect width="690" height="278" fill="white"/>
</clipPath>
</defs>
</svg>
