<svg width="1440" height="430" viewBox="0 0 1440 430" fill="none" xmlns="http://www.w3.org/2000/svg">
<g clip-path="url(#clip0_732_483)">
<g filter="url(#filter0_f_732_483)">
<ellipse cx="720" cy="413.5" rx="720" ry="169.5" fill="url(#paint0_radial_732_483)" fill-opacity="0.2"/>
</g>
<g opacity="0.7">
<path opacity="0.11" d="M401.487 323.314C402.196 323.432 402.92 322.924 403.102 322.179C403.284 321.434 402.856 320.735 402.146 320.617C401.437 320.499 400.714 321.007 400.531 321.752C400.349 322.497 400.777 323.197 401.487 323.314Z" fill="white" fill-opacity="0.25"/>
<path d="M404.037 331.432C404.569 331.52 405.112 331.139 405.248 330.58C405.385 330.022 405.064 329.497 404.532 329.409C404 329.321 403.458 329.702 403.321 330.26C403.184 330.819 403.505 331.343 404.037 331.432Z" fill="white" fill-opacity="0.25"/>
<path d="M428.205 320.745C428.737 320.834 429.28 320.452 429.416 319.894C429.553 319.335 429.232 318.811 428.7 318.722C428.168 318.634 427.626 319.015 427.489 319.574C427.352 320.132 427.673 320.657 428.205 320.745Z" fill="white" fill-opacity="0.25"/>
<path d="M374.164 310.388C374.696 310.476 375.239 310.095 375.375 309.536C375.512 308.978 375.191 308.453 374.659 308.365C374.127 308.277 373.585 308.658 373.448 309.216C373.311 309.775 373.632 310.299 374.164 310.388Z" fill="white" fill-opacity="0.25"/>
<path opacity="0.11" d="M339.002 321.356C339.712 321.474 340.435 320.966 340.617 320.221C340.8 319.476 340.372 318.777 339.662 318.659C338.952 318.541 338.229 319.049 338.047 319.794C337.865 320.539 338.293 321.239 339.002 321.356Z" fill="white" fill-opacity="0.25"/>
<path d="M330.097 304.484C330.451 304.543 330.812 304.289 330.903 303.917C330.994 303.545 330.781 303.196 330.427 303.137C330.072 303.078 329.711 303.332 329.62 303.704C329.529 304.076 329.743 304.425 330.097 304.484Z" fill="white" fill-opacity="0.25"/>
<path d="M393.877 349.339C394.232 349.398 394.593 349.144 394.684 348.772C394.775 348.4 394.561 348.051 394.207 347.992C393.853 347.933 393.492 348.187 393.401 348.559C393.31 348.931 393.523 349.28 393.877 349.339Z" fill="white" fill-opacity="0.25"/>
<path d="M533.228 372.433C533.582 372.492 533.943 372.238 534.034 371.866C534.125 371.494 533.912 371.145 533.557 371.086C533.203 371.027 532.842 371.281 532.751 371.653C532.66 372.025 532.874 372.374 533.228 372.433Z" fill="white" fill-opacity="0.25"/>
<path d="M610.796 347.494C611.151 347.553 611.512 347.299 611.603 346.928C611.693 346.556 611.48 346.206 611.126 346.148C610.772 346.089 610.411 346.343 610.32 346.715C610.229 347.086 610.442 347.436 610.796 347.494Z" fill="white" fill-opacity="0.25"/>
<path d="M625.054 400.943C625.408 401.002 625.769 400.748 625.86 400.376C625.951 400.004 625.738 399.655 625.384 399.596C625.029 399.537 624.668 399.791 624.577 400.163C624.487 400.535 624.7 400.884 625.054 400.943Z" fill="white" fill-opacity="0.25"/>
<path d="M184.679 297.181C185.033 297.24 185.394 296.986 185.485 296.614C185.576 296.242 185.363 295.893 185.009 295.834C184.654 295.775 184.293 296.029 184.202 296.401C184.112 296.773 184.325 297.122 184.679 297.181Z" fill="white" fill-opacity="0.25"/>
<path opacity="0.11" d="M182.994 259.118C183.348 259.176 183.709 258.922 183.8 258.551C183.891 258.179 183.677 257.829 183.323 257.771C182.969 257.712 182.608 257.966 182.517 258.338C182.426 258.709 182.639 259.059 182.994 259.118Z" fill="white" fill-opacity="0.25"/>
<path opacity="0.11" d="M152.146 270.102C152.5 270.161 152.861 269.907 152.952 269.535C153.043 269.163 152.83 268.814 152.475 268.755C152.121 268.696 151.76 268.95 151.669 269.322C151.578 269.694 151.792 270.043 152.146 270.102Z" fill="white" fill-opacity="0.25"/>
<path opacity="0.11" d="M164.463 314.128C164.818 314.187 165.179 313.933 165.27 313.561C165.361 313.189 165.147 312.84 164.793 312.781C164.439 312.722 164.078 312.976 163.987 313.348C163.896 313.72 164.109 314.069 164.463 314.128Z" fill="white" fill-opacity="0.25"/>
<path opacity="0.11" d="M322.438 312.31C322.792 312.369 323.153 312.115 323.244 311.743C323.335 311.371 323.122 311.022 322.767 310.963C322.413 310.904 322.052 311.158 321.961 311.53C321.87 311.902 322.084 312.251 322.438 312.31Z" fill="white" fill-opacity="0.25"/>
<path opacity="0.11" d="M387.34 373.453C387.695 373.511 388.056 373.257 388.146 372.885C388.237 372.514 388.024 372.164 387.67 372.106C387.315 372.047 386.955 372.301 386.864 372.672C386.773 373.044 386.986 373.394 387.34 373.453Z" fill="white" fill-opacity="0.25"/>
<path opacity="0.11" d="M511.526 387.029C511.88 387.088 512.241 386.834 512.332 386.462C512.423 386.09 512.21 385.741 511.855 385.682C511.501 385.623 511.14 385.877 511.049 386.249C510.958 386.621 511.172 386.97 511.526 387.029Z" fill="white" fill-opacity="0.25"/>
<path opacity="0.3" d="M217.743 285.168C218.097 285.227 218.458 284.973 218.549 284.601C218.64 284.229 218.426 283.88 218.072 283.821C217.718 283.763 217.357 284.016 217.266 284.388C217.175 284.76 217.388 285.11 217.743 285.168Z" fill="white" fill-opacity="0.25"/>
<path d="M372.654 273.046C373.008 273.105 373.369 272.851 373.46 272.479C373.551 272.107 373.337 271.758 372.983 271.699C372.629 271.64 372.268 271.894 372.177 272.266C372.086 272.638 372.3 272.987 372.654 273.046Z" fill="white" fill-opacity="0.25"/>
<path d="M471.384 288.009C471.739 288.068 472.099 287.814 472.19 287.442C472.281 287.07 472.068 286.721 471.714 286.662C471.359 286.603 470.999 286.857 470.908 287.229C470.817 287.601 471.03 287.95 471.384 288.009Z" fill="white" fill-opacity="0.25"/>
<path d="M315.734 327.995C316.088 328.054 316.449 327.8 316.54 327.428C316.631 327.057 316.418 326.707 316.063 326.649C315.709 326.59 315.348 326.843 315.257 327.215C315.166 327.587 315.38 327.937 315.734 327.995Z" fill="white" fill-opacity="0.25"/>
<path opacity="0.3" d="M270.989 320.582C271.343 320.641 271.704 320.387 271.795 320.015C271.886 319.643 271.672 319.294 271.318 319.235C270.964 319.177 270.603 319.43 270.512 319.802C270.421 320.174 270.635 320.523 270.989 320.582Z" fill="white" fill-opacity="0.25"/>
<path opacity="0.11" d="M227.649 270.017C228.003 270.076 228.364 269.822 228.455 269.45C228.546 269.078 228.333 268.729 227.978 268.67C227.624 268.611 227.263 268.865 227.172 269.237C227.081 269.609 227.295 269.958 227.649 270.017Z" fill="white" fill-opacity="0.25"/>
<path opacity="0.3" d="M380.656 291.171C381.01 291.23 381.371 290.976 381.462 290.604C381.553 290.232 381.339 289.883 380.985 289.824C380.631 289.765 380.27 290.019 380.179 290.391C380.088 290.763 380.302 291.112 380.656 291.171Z" fill="white" fill-opacity="0.25"/>
<path opacity="0.3" d="M323.824 342.633C324.178 342.692 324.539 342.438 324.63 342.066C324.721 341.694 324.507 341.345 324.153 341.286C323.799 341.227 323.438 341.481 323.347 341.853C323.256 342.225 323.469 342.574 323.824 342.633Z" fill="white" fill-opacity="0.25"/>
<path opacity="0.3" d="M245.017 336.571C245.371 336.629 245.732 336.376 245.823 336.004C245.914 335.632 245.701 335.283 245.347 335.224C244.992 335.165 244.631 335.419 244.54 335.791C244.449 336.163 244.663 336.512 245.017 336.571Z" fill="white" fill-opacity="0.25"/>
<path opacity="0.3" d="M236.28 288.244C236.634 288.302 236.995 288.049 237.086 287.677C237.177 287.305 236.963 286.955 236.609 286.897C236.255 286.838 235.894 287.092 235.803 287.464C235.712 287.836 235.926 288.185 236.28 288.244Z" fill="white" fill-opacity="0.25"/>
<path opacity="0.3" d="M634.3 352.091C634.655 352.15 635.015 351.896 635.106 351.524C635.197 351.152 634.984 350.803 634.63 350.744C634.275 350.685 633.915 350.939 633.824 351.311C633.733 351.683 633.946 352.032 634.3 352.091Z" fill="white" fill-opacity="0.25"/>
<path opacity="0.11" d="M537.383 307.34C537.738 307.399 538.098 307.145 538.189 306.773C538.28 306.401 538.067 306.052 537.713 305.993C537.358 305.934 536.998 306.188 536.907 306.56C536.816 306.932 537.029 307.281 537.383 307.34Z" fill="white" fill-opacity="0.25"/>
<path opacity="0.11" d="M610.754 378.276C611.109 378.335 611.47 378.081 611.561 377.709C611.652 377.337 611.438 376.988 611.084 376.929C610.73 376.87 610.369 377.124 610.278 377.496C610.187 377.868 610.4 378.217 610.754 378.276Z" fill="white" fill-opacity="0.25"/>
<path opacity="0.3" d="M447.699 357.562C448.408 357.679 449.131 357.171 449.314 356.426C449.496 355.681 449.068 354.982 448.358 354.864C447.649 354.746 446.926 355.254 446.743 355.999C446.561 356.744 446.989 357.444 447.699 357.562Z" fill="white" fill-opacity="0.25"/>
<path opacity="0.11" d="M489.801 343.547C490.511 343.665 491.234 343.156 491.416 342.411C491.598 341.666 491.171 340.967 490.461 340.849C489.751 340.731 489.028 341.24 488.846 341.985C488.664 342.73 489.091 343.429 489.801 343.547Z" fill="white" fill-opacity="0.25"/>
<path d="M494.61 319.852C495.143 319.94 495.685 319.559 495.821 319C495.958 318.442 495.637 317.917 495.105 317.829C494.573 317.741 494.031 318.122 493.894 318.68C493.758 319.239 494.078 319.763 494.61 319.852Z" fill="white" fill-opacity="0.25"/>
<path d="M435.152 383.476C435.685 383.564 436.227 383.183 436.363 382.624C436.5 382.066 436.179 381.541 435.647 381.453C435.115 381.365 434.573 381.746 434.436 382.304C434.3 382.863 434.62 383.387 435.152 383.476Z" fill="white" fill-opacity="0.25"/>
<path d="M644.441 432.148C644.973 432.236 645.515 431.855 645.651 431.296C645.788 430.738 645.467 430.213 644.935 430.125C644.403 430.036 643.861 430.418 643.724 430.976C643.588 431.535 643.908 432.059 644.441 432.148Z" fill="white" fill-opacity="0.25"/>
<path d="M232.081 351.924C232.613 352.012 233.155 351.631 233.292 351.073C233.429 350.514 233.108 349.99 232.576 349.901C232.044 349.813 231.502 350.194 231.365 350.753C231.228 351.311 231.549 351.836 232.081 351.924Z" fill="white" fill-opacity="0.25"/>
<path d="M150.436 322.303C150.968 322.391 151.51 322.01 151.647 321.451C151.783 320.893 151.463 320.368 150.93 320.28C150.398 320.192 149.856 320.573 149.719 321.131C149.583 321.69 149.904 322.215 150.436 322.303Z" fill="white" fill-opacity="0.25"/>
<path d="M145.418 293.481C145.95 293.569 146.492 293.188 146.629 292.629C146.766 292.071 146.445 291.546 145.913 291.458C145.381 291.369 144.838 291.751 144.702 292.309C144.565 292.868 144.886 293.392 145.418 293.481Z" fill="white" fill-opacity="0.25"/>
<path d="M461.005 328.281C461.537 328.37 462.079 327.989 462.216 327.43C462.353 326.871 462.032 326.347 461.5 326.259C460.968 326.17 460.425 326.551 460.289 327.11C460.152 327.669 460.473 328.193 461.005 328.281Z" fill="white" fill-opacity="0.25"/>
<path d="M338.96 359.838C339.492 359.926 340.034 359.545 340.171 358.987C340.308 358.428 339.987 357.904 339.455 357.815C338.923 357.727 338.38 358.108 338.244 358.667C338.107 359.225 338.428 359.75 338.96 359.838Z" fill="white" fill-opacity="0.25"/>
<path d="M493.751 415.577C494.283 415.666 494.825 415.284 494.962 414.726C495.099 414.167 494.778 413.643 494.246 413.555C493.714 413.466 493.171 413.847 493.035 414.406C492.898 414.964 493.219 415.489 493.751 415.577Z" fill="white" fill-opacity="0.25"/>
<path d="M673.083 397.705C673.615 397.794 674.157 397.412 674.294 396.854C674.431 396.295 674.11 395.771 673.578 395.682C673.046 395.594 672.504 395.975 672.367 396.534C672.23 397.092 672.551 397.617 673.083 397.705Z" fill="white" fill-opacity="0.25"/>
<path d="M696.47 363.095C697.002 363.183 697.544 362.802 697.681 362.243C697.817 361.685 697.497 361.16 696.965 361.072C696.432 360.984 695.89 361.365 695.754 361.923C695.617 362.482 695.938 363.007 696.47 363.095Z" fill="white" fill-opacity="0.25"/>
<path opacity="0.3" d="M547.193 329.267C547.903 329.384 548.626 328.876 548.808 328.131C548.99 327.386 548.562 326.687 547.853 326.569C547.143 326.451 546.42 326.959 546.237 327.704C546.055 328.449 546.483 329.149 547.193 329.267Z" fill="white" fill-opacity="0.25"/>
<path d="M557.571 281.303C558.28 281.421 559.003 280.912 559.186 280.167C559.368 279.422 558.94 278.723 558.23 278.605C557.521 278.487 556.798 278.996 556.615 279.74C556.433 280.485 556.861 281.185 557.571 281.303Z" fill="white" fill-opacity="0.25"/>
<path d="M576.902 349.584C577.435 349.673 577.977 349.291 578.113 348.733C578.25 348.174 577.929 347.65 577.397 347.561C576.865 347.473 576.323 347.854 576.186 348.413C576.05 348.971 576.37 349.496 576.902 349.584Z" fill="white" fill-opacity="0.25"/>
<path opacity="0.3" d="M613.599 328.373C614.309 328.491 615.032 327.983 615.214 327.238C615.396 326.493 614.969 325.793 614.259 325.675C613.549 325.557 612.826 326.066 612.644 326.811C612.462 327.556 612.889 328.255 613.599 328.373Z" fill="white" fill-opacity="0.25"/>
<path opacity="0.3" d="M666.497 386.821C667.207 386.939 667.93 386.431 668.112 385.686C668.295 384.941 667.867 384.241 667.157 384.124C666.447 384.006 665.724 384.514 665.542 385.259C665.36 386.004 665.788 386.703 666.497 386.821Z" fill="white" fill-opacity="0.25"/>
<path opacity="0.3" d="M591.417 375.779C592.127 375.897 592.85 375.389 593.032 374.644C593.215 373.899 592.787 373.199 592.077 373.082C591.367 372.964 590.644 373.472 590.462 374.217C590.28 374.962 590.708 375.661 591.417 375.779Z" fill="white" fill-opacity="0.25"/>
<path opacity="0.3" d="M222.028 326.467C222.737 326.585 223.461 326.076 223.643 325.331C223.825 324.586 223.397 323.887 222.687 323.769C221.978 323.651 221.255 324.16 221.072 324.905C220.89 325.649 221.318 326.349 222.028 326.467Z" fill="white" fill-opacity="0.25"/>
<path opacity="0.3" d="M178.29 280.731C179 280.849 179.723 280.341 179.905 279.596C180.088 278.851 179.66 278.152 178.95 278.034C178.24 277.916 177.517 278.424 177.335 279.169C177.153 279.914 177.581 280.614 178.29 280.731Z" fill="white" fill-opacity="0.25"/>
<path opacity="0.11" d="M644.676 362.213C645.386 362.331 646.109 361.822 646.291 361.077C646.473 360.332 646.046 359.633 645.336 359.515C644.626 359.397 643.903 359.906 643.721 360.651C643.539 361.396 643.966 362.095 644.676 362.213Z" fill="white" fill-opacity="0.25"/>
<path opacity="0.3" d="M274.67 272.911C275.38 273.029 276.103 272.521 276.285 271.776C276.467 271.031 276.04 270.331 275.33 270.213C274.62 270.096 273.897 270.604 273.715 271.349C273.533 272.094 273.961 272.793 274.67 272.911Z" fill="white" fill-opacity="0.25"/>
<path opacity="0.11" d="M260.335 256.54C261.045 256.658 261.768 256.15 261.95 255.405C262.133 254.66 261.705 253.96 260.995 253.842C260.285 253.724 259.562 254.233 259.38 254.978C259.198 255.723 259.626 256.422 260.335 256.54Z" fill="white" fill-opacity="0.25"/>
<path opacity="0.3" d="M245.866 298.929C246.575 299.047 247.298 298.538 247.481 297.793C247.663 297.048 247.235 296.349 246.525 296.231C245.816 296.113 245.093 296.621 244.91 297.366C244.728 298.111 245.156 298.811 245.866 298.929Z" fill="white" fill-opacity="0.25"/>
<path d="M285.967 304.871C286.499 304.96 287.041 304.578 287.178 304.02C287.314 303.461 286.994 302.937 286.462 302.848C285.929 302.76 285.387 303.141 285.251 303.7C285.114 304.258 285.435 304.783 285.967 304.871Z" fill="white" fill-opacity="0.25"/>
<path opacity="0.11" d="M667.198 153.649C667.907 153.767 668.63 153.259 668.813 152.514C668.995 151.769 668.567 151.07 667.857 150.952C667.148 150.834 666.425 151.342 666.242 152.087C666.06 152.832 666.488 153.532 667.198 153.649Z" fill="white" fill-opacity="0.25"/>
<path d="M669.749 161.768C670.281 161.856 670.823 161.475 670.96 160.916C671.097 160.358 670.776 159.833 670.244 159.745C669.712 159.657 669.17 160.038 669.033 160.596C668.896 161.155 669.217 161.679 669.749 161.768Z" fill="white" fill-opacity="0.25"/>
<path d="M693.918 151.08C694.45 151.169 694.992 150.787 695.129 150.229C695.266 149.67 694.945 149.146 694.413 149.057C693.881 148.969 693.338 149.35 693.202 149.909C693.065 150.467 693.386 150.992 693.918 151.08Z" fill="white" fill-opacity="0.25"/>
<path d="M639.874 140.724C640.406 140.812 640.948 140.431 641.085 139.872C641.222 139.314 640.901 138.789 640.369 138.701C639.837 138.613 639.295 138.994 639.158 139.552C639.021 140.111 639.342 140.635 639.874 140.724Z" fill="white" fill-opacity="0.25"/>
<path opacity="0.11" d="M604.713 151.691C605.423 151.809 606.146 151.301 606.328 150.556C606.51 149.811 606.083 149.112 605.373 148.994C604.663 148.876 603.94 149.384 603.758 150.129C603.576 150.874 604.004 151.574 604.713 151.691Z" fill="white" fill-opacity="0.25"/>
<path d="M595.807 134.821C596.161 134.879 596.522 134.626 596.613 134.254C596.704 133.882 596.491 133.533 596.137 133.474C595.782 133.415 595.421 133.669 595.33 134.041C595.239 134.413 595.453 134.762 595.807 134.821Z" fill="white" fill-opacity="0.25"/>
<path d="M659.589 179.675C659.944 179.734 660.305 179.48 660.396 179.108C660.486 178.736 660.273 178.387 659.919 178.328C659.565 178.269 659.204 178.523 659.113 178.895C659.022 179.267 659.235 179.616 659.589 179.675Z" fill="white" fill-opacity="0.25"/>
<path d="M798.94 202.769C799.294 202.828 799.655 202.574 799.746 202.202C799.837 201.83 799.624 201.481 799.269 201.422C798.915 201.363 798.554 201.617 798.463 201.989C798.372 202.361 798.586 202.71 798.94 202.769Z" fill="white" fill-opacity="0.25"/>
<path d="M876.507 177.831C876.862 177.89 877.223 177.636 877.313 177.264C877.404 176.892 877.191 176.543 876.837 176.484C876.482 176.426 876.122 176.679 876.031 177.051C875.94 177.423 876.153 177.773 876.507 177.831Z" fill="white" fill-opacity="0.25"/>
<path d="M890.763 231.279C891.117 231.337 891.478 231.084 891.569 230.712C891.66 230.34 891.447 229.991 891.093 229.932C890.738 229.873 890.377 230.127 890.286 230.499C890.196 230.871 890.409 231.22 890.763 231.279Z" fill="white" fill-opacity="0.25"/>
<path d="M450.39 127.518C450.744 127.577 451.105 127.323 451.196 126.951C451.287 126.579 451.074 126.23 450.72 126.171C450.365 126.112 450.004 126.366 449.913 126.738C449.822 127.11 450.036 127.459 450.39 127.518Z" fill="white" fill-opacity="0.25"/>
<path opacity="0.11" d="M448.705 89.4534C449.059 89.5123 449.42 89.2584 449.511 88.8865C449.602 88.5145 449.388 88.1653 449.034 88.1065C448.68 88.0477 448.319 88.3015 448.228 88.6735C448.137 89.0454 448.35 89.3946 448.705 89.4534Z" fill="white" fill-opacity="0.25"/>
<path opacity="0.11" d="M417.857 100.437C418.211 100.496 418.572 100.242 418.663 99.8699C418.754 99.498 418.541 99.1487 418.186 99.0899C417.832 99.0311 417.471 99.2849 417.38 99.6569C417.289 100.029 417.503 100.378 417.857 100.437Z" fill="white" fill-opacity="0.25"/>
<path opacity="0.11" d="M430.174 144.463C430.529 144.522 430.89 144.268 430.98 143.896C431.071 143.524 430.858 143.175 430.504 143.116C430.149 143.057 429.789 143.311 429.698 143.683C429.607 144.055 429.82 144.404 430.174 144.463Z" fill="white" fill-opacity="0.25"/>
<path opacity="0.11" d="M588.151 142.645C588.505 142.704 588.866 142.45 588.957 142.078C589.048 141.706 588.835 141.357 588.48 141.298C588.126 141.239 587.765 141.493 587.674 141.865C587.583 142.237 587.797 142.586 588.151 142.645Z" fill="white" fill-opacity="0.25"/>
<path opacity="0.11" d="M653.052 203.787C653.407 203.846 653.767 203.592 653.858 203.22C653.949 202.849 653.736 202.499 653.382 202.44C653.027 202.382 652.667 202.635 652.576 203.007C652.485 203.379 652.698 203.729 653.052 203.787Z" fill="white" fill-opacity="0.25"/>
<path opacity="0.11" d="M777.238 217.364C777.592 217.422 777.953 217.169 778.044 216.797C778.135 216.425 777.921 216.075 777.567 216.017C777.213 215.958 776.852 216.212 776.761 216.584C776.67 216.956 776.884 217.305 777.238 217.364Z" fill="white" fill-opacity="0.25"/>
<path opacity="0.3" d="M483.452 115.502C483.806 115.561 484.167 115.307 484.258 114.935C484.349 114.563 484.135 114.214 483.781 114.155C483.427 114.097 483.066 114.35 482.975 114.722C482.884 115.094 483.097 115.443 483.452 115.502Z" fill="white" fill-opacity="0.25"/>
<path d="M638.367 103.383C638.721 103.442 639.082 103.188 639.173 102.816C639.264 102.444 639.05 102.095 638.696 102.036C638.342 101.977 637.981 102.231 637.89 102.603C637.799 102.975 638.012 103.324 638.367 103.383Z" fill="white" fill-opacity="0.25"/>
<path d="M737.095 118.343C737.449 118.402 737.81 118.148 737.901 117.776C737.992 117.404 737.779 117.055 737.425 116.996C737.07 116.937 736.709 117.191 736.618 117.563C736.528 117.935 736.741 118.284 737.095 118.343Z" fill="white" fill-opacity="0.25"/>
<path d="M581.446 158.331C581.8 158.39 582.161 158.136 582.252 157.764C582.343 157.392 582.129 157.043 581.775 156.984C581.421 156.926 581.06 157.179 580.969 157.551C580.878 157.923 581.092 158.273 581.446 158.331Z" fill="white" fill-opacity="0.25"/>
<path opacity="0.3" d="M536.7 150.916C537.054 150.975 537.415 150.721 537.506 150.349C537.597 149.977 537.383 149.628 537.029 149.569C536.675 149.511 536.314 149.764 536.223 150.136C536.132 150.508 536.345 150.858 536.7 150.916Z" fill="white" fill-opacity="0.25"/>
<path opacity="0.11" d="M493.359 100.352C493.713 100.411 494.074 100.157 494.165 99.7849C494.256 99.413 494.043 99.0638 493.688 99.0049C493.334 98.9461 492.973 99.2 492.882 99.5719C492.791 99.9439 493.005 100.293 493.359 100.352Z" fill="white" fill-opacity="0.25"/>
<path opacity="0.3" d="M646.368 121.506C646.722 121.565 647.083 121.311 647.174 120.939C647.265 120.567 647.051 120.218 646.697 120.159C646.343 120.1 645.982 120.354 645.891 120.726C645.8 121.098 646.013 121.447 646.368 121.506Z" fill="white" fill-opacity="0.25"/>
<path opacity="0.3" d="M589.538 172.968C589.892 173.027 590.253 172.773 590.344 172.401C590.435 172.029 590.221 171.68 589.867 171.621C589.513 171.562 589.152 171.816 589.061 172.188C588.97 172.56 589.183 172.909 589.538 172.968Z" fill="white" fill-opacity="0.25"/>
<path opacity="0.3" d="M510.729 166.908C511.083 166.966 511.444 166.713 511.535 166.341C511.626 165.969 511.413 165.619 511.058 165.561C510.704 165.502 510.343 165.756 510.252 166.128C510.161 166.5 510.375 166.849 510.729 166.908Z" fill="white" fill-opacity="0.25"/>
<path opacity="0.3" d="M501.992 118.578C502.346 118.637 502.707 118.383 502.798 118.012C502.889 117.64 502.675 117.29 502.321 117.232C501.967 117.173 501.606 117.427 501.515 117.798C501.424 118.17 501.637 118.52 501.992 118.578Z" fill="white" fill-opacity="0.25"/>
<path opacity="0.3" d="M900.011 182.427C900.366 182.486 900.726 182.232 900.817 181.86C900.908 181.488 900.695 181.139 900.341 181.08C899.986 181.021 899.625 181.275 899.535 181.647C899.444 182.019 899.657 182.368 900.011 182.427Z" fill="white" fill-opacity="0.25"/>
<path opacity="0.11" d="M803.094 137.676C803.449 137.735 803.809 137.481 803.9 137.109C803.991 136.737 803.778 136.388 803.424 136.329C803.069 136.27 802.708 136.524 802.618 136.896C802.527 137.268 802.74 137.617 803.094 137.676Z" fill="white" fill-opacity="0.25"/>
<path opacity="0.11" d="M876.464 208.612C876.819 208.67 877.18 208.417 877.271 208.045C877.361 207.673 877.148 207.324 876.794 207.265C876.44 207.206 876.079 207.46 875.988 207.832C875.897 208.204 876.11 208.553 876.464 208.612Z" fill="white" fill-opacity="0.25"/>
<path opacity="0.3" d="M713.41 187.897C714.119 188.015 714.842 187.507 715.025 186.762C715.207 186.017 714.779 185.318 714.069 185.2C713.36 185.082 712.636 185.59 712.454 186.335C712.272 187.08 712.7 187.78 713.41 187.897Z" fill="white" fill-opacity="0.25"/>
<path opacity="0.11" d="M755.511 173.881C756.221 173.999 756.944 173.49 757.126 172.745C757.308 172 756.881 171.301 756.171 171.183C755.461 171.065 754.738 171.574 754.556 172.319C754.374 173.064 754.801 173.763 755.511 173.881Z" fill="white" fill-opacity="0.25"/>
<path d="M760.322 150.188C760.855 150.276 761.397 149.895 761.533 149.336C761.67 148.778 761.349 148.253 760.817 148.165C760.285 148.077 759.743 148.458 759.606 149.016C759.47 149.575 759.79 150.099 760.322 150.188Z" fill="white" fill-opacity="0.25"/>
<path d="M700.863 213.811C701.396 213.899 701.938 213.518 702.074 212.959C702.211 212.401 701.89 211.876 701.358 211.788C700.826 211.7 700.284 212.081 700.147 212.639C700.011 213.198 700.331 213.722 700.863 213.811Z" fill="white" fill-opacity="0.25"/>
<path d="M910.153 262.483C910.685 262.571 911.227 262.19 911.363 261.631C911.5 261.073 911.179 260.548 910.647 260.46C910.115 260.371 909.573 260.753 909.436 261.311C909.3 261.87 909.62 262.394 910.153 262.483Z" fill="white" fill-opacity="0.25"/>
<path d="M497.793 182.258C498.325 182.346 498.867 181.965 499.004 181.407C499.141 180.848 498.82 180.324 498.288 180.235C497.756 180.147 497.213 180.528 497.077 181.087C496.94 181.645 497.261 182.17 497.793 182.258Z" fill="white" fill-opacity="0.25"/>
<path d="M416.147 152.638C416.679 152.726 417.221 152.345 417.358 151.786C417.494 151.228 417.173 150.703 416.641 150.615C416.109 150.527 415.567 150.908 415.43 151.466C415.294 152.025 415.614 152.549 416.147 152.638Z" fill="white" fill-opacity="0.25"/>
<path d="M411.129 123.817C411.661 123.905 412.203 123.524 412.34 122.965C412.477 122.407 412.156 121.882 411.624 121.794C411.092 121.705 410.549 122.087 410.413 122.645C410.276 123.204 410.597 123.728 411.129 123.817Z" fill="white" fill-opacity="0.25"/>
<path d="M726.718 158.616C727.25 158.705 727.792 158.324 727.929 157.765C728.065 157.206 727.745 156.682 727.213 156.594C726.68 156.505 726.138 156.886 726.002 157.445C725.865 158.004 726.186 158.528 726.718 158.616Z" fill="white" fill-opacity="0.25"/>
<path d="M604.672 190.174C605.204 190.262 605.746 189.881 605.883 189.323C606.02 188.764 605.699 188.24 605.167 188.151C604.635 188.063 604.092 188.444 603.956 189.003C603.819 189.561 604.14 190.086 604.672 190.174Z" fill="white" fill-opacity="0.25"/>
<path d="M759.463 245.913C759.995 246.002 760.537 245.62 760.674 245.062C760.811 244.503 760.49 243.979 759.958 243.89C759.426 243.802 758.883 244.183 758.747 244.742C758.61 245.3 758.931 245.825 759.463 245.913Z" fill="white" fill-opacity="0.25"/>
<path d="M938.796 228.04C939.328 228.129 939.87 227.747 940.007 227.189C940.144 226.63 939.823 226.106 939.291 226.017C938.759 225.929 938.216 226.31 938.08 226.869C937.943 227.427 938.264 227.952 938.796 228.04Z" fill="white" fill-opacity="0.25"/>
<path d="M962.18 193.432C962.712 193.52 963.254 193.139 963.391 192.58C963.527 192.022 963.207 191.497 962.674 191.409C962.142 191.321 961.6 191.702 961.464 192.26C961.327 192.819 961.648 193.343 962.18 193.432Z" fill="white" fill-opacity="0.25"/>
<path opacity="0.3" d="M812.904 159.601C813.613 159.718 814.337 159.21 814.519 158.465C814.701 157.72 814.273 157.021 813.563 156.903C812.854 156.785 812.131 157.293 811.948 158.038C811.766 158.783 812.194 159.483 812.904 159.601Z" fill="white" fill-opacity="0.25"/>
<path d="M823.283 111.636C823.992 111.754 824.715 111.245 824.898 110.5C825.08 109.755 824.652 109.056 823.942 108.938C823.233 108.82 822.51 109.329 822.327 110.073C822.145 110.818 822.573 111.518 823.283 111.636Z" fill="white" fill-opacity="0.25"/>
<path d="M842.613 179.918C843.146 180.006 843.688 179.625 843.824 179.067C843.961 178.508 843.64 177.984 843.108 177.895C842.576 177.807 842.034 178.188 841.897 178.747C841.761 179.305 842.081 179.83 842.613 179.918Z" fill="white" fill-opacity="0.25"/>
<path opacity="0.3" d="M879.311 158.709C880.021 158.827 880.744 158.318 880.926 157.574C881.108 156.829 880.68 156.129 879.971 156.011C879.261 155.893 878.538 156.402 878.356 157.147C878.173 157.892 878.601 158.591 879.311 158.709Z" fill="white" fill-opacity="0.25"/>
<path opacity="0.3" d="M932.208 217.156C932.918 217.274 933.641 216.766 933.823 216.021C934.006 215.276 933.578 214.576 932.868 214.459C932.158 214.341 931.435 214.849 931.253 215.594C931.071 216.339 931.499 217.038 932.208 217.156Z" fill="white" fill-opacity="0.25"/>
<path opacity="0.3" d="M857.128 206.113C857.838 206.231 858.561 205.723 858.743 204.978C858.925 204.233 858.498 203.533 857.788 203.416C857.078 203.298 856.355 203.806 856.173 204.551C855.991 205.296 856.419 205.995 857.128 206.113Z" fill="white" fill-opacity="0.25"/>
<path opacity="0.3" d="M487.739 156.802C488.448 156.92 489.171 156.411 489.354 155.666C489.536 154.921 489.108 154.222 488.398 154.104C487.689 153.986 486.966 154.495 486.783 155.239C486.601 155.984 487.029 156.684 487.739 156.802Z" fill="white" fill-opacity="0.25"/>
<path opacity="0.3" d="M444 111.067C444.71 111.185 445.433 110.677 445.615 109.932C445.798 109.187 445.37 108.487 444.66 108.37C443.95 108.252 443.227 108.76 443.045 109.505C442.863 110.25 443.291 110.95 444 111.067Z" fill="white" fill-opacity="0.25"/>
<path opacity="0.11" d="M910.388 192.549C911.098 192.667 911.821 192.158 912.003 191.413C912.185 190.668 911.758 189.969 911.048 189.851C910.338 189.733 909.615 190.242 909.433 190.987C909.251 191.732 909.678 192.431 910.388 192.549Z" fill="white" fill-opacity="0.25"/>
<path opacity="0.3" d="M540.379 103.247C541.089 103.365 541.812 102.857 541.994 102.112C542.176 101.367 541.749 100.667 541.039 100.549C540.329 100.431 539.606 100.94 539.424 101.685C539.242 102.43 539.67 103.129 540.379 103.247Z" fill="white" fill-opacity="0.25"/>
<path opacity="0.11" d="M526.046 86.876C526.756 86.9939 527.479 86.4855 527.661 85.7405C527.843 84.9956 527.416 84.2961 526.706 84.1782C525.996 84.0604 525.273 84.5688 525.091 85.3137C524.909 86.0587 525.336 86.7581 526.046 86.876Z" fill="white" fill-opacity="0.25"/>
<path opacity="0.3" d="M511.577 129.265C512.286 129.383 513.009 128.874 513.192 128.129C513.374 127.384 512.946 126.685 512.236 126.567C511.527 126.449 510.803 126.957 510.621 127.702C510.439 128.447 510.867 129.147 511.577 129.265Z" fill="white" fill-opacity="0.25"/>
<path d="M551.679 135.206C552.211 135.295 552.753 134.913 552.89 134.355C553.026 133.796 552.706 133.272 552.174 133.183C551.641 133.095 551.099 133.476 550.963 134.035C550.826 134.593 551.147 135.118 551.679 135.206Z" fill="white" fill-opacity="0.25"/>
<path opacity="0.11" d="M980.398 315.186C981.108 315.303 981.831 314.795 982.013 314.05C982.195 313.305 981.767 312.606 981.058 312.488C980.348 312.37 979.625 312.878 979.443 313.623C979.26 314.368 979.688 315.068 980.398 315.186Z" fill="white" fill-opacity="0.25"/>
<path d="M982.95 323.303C983.482 323.391 984.025 323.01 984.161 322.451C984.298 321.893 983.977 321.368 983.445 321.28C982.913 321.192 982.371 321.573 982.234 322.131C982.097 322.69 982.418 323.214 982.95 323.303Z" fill="white" fill-opacity="0.25"/>
<path d="M1007.12 312.615C1007.65 312.704 1008.19 312.323 1008.33 311.764C1008.46 311.205 1008.14 310.681 1007.61 310.593C1007.08 310.504 1006.54 310.885 1006.4 311.444C1006.26 312.003 1006.58 312.527 1007.12 312.615Z" fill="white" fill-opacity="0.25"/>
<path d="M953.075 302.26C953.607 302.348 954.15 301.967 954.286 301.409C954.423 300.85 954.102 300.326 953.57 300.237C953.038 300.149 952.496 300.53 952.359 301.089C952.222 301.647 952.543 302.172 953.075 302.26Z" fill="white" fill-opacity="0.25"/>
<path opacity="0.11" d="M917.914 313.227C918.624 313.344 919.347 312.836 919.529 312.091C919.712 311.346 919.284 310.647 918.574 310.529C917.864 310.411 917.141 310.919 916.959 311.664C916.777 312.409 917.205 313.109 917.914 313.227Z" fill="white" fill-opacity="0.25"/>
<path d="M909.008 296.357C909.363 296.416 909.723 296.162 909.814 295.79C909.905 295.418 909.692 295.069 909.338 295.01C908.983 294.951 908.623 295.205 908.532 295.577C908.441 295.949 908.654 296.298 909.008 296.357Z" fill="white" fill-opacity="0.25"/>
<path d="M972.79 341.21C973.144 341.269 973.505 341.015 973.596 340.643C973.687 340.271 973.473 339.922 973.119 339.863C972.765 339.805 972.404 340.058 972.313 340.43C972.222 340.802 972.435 341.151 972.79 341.21Z" fill="white" fill-opacity="0.25"/>
<path d="M1112.14 364.304C1112.49 364.363 1112.86 364.109 1112.95 363.737C1113.04 363.365 1112.82 363.016 1112.47 362.957C1112.12 362.898 1111.75 363.152 1111.66 363.524C1111.57 363.896 1111.79 364.245 1112.14 364.304Z" fill="white" fill-opacity="0.25"/>
<path d="M1189.71 339.368C1190.06 339.426 1190.42 339.173 1190.51 338.801C1190.61 338.429 1190.39 338.079 1190.04 338.021C1189.68 337.962 1189.32 338.216 1189.23 338.588C1189.14 338.959 1189.35 339.309 1189.71 339.368Z" fill="white" fill-opacity="0.25"/>
<path d="M1203.96 392.813C1204.32 392.872 1204.68 392.618 1204.77 392.246C1204.86 391.874 1204.65 391.525 1204.29 391.466C1203.94 391.407 1203.58 391.661 1203.49 392.033C1203.4 392.405 1203.61 392.754 1203.96 392.813Z" fill="white" fill-opacity="0.25"/>
<path d="M763.59 289.053C763.945 289.112 764.306 288.858 764.396 288.486C764.487 288.114 764.274 287.765 763.92 287.706C763.566 287.647 763.205 287.901 763.114 288.273C763.023 288.645 763.236 288.994 763.59 289.053Z" fill="white" fill-opacity="0.25"/>
<path opacity="0.11" d="M761.905 250.99C762.259 251.048 762.62 250.795 762.711 250.423C762.802 250.051 762.588 249.701 762.234 249.643C761.88 249.584 761.519 249.838 761.428 250.21C761.337 250.582 761.551 250.931 761.905 250.99Z" fill="white" fill-opacity="0.25"/>
<path opacity="0.11" d="M731.057 261.973C731.411 262.032 731.772 261.778 731.863 261.406C731.954 261.034 731.741 260.685 731.387 260.626C731.032 260.567 730.671 260.821 730.58 261.193C730.489 261.565 730.703 261.914 731.057 261.973Z" fill="white" fill-opacity="0.25"/>
<path opacity="0.11" d="M743.374 305.999C743.728 306.058 744.089 305.804 744.18 305.432C744.271 305.06 744.057 304.711 743.703 304.652C743.349 304.594 742.988 304.847 742.897 305.219C742.806 305.591 743.019 305.941 743.374 305.999Z" fill="white" fill-opacity="0.25"/>
<path opacity="0.11" d="M901.351 304.18C901.705 304.239 902.066 303.985 902.157 303.613C902.248 303.241 902.035 302.892 901.681 302.833C901.326 302.774 900.965 303.028 900.874 303.4C900.783 303.772 900.997 304.121 901.351 304.18Z" fill="white" fill-opacity="0.25"/>
<path opacity="0.11" d="M966.247 365.318C966.601 365.377 966.962 365.123 967.053 364.751C967.144 364.379 966.93 364.03 966.576 363.971C966.222 363.912 965.861 364.166 965.77 364.538C965.679 364.91 965.892 365.259 966.247 365.318Z" fill="white" fill-opacity="0.25"/>
<path opacity="0.11" d="M1090.44 378.899C1090.79 378.958 1091.15 378.704 1091.24 378.332C1091.33 377.96 1091.12 377.611 1090.77 377.552C1090.41 377.493 1090.05 377.747 1089.96 378.119C1089.87 378.491 1090.08 378.84 1090.44 378.899Z" fill="white" fill-opacity="0.25"/>
<path opacity="0.3" d="M796.653 277.038C797.007 277.097 797.368 276.843 797.459 276.471C797.55 276.1 797.337 275.75 796.982 275.691C796.628 275.633 796.267 275.886 796.176 276.258C796.085 276.63 796.299 276.98 796.653 277.038Z" fill="white" fill-opacity="0.25"/>
<path d="M951.566 264.918C951.92 264.977 952.281 264.723 952.372 264.351C952.463 263.979 952.25 263.63 951.895 263.571C951.541 263.513 951.18 263.766 951.089 264.138C950.998 264.51 951.212 264.859 951.566 264.918Z" fill="white" fill-opacity="0.25"/>
<path d="M1050.3 279.88C1050.65 279.939 1051.01 279.685 1051.1 279.313C1051.19 278.941 1050.98 278.592 1050.62 278.533C1050.27 278.474 1049.91 278.728 1049.82 279.1C1049.73 279.472 1049.94 279.821 1050.3 279.88Z" fill="white" fill-opacity="0.25"/>
<path d="M894.644 319.867C894.998 319.925 895.359 319.672 895.45 319.3C895.541 318.928 895.328 318.578 894.974 318.52C894.619 318.461 894.258 318.715 894.167 319.087C894.076 319.459 894.29 319.808 894.644 319.867Z" fill="white" fill-opacity="0.25"/>
<path opacity="0.3" d="M849.9 312.452C850.254 312.511 850.615 312.257 850.706 311.886C850.797 311.514 850.584 311.164 850.229 311.106C849.875 311.047 849.514 311.301 849.423 311.673C849.332 312.044 849.546 312.394 849.9 312.452Z" fill="white" fill-opacity="0.25"/>
<path opacity="0.11" d="M806.559 261.888C806.913 261.947 807.274 261.693 807.365 261.321C807.456 260.949 807.243 260.6 806.889 260.541C806.534 260.482 806.173 260.736 806.082 261.108C805.991 261.48 806.205 261.829 806.559 261.888Z" fill="white" fill-opacity="0.25"/>
<path opacity="0.3" d="M959.567 283.042C959.921 283.101 960.282 282.847 960.373 282.475C960.464 282.103 960.251 281.754 959.896 281.695C959.542 281.637 959.181 281.89 959.09 282.262C958.999 282.634 959.213 282.984 959.567 283.042Z" fill="white" fill-opacity="0.25"/>
<path opacity="0.3" d="M902.737 334.504C903.091 334.563 903.452 334.309 903.543 333.937C903.634 333.565 903.42 333.216 903.066 333.157C902.712 333.098 902.351 333.352 902.26 333.724C902.169 334.096 902.383 334.445 902.737 334.504Z" fill="white" fill-opacity="0.25"/>
<path opacity="0.3" d="M823.929 328.442C824.284 328.501 824.644 328.247 824.735 327.875C824.826 327.503 824.613 327.154 824.259 327.095C823.904 327.036 823.543 327.29 823.452 327.662C823.362 328.034 823.575 328.383 823.929 328.442Z" fill="white" fill-opacity="0.25"/>
<path opacity="0.3" d="M815.19 280.114C815.544 280.172 815.905 279.919 815.996 279.547C816.087 279.175 815.874 278.825 815.519 278.767C815.165 278.708 814.804 278.962 814.713 279.334C814.622 279.706 814.836 280.055 815.19 280.114Z" fill="white" fill-opacity="0.25"/>
<path opacity="0.3" d="M1213.21 343.961C1213.56 344.02 1213.92 343.766 1214.01 343.394C1214.11 343.022 1213.89 342.673 1213.54 342.614C1213.18 342.556 1212.82 342.809 1212.73 343.181C1212.64 343.553 1212.85 343.902 1213.21 343.961Z" fill="white" fill-opacity="0.25"/>
<path opacity="0.11" d="M1116.3 299.212C1116.65 299.271 1117.01 299.017 1117.1 298.645C1117.19 298.273 1116.98 297.924 1116.63 297.865C1116.27 297.806 1115.91 298.06 1115.82 298.432C1115.73 298.804 1115.94 299.153 1116.3 299.212Z" fill="white" fill-opacity="0.25"/>
<path opacity="0.11" d="M1189.67 370.148C1190.02 370.207 1190.38 369.953 1190.47 369.581C1190.56 369.209 1190.35 368.86 1189.99 368.801C1189.64 368.742 1189.28 368.996 1189.19 369.368C1189.1 369.74 1189.31 370.089 1189.67 370.148Z" fill="white" fill-opacity="0.25"/>
<path opacity="0.3" d="M1026.61 349.432C1027.32 349.55 1028.04 349.041 1028.22 348.296C1028.41 347.551 1027.98 346.852 1027.27 346.734C1026.56 346.616 1025.84 347.124 1025.65 347.869C1025.47 348.614 1025.9 349.314 1026.61 349.432Z" fill="white" fill-opacity="0.25"/>
<path opacity="0.11" d="M1068.71 335.417C1069.42 335.535 1070.15 335.026 1070.33 334.282C1070.51 333.537 1070.08 332.837 1069.37 332.719C1068.66 332.601 1067.94 333.11 1067.76 333.855C1067.57 334.6 1068 335.299 1068.71 335.417Z" fill="white" fill-opacity="0.25"/>
<path d="M1073.52 311.724C1074.05 311.812 1074.6 311.431 1074.73 310.872C1074.87 310.314 1074.55 309.789 1074.02 309.701C1073.49 309.613 1072.94 309.994 1072.81 310.552C1072.67 311.111 1072.99 311.635 1073.52 311.724Z" fill="white" fill-opacity="0.25"/>
<path d="M1014.06 375.346C1014.59 375.434 1015.14 375.053 1015.27 374.494C1015.41 373.936 1015.09 373.411 1014.56 373.323C1014.03 373.235 1013.48 373.616 1013.35 374.174C1013.21 374.733 1013.53 375.257 1014.06 375.346Z" fill="white" fill-opacity="0.25"/>
<path d="M1223.35 424.019C1223.88 424.107 1224.43 423.726 1224.56 423.167C1224.7 422.609 1224.38 422.084 1223.85 421.996C1223.31 421.908 1222.77 422.289 1222.64 422.847C1222.5 423.406 1222.82 423.93 1223.35 424.019Z" fill="white" fill-opacity="0.25"/>
<path d="M810.992 343.794C811.524 343.882 812.067 343.501 812.203 342.943C812.34 342.384 812.019 341.86 811.487 341.771C810.955 341.683 810.413 342.064 810.276 342.623C810.139 343.181 810.46 343.706 810.992 343.794Z" fill="white" fill-opacity="0.25"/>
<path d="M729.348 314.175C729.88 314.263 730.422 313.882 730.559 313.324C730.695 312.765 730.375 312.241 729.842 312.152C729.31 312.064 728.768 312.445 728.632 313.004C728.495 313.562 728.816 314.087 729.348 314.175Z" fill="white" fill-opacity="0.25"/>
<path d="M724.329 285.352C724.861 285.44 725.404 285.059 725.54 284.5C725.677 283.942 725.356 283.417 724.824 283.329C724.292 283.241 723.75 283.622 723.613 284.18C723.476 284.739 723.797 285.263 724.329 285.352Z" fill="white" fill-opacity="0.25"/>
<path d="M1039.92 320.152C1040.45 320.241 1040.99 319.86 1041.13 319.301C1041.26 318.743 1040.94 318.218 1040.41 318.13C1039.88 318.041 1039.34 318.423 1039.2 318.981C1039.06 319.54 1039.38 320.064 1039.92 320.152Z" fill="white" fill-opacity="0.25"/>
<path d="M917.875 351.71C918.407 351.798 918.949 351.417 919.086 350.859C919.223 350.3 918.902 349.776 918.37 349.687C917.838 349.599 917.296 349.98 917.159 350.539C917.022 351.097 917.343 351.622 917.875 351.71Z" fill="white" fill-opacity="0.25"/>
<path d="M1072.66 407.449C1073.2 407.538 1073.74 407.157 1073.87 406.598C1074.01 406.039 1073.69 405.515 1073.16 405.427C1072.63 405.338 1072.08 405.719 1071.95 406.278C1071.81 406.837 1072.13 407.361 1072.66 407.449Z" fill="white" fill-opacity="0.25"/>
<path d="M1251.99 389.577C1252.53 389.666 1253.07 389.284 1253.21 388.726C1253.34 388.167 1253.02 387.643 1252.49 387.555C1251.96 387.466 1251.41 387.847 1251.28 388.406C1251.14 388.964 1251.46 389.489 1251.99 389.577Z" fill="white" fill-opacity="0.25"/>
<path d="M1275.38 354.967C1275.91 355.055 1276.46 354.674 1276.59 354.116C1276.73 353.557 1276.41 353.033 1275.88 352.944C1275.34 352.856 1274.8 353.237 1274.66 353.796C1274.53 354.354 1274.85 354.879 1275.38 354.967Z" fill="white" fill-opacity="0.25"/>
<path opacity="0.3" d="M1126.1 321.132C1126.81 321.25 1127.53 320.741 1127.71 319.996C1127.9 319.251 1127.47 318.552 1126.76 318.434C1126.05 318.316 1125.32 318.825 1125.14 319.57C1124.96 320.315 1125.39 321.014 1126.1 321.132Z" fill="white" fill-opacity="0.25"/>
<path d="M1136.48 273.174C1137.19 273.292 1137.92 272.783 1138.1 272.038C1138.28 271.293 1137.85 270.594 1137.14 270.476C1136.43 270.358 1135.71 270.867 1135.53 271.612C1135.35 272.357 1135.77 273.056 1136.48 273.174Z" fill="white" fill-opacity="0.25"/>
<path d="M1155.81 341.454C1156.35 341.543 1156.89 341.161 1157.03 340.603C1157.16 340.044 1156.84 339.52 1156.31 339.431C1155.78 339.343 1155.23 339.724 1155.1 340.283C1154.96 340.841 1155.28 341.366 1155.81 341.454Z" fill="white" fill-opacity="0.25"/>
<path opacity="0.3" d="M1192.51 320.244C1193.22 320.362 1193.94 319.854 1194.13 319.109C1194.31 318.364 1193.88 317.664 1193.17 317.546C1192.46 317.429 1191.74 317.937 1191.55 318.682C1191.37 319.427 1191.8 320.126 1192.51 320.244Z" fill="white" fill-opacity="0.25"/>
<path opacity="0.3" d="M1245.41 378.692C1246.12 378.81 1246.84 378.302 1247.02 377.557C1247.21 376.812 1246.78 376.112 1246.07 375.995C1245.36 375.877 1244.64 376.385 1244.45 377.13C1244.27 377.875 1244.7 378.575 1245.41 378.692Z" fill="white" fill-opacity="0.25"/>
<path opacity="0.3" d="M1170.33 367.649C1171.04 367.767 1171.76 367.259 1171.94 366.514C1172.13 365.769 1171.7 365.07 1170.99 364.952C1170.28 364.834 1169.56 365.342 1169.37 366.087C1169.19 366.832 1169.62 367.532 1170.33 367.649Z" fill="white" fill-opacity="0.25"/>
<path opacity="0.3" d="M800.94 318.339C801.65 318.457 802.373 317.948 802.555 317.203C802.737 316.458 802.309 315.759 801.6 315.641C800.89 315.523 800.167 316.032 799.985 316.777C799.802 317.522 800.23 318.221 800.94 318.339Z" fill="white" fill-opacity="0.25"/>
<path opacity="0.3" d="M757.202 272.605C757.911 272.722 758.634 272.214 758.817 271.469C758.999 270.724 758.571 270.025 757.861 269.907C757.152 269.789 756.428 270.297 756.246 271.042C756.064 271.787 756.492 272.487 757.202 272.605Z" fill="white" fill-opacity="0.25"/>
<path opacity="0.11" d="M1223.59 354.084C1224.3 354.202 1225.02 353.693 1225.2 352.949C1225.39 352.204 1224.96 351.504 1224.25 351.386C1223.54 351.268 1222.82 351.777 1222.63 352.522C1222.45 353.267 1222.88 353.966 1223.59 354.084Z" fill="white" fill-opacity="0.25"/>
<path opacity="0.3" d="M853.58 264.781C854.29 264.899 855.013 264.391 855.195 263.646C855.378 262.901 854.95 262.201 854.24 262.084C853.53 261.966 852.807 262.474 852.625 263.219C852.443 263.964 852.871 264.663 853.58 264.781Z" fill="white" fill-opacity="0.25"/>
<path opacity="0.11" d="M839.247 248.412C839.957 248.53 840.68 248.022 840.862 247.277C841.045 246.532 840.617 245.832 839.907 245.714C839.197 245.597 838.474 246.105 838.292 246.85C838.11 247.595 838.538 248.294 839.247 248.412Z" fill="white" fill-opacity="0.25"/>
<path opacity="0.3" d="M824.778 290.8C825.487 290.918 826.211 290.409 826.393 289.664C826.575 288.919 826.147 288.22 825.437 288.102C824.728 287.984 824.005 288.493 823.822 289.238C823.64 289.983 824.068 290.682 824.778 290.8Z" fill="white" fill-opacity="0.25"/>
<path d="M864.878 296.742C865.41 296.831 865.952 296.45 866.089 295.891C866.226 295.332 865.905 294.808 865.373 294.72C864.841 294.631 864.298 295.012 864.162 295.571C864.025 296.13 864.346 296.654 864.878 296.742Z" fill="white" fill-opacity="0.25"/>
</g>
<circle cx="720" cy="2363" r="2064.5" fill="#010101" stroke="url(#paint1_angular_732_483)"/>
</g>
<defs>
<filter id="filter0_f_732_483" x="-60" y="184" width="1560" height="459" filterUnits="userSpaceOnUse" color-interpolation-filters="sRGB">
<feFlood flood-opacity="0" result="BackgroundImageFix"/>
<feBlend mode="normal" in="SourceGraphic" in2="BackgroundImageFix" result="shape"/>
<feGaussianBlur stdDeviation="30" result="effect1_foregroundBlur_732_483"/>
</filter>
<radialGradient id="paint0_radial_732_483" cx="0" cy="0" r="1" gradientUnits="userSpaceOnUse" gradientTransform="translate(720 413.5) rotate(-89.8163) scale(169.501 720.002)">
<stop stop-color="white"/>
<stop offset="1" stop-color="#123579" stop-opacity="0"/>
</radialGradient>
<radialGradient id="paint1_angular_732_483" cx="0" cy="0" r="1" gradientUnits="userSpaceOnUse" gradientTransform="translate(720 2363) rotate(90) scale(1423.45)">
<stop stop-color="white" stop-opacity="0"/>
<stop offset="0.197917" stop-color="#814041"/>
<stop offset="0.4375" stop-color="#DAE8FE" stop-opacity="0"/>
<stop offset="0.604167" stop-color="#FF7575" stop-opacity="0.5"/>
<stop offset="0.78125" stop-color="white" stop-opacity="0.114583"/>
<stop offset="1" stop-color="white" stop-opacity="0"/>
</radialGradient>
<clipPath id="clip0_732_483">
<rect width="1440" height="430" fill="white"/>
</clipPath>
</defs>
</svg>
