<svg width="581" height="132" viewBox="0 0 581 132" fill="none" xmlns="http://www.w3.org/2000/svg">
<g filter="url(#filter0_b_837_734)">
<mask id="path-1-inside-1_837_734" fill="white">
<path d="M0 8C0 3.58172 3.58172 0 8 0H573C577.418 0 581 3.58172 581 8V132H0V8Z"/>
</mask>
<path d="M0 8C0 3.58172 3.58172 0 8 0H573C577.418 0 581 3.58172 581 8V132H0V8Z" fill="white" fill-opacity="0.03"/>
<g opacity="0.75">
<path d="M28.4355 24.6035V25.9639H30.7119V30.6465H28.4355V32H34.5332V30.6465H32.3594V24.6035H28.4355ZM30.5615 22.6895C30.5615 22.8626 30.6025 23.0153 30.6846 23.1475C30.7712 23.2751 30.8965 23.3639 31.0605 23.4141C31.2201 23.4642 31.3659 23.4756 31.498 23.4482C31.6302 23.4209 31.7441 23.3639 31.8398 23.2773C32.0312 23.2272 32.1771 23.1292 32.2773 22.9834C32.3776 22.833 32.4118 22.6576 32.3799 22.457C32.3571 22.2611 32.2682 22.1016 32.1133 21.9785C31.9629 21.8509 31.7646 21.7871 31.5186 21.7871C31.3727 21.7871 31.2406 21.8099 31.1221 21.8555C31.0081 21.8965 30.9102 21.9557 30.8281 22.0332C30.7415 22.1152 30.6755 22.2132 30.6299 22.3271C30.5843 22.4365 30.5615 22.5573 30.5615 22.6895ZM37.3975 24.6035H35.9756V32H37.4795V26.3193C37.5068 26.251 37.5365 26.1895 37.5684 26.1348C37.6048 26.0801 37.6458 26.0322 37.6914 25.9912C37.7507 25.932 37.8213 25.8887 37.9033 25.8613C37.9899 25.8294 38.0879 25.8135 38.1973 25.8135C38.2975 25.8135 38.3864 25.8271 38.4639 25.8545C38.5459 25.8818 38.6165 25.9251 38.6758 25.9844C38.735 26.0436 38.7783 26.1257 38.8057 26.2305C38.8376 26.3307 38.8535 26.4538 38.8535 26.5996V32H40.3301V26.5107C40.3301 26.4652 40.3301 26.431 40.3301 26.4082C40.3301 26.3809 40.3301 26.3581 40.3301 26.3398C40.3483 26.2624 40.3757 26.194 40.4121 26.1348C40.4486 26.071 40.4941 26.0163 40.5488 25.9707C40.6081 25.9206 40.6764 25.8818 40.7539 25.8545C40.8314 25.8271 40.9225 25.8135 41.0273 25.8135C41.1276 25.8135 41.2188 25.8271 41.3008 25.8545C41.3874 25.8818 41.4603 25.9251 41.5195 25.9844C41.5788 26.0482 41.6243 26.1325 41.6562 26.2373C41.6882 26.3376 41.7041 26.4606 41.7041 26.6064V32H43.208V26.6201C43.208 26.2327 43.167 25.9023 43.085 25.6289C43.0075 25.3509 42.8958 25.1253 42.75 24.9521C42.6042 24.7881 42.431 24.6673 42.2305 24.5898C42.0345 24.5078 41.818 24.4668 41.5811 24.4668C41.3988 24.4668 41.2301 24.4896 41.0752 24.5352C40.9248 24.5807 40.7881 24.6445 40.665 24.7266C40.5693 24.7904 40.4805 24.8678 40.3984 24.959C40.3164 25.0501 40.2435 25.1481 40.1797 25.2529C40.1341 25.139 40.0794 25.0387 40.0156 24.9521C39.9518 24.861 39.8789 24.7835 39.7969 24.7197C39.6921 24.6331 39.5667 24.5693 39.4209 24.5283C39.2751 24.4873 39.111 24.4668 38.9287 24.4668C38.5778 24.4668 38.277 24.5511 38.0264 24.7197C37.7803 24.8883 37.5866 25.1208 37.4453 25.417L37.3975 24.6035ZM44.8896 34.8438H46.5234V31.3301C46.61 31.4258 46.7035 31.5146 46.8037 31.5967C46.904 31.6787 47.0088 31.7516 47.1182 31.8154C47.305 31.9202 47.5078 32 47.7266 32.0547C47.9499 32.1094 48.1937 32.1367 48.458 32.1367C48.9229 32.1367 49.3353 32.041 49.6953 31.8496C50.0553 31.6582 50.3584 31.3939 50.6045 31.0566C50.8506 30.724 51.0352 30.3275 51.1582 29.8672C51.2858 29.4069 51.3496 28.9102 51.3496 28.377V28.2334C51.3496 27.6774 51.2858 27.1693 51.1582 26.709C51.0306 26.2441 50.846 25.8454 50.6045 25.5127C50.3584 25.18 50.0531 24.9225 49.6885 24.7402C49.3285 24.5579 48.9115 24.4668 48.4375 24.4668C48.196 24.4668 47.9681 24.4941 47.7539 24.5488C47.5397 24.599 47.3438 24.6719 47.166 24.7676C47.0293 24.8405 46.9017 24.9271 46.7832 25.0273C46.6647 25.1276 46.5553 25.2393 46.4551 25.3623L46.3936 24.6035H44.8896V34.8438ZM49.7158 28.2334V28.377C49.7158 28.7051 49.6839 29.0173 49.6201 29.3135C49.5563 29.6051 49.4538 29.8649 49.3125 30.0928C49.1758 30.3161 48.998 30.4938 48.7793 30.626C48.5651 30.7536 48.3053 30.8174 48 30.8174C47.8132 30.8174 47.6423 30.7969 47.4873 30.7559C47.3324 30.7103 47.1934 30.651 47.0703 30.5781C46.9518 30.5007 46.847 30.4095 46.7559 30.3047C46.6647 30.1999 46.5872 30.0837 46.5234 29.9561V26.668C46.5964 26.5312 46.6807 26.4082 46.7764 26.2988C46.8766 26.1895 46.9928 26.0983 47.125 26.0254C47.2389 25.957 47.3688 25.9046 47.5146 25.8682C47.6605 25.8317 47.8177 25.8135 47.9863 25.8135C48.2917 25.8135 48.5537 25.8773 48.7725 26.0049C48.9912 26.1325 49.1712 26.3057 49.3125 26.5244C49.4492 26.7432 49.5495 27.0007 49.6133 27.2969C49.6816 27.5885 49.7158 27.9007 49.7158 28.2334ZM52.9834 28.2334V28.377C52.9834 28.9193 53.0609 29.4183 53.2158 29.874C53.3708 30.3298 53.5964 30.7262 53.8926 31.0635C54.1842 31.4007 54.5443 31.665 54.9727 31.8564C55.401 32.0479 55.8864 32.1436 56.4287 32.1436C56.9665 32.1436 57.4473 32.0479 57.8711 31.8564C58.2995 31.665 58.6595 31.4007 58.9512 31.0635C59.2428 30.7262 59.4661 30.3298 59.6211 29.874C59.776 29.4183 59.8535 28.9193 59.8535 28.377V28.2334C59.8535 27.6956 59.776 27.1989 59.6211 26.7432C59.4661 26.2829 59.2428 25.8841 58.9512 25.5469C58.6549 25.2096 58.2926 24.9453 57.8643 24.7539C57.4404 24.5625 56.9574 24.4668 56.415 24.4668C55.8727 24.4668 55.3896 24.5625 54.9658 24.7539C54.542 24.9453 54.1842 25.2096 53.8926 25.5469C53.5964 25.8841 53.3708 26.2829 53.2158 26.7432C53.0609 27.1989 52.9834 27.6956 52.9834 28.2334ZM54.6172 28.377V28.2334C54.6172 27.9098 54.6514 27.5999 54.7197 27.3037C54.7926 27.0075 54.9043 26.7477 55.0547 26.5244C55.2005 26.3011 55.3851 26.1234 55.6084 25.9912C55.8363 25.859 56.1051 25.793 56.415 25.793C56.7295 25.793 56.9984 25.859 57.2217 25.9912C57.4495 26.1234 57.6387 26.3011 57.7891 26.5244C57.9303 26.7477 58.0374 27.0075 58.1104 27.3037C58.1833 27.5999 58.2197 27.9098 58.2197 28.2334V28.377C58.2197 28.7096 58.1833 29.0241 58.1104 29.3203C58.042 29.6165 57.9349 29.8763 57.7891 30.0996C57.6432 30.3229 57.4564 30.5007 57.2285 30.6328C57.0007 30.7604 56.734 30.8242 56.4287 30.8242C56.1143 30.8242 55.8431 30.7604 55.6152 30.6328C55.3874 30.5007 55.2005 30.3229 55.0547 30.0996C54.9043 29.8763 54.7926 29.6165 54.7197 29.3203C54.6514 29.0241 54.6172 28.7096 54.6172 28.377ZM66.8057 24.4668C66.2952 24.4668 65.8281 24.5853 65.4043 24.8223C64.985 25.0592 64.625 25.3851 64.3242 25.7998L64.3174 25.6289L64.249 24.6035H62.7178V32H64.3516V27.4336C64.4382 27.2148 64.5452 27.0212 64.6729 26.8525C64.8005 26.6839 64.9554 26.5449 65.1377 26.4355C65.3063 26.3216 65.5 26.2373 65.7188 26.1826C65.9375 26.1279 66.1836 26.1006 66.457 26.1006C66.6986 26.1006 66.9401 26.1143 67.1816 26.1416C67.4277 26.1689 67.6761 26.21 67.9268 26.2646L68.1592 24.6514C68.0179 24.6012 67.8219 24.5579 67.5713 24.5215C67.3252 24.485 67.07 24.4668 66.8057 24.4668ZM73.3818 22.7988H71.7412V24.6035H69.9502V25.8271H71.7412V29.4639C71.7412 29.9378 71.8027 30.3434 71.9258 30.6807C72.0534 31.0179 72.2288 31.2936 72.4521 31.5078C72.6755 31.7266 72.9421 31.8883 73.252 31.9932C73.5664 32.0934 73.9105 32.1436 74.2842 32.1436C74.4893 32.1436 74.6943 32.1322 74.8994 32.1094C75.109 32.0911 75.3096 32.0638 75.501 32.0273C75.6924 31.9909 75.8701 31.9476 76.0342 31.8975C76.2028 31.8428 76.3464 31.779 76.4648 31.7061L76.2871 30.5781C76.2051 30.5964 76.1025 30.6191 75.9795 30.6465C75.861 30.6693 75.7334 30.6898 75.5967 30.708C75.4554 30.7308 75.3096 30.749 75.1592 30.7627C75.0088 30.7764 74.863 30.7832 74.7217 30.7832C74.5257 30.7832 74.3457 30.7604 74.1816 30.7148C74.0176 30.6693 73.8763 30.5918 73.7578 30.4824C73.6393 30.3776 73.5459 30.234 73.4775 30.0518C73.4137 29.8649 73.3818 29.6348 73.3818 29.3613V25.8271H76.1641V24.6035H73.3818V22.7988ZM156.042 32H157.683V25.8271H160.424V24.6035H157.683V24.1523C157.683 23.8926 157.715 23.6647 157.778 23.4688C157.847 23.2728 157.947 23.1087 158.079 22.9766C158.22 22.8353 158.4 22.7282 158.619 22.6553C158.842 22.5824 159.107 22.5459 159.412 22.5459C159.704 22.5459 159.964 22.5641 160.191 22.6006C160.424 22.637 160.631 22.6803 160.813 22.7305L160.943 21.4248C160.807 21.3975 160.672 21.3724 160.54 21.3496C160.408 21.3223 160.278 21.2995 160.15 21.2812C159.995 21.2585 159.836 21.2402 159.672 21.2266C159.512 21.2083 159.348 21.1992 159.18 21.1992C158.701 21.1992 158.268 21.263 157.881 21.3906C157.498 21.5182 157.17 21.7051 156.896 21.9512C156.623 22.2018 156.411 22.5117 156.261 22.8809C156.115 23.2454 156.042 23.6693 156.042 24.1523V24.6035H154.06V25.8271H156.042V32ZM167.704 24.4668C167.194 24.4668 166.727 24.5853 166.303 24.8223C165.883 25.0592 165.523 25.3851 165.223 25.7998L165.216 25.6289L165.147 24.6035H163.616V32H165.25V27.4336C165.337 27.2148 165.444 27.0212 165.571 26.8525C165.699 26.6839 165.854 26.5449 166.036 26.4355C166.205 26.3216 166.398 26.2373 166.617 26.1826C166.836 26.1279 167.082 26.1006 167.355 26.1006C167.597 26.1006 167.839 26.1143 168.08 26.1416C168.326 26.1689 168.575 26.21 168.825 26.2646L169.058 24.6514C168.916 24.6012 168.72 24.5579 168.47 24.5215C168.224 24.485 167.968 24.4668 167.704 24.4668ZM170.698 28.2334V28.377C170.698 28.9193 170.776 29.4183 170.931 29.874C171.086 30.3298 171.311 30.7262 171.607 31.0635C171.899 31.4007 172.259 31.665 172.688 31.8564C173.116 32.0479 173.601 32.1436 174.144 32.1436C174.681 32.1436 175.162 32.0479 175.586 31.8564C176.014 31.665 176.374 31.4007 176.666 31.0635C176.958 30.7262 177.181 30.3298 177.336 29.874C177.491 29.4183 177.568 28.9193 177.568 28.377V28.2334C177.568 27.6956 177.491 27.1989 177.336 26.7432C177.181 26.2829 176.958 25.8841 176.666 25.5469C176.37 25.2096 176.007 24.9453 175.579 24.7539C175.155 24.5625 174.672 24.4668 174.13 24.4668C173.588 24.4668 173.104 24.5625 172.681 24.7539C172.257 24.9453 171.899 25.2096 171.607 25.5469C171.311 25.8841 171.086 26.2829 170.931 26.7432C170.776 27.1989 170.698 27.6956 170.698 28.2334ZM172.332 28.377V28.2334C172.332 27.9098 172.366 27.5999 172.435 27.3037C172.507 27.0075 172.619 26.7477 172.77 26.5244C172.915 26.3011 173.1 26.1234 173.323 25.9912C173.551 25.859 173.82 25.793 174.13 25.793C174.444 25.793 174.713 25.859 174.937 25.9912C175.164 26.1234 175.354 26.3011 175.504 26.5244C175.645 26.7477 175.752 27.0075 175.825 27.3037C175.898 27.5999 175.935 27.9098 175.935 28.2334V28.377C175.935 28.7096 175.898 29.0241 175.825 29.3203C175.757 29.6165 175.65 29.8763 175.504 30.0996C175.358 30.3229 175.171 30.5007 174.943 30.6328C174.715 30.7604 174.449 30.8242 174.144 30.8242C173.829 30.8242 173.558 30.7604 173.33 30.6328C173.102 30.5007 172.915 30.3229 172.77 30.0996C172.619 29.8763 172.507 29.6165 172.435 29.3203C172.366 29.0241 172.332 28.7096 172.332 28.377ZM180.337 24.6035H178.915V32H180.419V26.3193C180.446 26.251 180.476 26.1895 180.508 26.1348C180.544 26.0801 180.585 26.0322 180.631 25.9912C180.69 25.932 180.761 25.8887 180.843 25.8613C180.929 25.8294 181.027 25.8135 181.137 25.8135C181.237 25.8135 181.326 25.8271 181.403 25.8545C181.485 25.8818 181.556 25.9251 181.615 25.9844C181.674 26.0436 181.718 26.1257 181.745 26.2305C181.777 26.3307 181.793 26.4538 181.793 26.5996V32H183.27V26.5107C183.27 26.4652 183.27 26.431 183.27 26.4082C183.27 26.3809 183.27 26.3581 183.27 26.3398C183.288 26.2624 183.315 26.194 183.352 26.1348C183.388 26.071 183.434 26.0163 183.488 25.9707C183.548 25.9206 183.616 25.8818 183.693 25.8545C183.771 25.8271 183.862 25.8135 183.967 25.8135C184.067 25.8135 184.158 25.8271 184.24 25.8545C184.327 25.8818 184.4 25.9251 184.459 25.9844C184.518 26.0482 184.564 26.1325 184.596 26.2373C184.628 26.3376 184.644 26.4606 184.644 26.6064V32H186.147V26.6201C186.147 26.2327 186.106 25.9023 186.024 25.6289C185.947 25.3509 185.835 25.1253 185.689 24.9521C185.544 24.7881 185.37 24.6673 185.17 24.5898C184.974 24.5078 184.757 24.4668 184.521 24.4668C184.338 24.4668 184.17 24.4896 184.015 24.5352C183.864 24.5807 183.728 24.6445 183.604 24.7266C183.509 24.7904 183.42 24.8678 183.338 24.959C183.256 25.0501 183.183 25.1481 183.119 25.2529C183.074 25.139 183.019 25.0387 182.955 24.9521C182.891 24.861 182.818 24.7835 182.736 24.7197C182.632 24.6331 182.506 24.5693 182.36 24.5283C182.215 24.4873 182.05 24.4668 181.868 24.4668C181.517 24.4668 181.216 24.5511 180.966 24.7197C180.72 24.8883 180.526 25.1208 180.385 25.417L180.337 24.6035ZM31.2793 70.8242C30.9375 70.8242 30.6527 70.7559 30.4248 70.6191C30.1969 70.4824 30.0169 70.3001 29.8848 70.0723C29.748 69.8535 29.6501 69.6006 29.5908 69.3135C29.5361 69.0218 29.5088 68.7256 29.5088 68.4248V68.1855C29.5088 67.8893 29.5361 67.5977 29.5908 67.3105C29.6501 67.0234 29.7503 66.7682 29.8916 66.5449C30.0238 66.3216 30.2015 66.1416 30.4248 66.0049C30.6527 65.8636 30.9375 65.793 31.2793 65.793C31.5026 65.793 31.71 65.8317 31.9014 65.9092C32.0973 65.9867 32.266 66.0915 32.4072 66.2236C32.5439 66.3558 32.6488 66.5107 32.7217 66.6885C32.7992 66.8662 32.8379 67.0553 32.8379 67.2559H34.376C34.3805 66.8457 34.3053 66.4697 34.1504 66.1279C34 65.7861 33.7881 65.4922 33.5146 65.2461C33.2412 65 32.9131 64.8086 32.5303 64.6719C32.152 64.5352 31.7396 64.4668 31.293 64.4668C30.7279 64.4668 30.2311 64.5671 29.8027 64.7676C29.3789 64.9635 29.0234 65.2301 28.7363 65.5674C28.4492 65.9046 28.2327 66.2988 28.0869 66.75C27.9456 67.2012 27.875 67.6797 27.875 68.1855V68.4248C27.875 68.9352 27.9479 69.416 28.0938 69.8672C28.2396 70.3138 28.4561 70.7057 28.7432 71.043C29.0257 71.3802 29.3789 71.6491 29.8027 71.8496C30.2311 72.0456 30.7301 72.1436 31.2998 72.1436C31.71 72.1436 32.0996 72.0775 32.4688 71.9453C32.8424 71.8086 33.1729 71.6217 33.46 71.3848C33.7425 71.1569 33.9658 70.8857 34.1299 70.5713C34.2985 70.2523 34.3805 69.9128 34.376 69.5527H32.8379C32.8379 69.7396 32.7946 69.9105 32.708 70.0654C32.626 70.2204 32.5143 70.3548 32.373 70.4688C32.2272 70.5827 32.0586 70.6715 31.8672 70.7354C31.6803 70.7946 31.4844 70.8242 31.2793 70.8242ZM36.167 68.2334V68.377C36.167 68.9193 36.2445 69.4183 36.3994 69.874C36.5544 70.3298 36.7799 70.7262 37.0762 71.0635C37.3678 71.4007 37.7279 71.665 38.1562 71.8564C38.5846 72.0479 39.07 72.1436 39.6123 72.1436C40.1501 72.1436 40.6309 72.0479 41.0547 71.8564C41.4831 71.665 41.8431 71.4007 42.1348 71.0635C42.4264 70.7262 42.6497 70.3298 42.8047 69.874C42.9596 69.4183 43.0371 68.9193 43.0371 68.377V68.2334C43.0371 67.6956 42.9596 67.1989 42.8047 66.7432C42.6497 66.2829 42.4264 65.8841 42.1348 65.5469C41.8385 65.2096 41.4762 64.9453 41.0479 64.7539C40.624 64.5625 40.141 64.4668 39.5986 64.4668C39.0563 64.4668 38.5732 64.5625 38.1494 64.7539C37.7256 64.9453 37.3678 65.2096 37.0762 65.5469C36.7799 65.8841 36.5544 66.2829 36.3994 66.7432C36.2445 67.1989 36.167 67.6956 36.167 68.2334ZM37.8008 68.377V68.2334C37.8008 67.9098 37.835 67.5999 37.9033 67.3037C37.9762 67.0075 38.0879 66.7477 38.2383 66.5244C38.3841 66.3011 38.5687 66.1234 38.792 65.9912C39.0199 65.859 39.2887 65.793 39.5986 65.793C39.9131 65.793 40.182 65.859 40.4053 65.9912C40.6331 66.1234 40.8223 66.3011 40.9727 66.5244C41.1139 66.7477 41.221 67.0075 41.2939 67.3037C41.3669 67.5999 41.4033 67.9098 41.4033 68.2334V68.377C41.4033 68.7096 41.3669 69.0241 41.2939 69.3203C41.2256 69.6165 41.1185 69.8763 40.9727 70.0996C40.8268 70.3229 40.64 70.5007 40.4121 70.6328C40.1842 70.7604 39.9176 70.8242 39.6123 70.8242C39.2979 70.8242 39.0267 70.7604 38.7988 70.6328C38.571 70.5007 38.3841 70.3229 38.2383 70.0996C38.0879 69.8763 37.9762 69.6165 37.9033 69.3203C37.835 69.0241 37.8008 68.7096 37.8008 68.377ZM44.876 72H46.5098V66.7227C46.5827 66.5996 46.667 66.4857 46.7627 66.3809C46.8584 66.276 46.9609 66.1872 47.0703 66.1143C47.2116 66.0186 47.3688 65.9456 47.542 65.8955C47.7152 65.8408 47.902 65.8135 48.1025 65.8135C48.3441 65.8135 48.5583 65.8408 48.7451 65.8955C48.932 65.9456 49.0915 66.0322 49.2236 66.1553C49.3558 66.2783 49.4561 66.4424 49.5244 66.6475C49.5928 66.8525 49.627 67.1077 49.627 67.4131V72H51.2607V67.3857C51.2607 66.8662 51.1992 66.4242 51.0762 66.0596C50.9531 65.6904 50.7799 65.3874 50.5566 65.1504C50.3333 64.9134 50.0645 64.7402 49.75 64.6309C49.4355 64.5215 49.0892 64.4668 48.7109 64.4668C48.4238 64.4668 48.1504 64.5078 47.8906 64.5898C47.6309 64.6719 47.3916 64.7881 47.1729 64.9385C47.0361 65.0342 46.9062 65.1436 46.7832 65.2666C46.6647 65.3851 46.5553 65.515 46.4551 65.6562L46.3525 64.6035H44.876V72ZM58.1172 69.9971C58.1172 70.1156 58.0898 70.2249 58.0352 70.3252C57.985 70.4209 57.9076 70.5098 57.8027 70.5918C57.6751 70.6921 57.5042 70.7718 57.29 70.8311C57.0804 70.8903 56.8343 70.9199 56.5518 70.9199C56.3421 70.9199 56.1348 70.8994 55.9297 70.8584C55.7246 70.8128 55.5423 70.7399 55.3828 70.6396C55.2188 70.5439 55.082 70.4186 54.9727 70.2637C54.8678 70.1042 54.8086 69.9105 54.7949 69.6826H53.209C53.209 69.988 53.2819 70.2887 53.4277 70.585C53.5736 70.8812 53.7878 71.1432 54.0703 71.3711C54.3483 71.6035 54.6924 71.7904 55.1025 71.9316C55.5173 72.0729 55.9912 72.1436 56.5244 72.1436C57.0029 72.1436 57.4382 72.0889 57.8301 71.9795C58.222 71.8701 58.5592 71.7174 58.8418 71.5215C59.1198 71.3255 59.334 71.0908 59.4844 70.8174C59.6393 70.5439 59.7168 70.2432 59.7168 69.915C59.7168 69.5778 59.6439 69.2861 59.498 69.04C59.3522 68.7939 59.1471 68.5798 58.8828 68.3975C58.6185 68.2243 58.2995 68.0785 57.9258 67.96C57.5521 67.8415 57.1396 67.7412 56.6885 67.6592C56.3649 67.6045 56.096 67.543 55.8818 67.4746C55.6722 67.4062 55.5081 67.3311 55.3896 67.249C55.262 67.1715 55.1732 67.0827 55.123 66.9824C55.0729 66.8776 55.0479 66.7614 55.0479 66.6338C55.0479 66.5107 55.0775 66.3945 55.1367 66.2852C55.196 66.1712 55.2848 66.0732 55.4033 65.9912C55.5218 65.9001 55.6722 65.8294 55.8545 65.7793C56.0413 65.7246 56.2578 65.6973 56.5039 65.6973C56.7728 65.6973 57.0075 65.7337 57.208 65.8066C57.4085 65.875 57.5726 65.9684 57.7002 66.0869C57.8096 66.1872 57.8916 66.3011 57.9463 66.4287C58.0055 66.5518 58.0352 66.6816 58.0352 66.8184H59.6689C59.6689 66.4857 59.596 66.1758 59.4502 65.8887C59.3044 65.6016 59.097 65.3532 58.8281 65.1436C58.5547 64.9339 58.222 64.7699 57.8301 64.6514C57.4382 64.5283 56.9961 64.4668 56.5039 64.4668C56.0436 64.4668 55.6243 64.526 55.2461 64.6445C54.8724 64.763 54.5534 64.9248 54.2891 65.1299C54.0202 65.335 53.8128 65.5742 53.667 65.8477C53.5257 66.1165 53.4551 66.4014 53.4551 66.7021C53.4551 67.0166 53.5257 67.2923 53.667 67.5293C53.8083 67.7663 54.0042 67.9714 54.2549 68.1445C54.5101 68.3268 54.8132 68.4818 55.1641 68.6094C55.5195 68.737 55.9115 68.8441 56.3398 68.9307C56.6816 68.9945 56.9665 69.0628 57.1943 69.1357C57.4222 69.2087 57.6068 69.2861 57.748 69.3682C57.8802 69.4593 57.9736 69.555 58.0283 69.6553C58.0876 69.7555 58.1172 69.8695 58.1172 69.9971ZM64.9736 62.7988H63.333V64.6035H61.542V65.8271H63.333V69.4639C63.333 69.9378 63.3945 70.3434 63.5176 70.6807C63.6452 71.0179 63.8206 71.2936 64.0439 71.5078C64.2673 71.7266 64.5339 71.8883 64.8438 71.9932C65.1582 72.0934 65.5023 72.1436 65.876 72.1436C66.0811 72.1436 66.2861 72.1322 66.4912 72.1094C66.7008 72.0911 66.9014 72.0638 67.0928 72.0273C67.2842 71.9909 67.4619 71.9476 67.626 71.8975C67.7946 71.8428 67.9382 71.779 68.0566 71.7061L67.8789 70.5781C67.7969 70.5964 67.6943 70.6191 67.5713 70.6465C67.4528 70.6693 67.3252 70.6898 67.1885 70.708C67.0472 70.7308 66.9014 70.749 66.751 70.7627C66.6006 70.7764 66.4548 70.7832 66.3135 70.7832C66.1175 70.7832 65.9375 70.7604 65.7734 70.7148C65.6094 70.6693 65.4681 70.5918 65.3496 70.4824C65.2311 70.3776 65.1377 70.234 65.0693 70.0518C65.0055 69.8649 64.9736 69.6348 64.9736 69.3613V65.8271H67.7559V64.6035H64.9736V62.7988ZM142.09 72H143.758V71.8838C143.667 71.6924 143.596 71.4645 143.546 71.2002C143.5 70.9313 143.478 70.6305 143.478 70.2979V67.0098C143.478 66.5905 143.4 66.2214 143.245 65.9023C143.09 65.5788 142.876 65.3122 142.603 65.1025C142.329 64.8929 142.003 64.7357 141.625 64.6309C141.251 64.5215 140.848 64.4668 140.415 64.4668C139.932 64.4668 139.501 64.5306 139.123 64.6582C138.749 64.7812 138.435 64.9499 138.18 65.1641C137.915 65.3737 137.715 65.6152 137.578 65.8887C137.441 66.1621 137.371 66.4469 137.366 66.7432H139.007C139.007 66.6019 139.032 66.4697 139.082 66.3467C139.137 66.2191 139.219 66.112 139.328 66.0254C139.438 65.9297 139.574 65.8545 139.738 65.7998C139.907 65.7451 140.103 65.7178 140.326 65.7178C140.572 65.7178 140.789 65.7497 140.976 65.8135C141.167 65.8727 141.329 65.9593 141.461 66.0732C141.584 66.1872 141.677 66.3216 141.741 66.4766C141.81 66.6315 141.844 66.8047 141.844 66.9961V67.4951H140.654C140.121 67.4951 139.643 67.5452 139.219 67.6455C138.799 67.7458 138.446 67.8916 138.159 68.083C137.849 68.2881 137.612 68.5479 137.448 68.8623C137.289 69.1722 137.209 69.5299 137.209 69.9355C137.209 70.25 137.271 70.5439 137.394 70.8174C137.521 71.0863 137.699 71.3164 137.927 71.5078C138.15 71.7038 138.419 71.8587 138.733 71.9727C139.052 72.082 139.403 72.1367 139.786 72.1367C140.023 72.1367 140.244 72.1139 140.449 72.0684C140.654 72.0228 140.846 71.959 141.023 71.877C141.201 71.7995 141.361 71.7083 141.502 71.6035C141.648 71.4941 141.778 71.3802 141.892 71.2617C141.914 71.403 141.939 71.5397 141.967 71.6719C141.999 71.7995 142.04 71.9089 142.09 72ZM140.101 70.8242C139.891 70.8242 139.709 70.7992 139.554 70.749C139.399 70.6943 139.269 70.6214 139.164 70.5303C139.059 70.4391 138.979 70.3298 138.925 70.2021C138.87 70.07 138.843 69.9287 138.843 69.7783C138.843 69.596 138.875 69.432 138.938 69.2861C139.007 69.1403 139.109 69.015 139.246 68.9102C139.401 68.7871 139.608 68.6937 139.868 68.6299C140.128 68.5615 140.436 68.5273 140.791 68.5273H141.844V69.8945C141.785 70.013 141.7 70.127 141.591 70.2363C141.481 70.3457 141.352 70.4437 141.201 70.5303C141.051 70.6169 140.882 70.6875 140.695 70.7422C140.513 70.7969 140.315 70.8242 140.101 70.8242ZM146.39 72H147.777L148.714 67.8027L148.878 66.8867L149.049 67.8027L150.006 72H151.394L152.822 64.6035H151.339L150.676 69.1152L150.546 70.0176L150.389 69.1221L149.425 64.6035H148.352L147.388 69.1357L147.237 69.9902L147.121 69.1357L146.438 64.6035H144.961L146.39 72ZM158.906 72H160.574V71.8838C160.483 71.6924 160.412 71.4645 160.362 71.2002C160.317 70.9313 160.294 70.6305 160.294 70.2979V67.0098C160.294 66.5905 160.216 66.2214 160.062 65.9023C159.907 65.5788 159.692 65.3122 159.419 65.1025C159.146 64.8929 158.82 64.7357 158.441 64.6309C158.068 64.5215 157.664 64.4668 157.231 64.4668C156.748 64.4668 156.318 64.5306 155.939 64.6582C155.566 64.7812 155.251 64.9499 154.996 65.1641C154.732 65.3737 154.531 65.6152 154.395 65.8887C154.258 66.1621 154.187 66.4469 154.183 66.7432H155.823C155.823 66.6019 155.848 66.4697 155.898 66.3467C155.953 66.2191 156.035 66.112 156.145 66.0254C156.254 65.9297 156.391 65.8545 156.555 65.7998C156.723 65.7451 156.919 65.7178 157.143 65.7178C157.389 65.7178 157.605 65.7497 157.792 65.8135C157.983 65.8727 158.145 65.9593 158.277 66.0732C158.4 66.1872 158.494 66.3216 158.558 66.4766C158.626 66.6315 158.66 66.8047 158.66 66.9961V67.4951H157.471C156.938 67.4951 156.459 67.5452 156.035 67.6455C155.616 67.7458 155.263 67.8916 154.976 68.083C154.666 68.2881 154.429 68.5479 154.265 68.8623C154.105 69.1722 154.025 69.5299 154.025 69.9355C154.025 70.25 154.087 70.5439 154.21 70.8174C154.338 71.0863 154.515 71.3164 154.743 71.5078C154.966 71.7038 155.235 71.8587 155.55 71.9727C155.869 72.082 156.22 72.1367 156.603 72.1367C156.84 72.1367 157.061 72.1139 157.266 72.0684C157.471 72.0228 157.662 71.959 157.84 71.877C158.018 71.7995 158.177 71.7083 158.318 71.6035C158.464 71.4941 158.594 71.3802 158.708 71.2617C158.731 71.403 158.756 71.5397 158.783 71.6719C158.815 71.7995 158.856 71.9089 158.906 72ZM156.917 70.8242C156.707 70.8242 156.525 70.7992 156.37 70.749C156.215 70.6943 156.085 70.6214 155.98 70.5303C155.876 70.4391 155.796 70.3298 155.741 70.2021C155.687 70.07 155.659 69.9287 155.659 69.7783C155.659 69.596 155.691 69.432 155.755 69.2861C155.823 69.1403 155.926 69.015 156.062 68.9102C156.217 68.7871 156.425 68.6937 156.685 68.6299C156.944 68.5615 157.252 68.5273 157.607 68.5273H158.66V69.8945C158.601 70.013 158.517 70.127 158.407 70.2363C158.298 70.3457 158.168 70.4437 158.018 70.5303C157.867 70.6169 157.699 70.6875 157.512 70.7422C157.329 70.7969 157.131 70.8242 156.917 70.8242ZM162.967 64.6035V65.9639H165.243V70.6465H162.967V72H169.064V70.6465H166.891V64.6035H162.967ZM165.093 62.6895C165.093 62.8626 165.134 63.0153 165.216 63.1475C165.302 63.2751 165.428 63.3639 165.592 63.4141C165.751 63.4642 165.897 63.4756 166.029 63.4482C166.161 63.4209 166.275 63.3639 166.371 63.2773C166.562 63.2272 166.708 63.1292 166.809 62.9834C166.909 62.833 166.943 62.6576 166.911 62.457C166.888 62.2611 166.799 62.1016 166.645 61.9785C166.494 61.8509 166.296 61.7871 166.05 61.7871C165.904 61.7871 165.772 61.8099 165.653 61.8555C165.539 61.8965 165.441 61.9557 165.359 62.0332C165.273 62.1152 165.207 62.2132 165.161 62.3271C165.116 62.4365 165.093 62.5573 165.093 62.6895ZM174.28 62.7988H172.64V64.6035H170.849V65.8271H172.64V69.4639C172.64 69.9378 172.701 70.3434 172.824 70.6807C172.952 71.0179 173.127 71.2936 173.351 71.5078C173.574 71.7266 173.84 71.8883 174.15 71.9932C174.465 72.0934 174.809 72.1436 175.183 72.1436C175.388 72.1436 175.593 72.1322 175.798 72.1094C176.007 72.0911 176.208 72.0638 176.399 72.0273C176.591 71.9909 176.769 71.9476 176.933 71.8975C177.101 71.8428 177.245 71.779 177.363 71.7061L177.186 70.5781C177.104 70.5964 177.001 70.6191 176.878 70.6465C176.759 70.6693 176.632 70.6898 176.495 70.708C176.354 70.7308 176.208 70.749 176.058 70.7627C175.907 70.7764 175.761 70.7832 175.62 70.7832C175.424 70.7832 175.244 70.7604 175.08 70.7148C174.916 70.6693 174.775 70.5918 174.656 70.4824C174.538 70.3776 174.444 70.234 174.376 70.0518C174.312 69.8649 174.28 69.6348 174.28 69.3613V65.8271H177.062V64.6035H174.28V62.7988Z" fill="#C792EA"/>
<path d="M92.3926 34.4814L92.584 33.5244C92.3333 33.5244 92.1283 33.4561 91.9688 33.3193C91.8092 33.1872 91.6816 33.014 91.5859 32.7998C91.4902 32.5856 91.4242 32.3464 91.3877 32.082C91.3558 31.8177 91.3398 31.5557 91.3398 31.2959V30.1611C91.3353 29.6188 91.2031 29.1426 90.9434 28.7324C90.6882 28.3177 90.2848 28.0033 89.7334 27.7891C90.2803 27.5703 90.6836 27.2536 90.9434 26.8389C91.2077 26.4196 91.3398 25.9388 91.3398 25.3965V24.2617C91.3398 24.002 91.3467 23.7399 91.3604 23.4756C91.3786 23.2113 91.4287 22.972 91.5107 22.7578C91.5928 22.5436 91.7181 22.3704 91.8867 22.2383C92.0553 22.1016 92.2878 22.0332 92.584 22.0332L92.3926 21.083C91.9414 21.0876 91.554 21.1787 91.2305 21.3564C90.9115 21.5296 90.654 21.7552 90.458 22.0332C90.2301 22.3385 90.0638 22.6917 89.959 23.0928C89.8542 23.4938 89.8018 23.8835 89.8018 24.2617V25.3965C89.8018 26.0299 89.6536 26.4857 89.3574 26.7637C89.0658 27.0417 88.6169 27.1807 88.0107 27.1807V28.3906C88.6169 28.3906 89.0658 28.5296 89.3574 28.8076C89.6536 29.0856 89.8018 29.5368 89.8018 30.1611V31.2959C89.8018 31.6559 89.8519 32.0228 89.9521 32.3965C90.0524 32.7747 90.2096 33.1165 90.4238 33.4219C90.6335 33.7318 90.9023 33.9824 91.2305 34.1738C91.5586 34.3698 91.946 34.4723 92.3926 34.4814ZM138.549 33.5244L138.747 34.4814C139.194 34.4769 139.581 34.3766 139.909 34.1807C140.237 33.9847 140.506 33.7318 140.716 33.4219C140.921 33.1211 141.076 32.7816 141.181 32.4033C141.285 32.0251 141.338 31.6559 141.338 31.2959V30.1611C141.338 29.9059 141.363 29.6803 141.413 29.4844C141.463 29.2839 141.538 29.1152 141.639 28.9785C141.78 28.7734 141.974 28.6253 142.22 28.5342C142.466 28.4385 142.769 28.3906 143.129 28.3906V27.1807C142.773 27.1807 142.47 27.1351 142.22 27.0439C141.969 26.9482 141.775 26.8024 141.639 26.6064C141.534 26.4652 141.456 26.2943 141.406 26.0938C141.361 25.8932 141.338 25.6608 141.338 25.3965V24.2617C141.338 23.9017 141.29 23.5326 141.194 23.1543C141.103 22.7715 140.951 22.4274 140.736 22.1221C140.531 21.8122 140.265 21.5638 139.937 21.377C139.613 21.1855 139.216 21.0876 138.747 21.083L138.556 22.0332C138.852 22.0332 139.084 22.1016 139.253 22.2383C139.422 22.3704 139.547 22.5436 139.629 22.7578C139.706 22.972 139.754 23.2113 139.772 23.4756C139.795 23.7399 139.807 24.002 139.807 24.2617V25.3965C139.807 25.7292 139.852 26.0413 139.943 26.333C140.039 26.6201 140.185 26.8776 140.381 27.1055C140.504 27.2467 140.645 27.3766 140.805 27.4951C140.969 27.609 141.151 27.707 141.352 27.7891C141.124 27.8848 140.921 28.001 140.743 28.1377C140.57 28.2699 140.422 28.4202 140.299 28.5889C140.13 28.8031 140.005 29.0446 139.923 29.3135C139.845 29.5778 139.807 29.8604 139.807 30.1611V31.2959C139.807 31.5557 139.786 31.8177 139.745 32.082C139.709 32.3464 139.643 32.5856 139.547 32.7998C139.451 33.014 139.321 33.1872 139.157 33.3193C138.998 33.4561 138.795 33.5244 138.549 33.5244ZM215.077 71.0156C215.077 71.3301 215.18 71.5967 215.385 71.8154C215.594 72.0296 215.886 72.1367 216.26 72.1367C216.629 72.1367 216.918 72.0296 217.128 71.8154C217.342 71.6012 217.449 71.3346 217.449 71.0156C217.449 70.6966 217.344 70.4277 217.135 70.209C216.925 69.9857 216.633 69.874 216.26 69.874C215.877 69.874 215.583 69.9857 215.378 70.209C215.177 70.4323 215.077 70.7012 215.077 71.0156ZM257.118 71.0156C257.118 71.3301 257.221 71.5967 257.426 71.8154C257.635 72.0296 257.927 72.1367 258.301 72.1367C258.67 72.1367 258.959 72.0296 259.169 71.8154C259.383 71.6012 259.49 71.3346 259.49 71.0156C259.49 70.6966 259.385 70.4277 259.176 70.209C258.966 69.9857 258.674 69.874 258.301 69.874C257.918 69.874 257.624 69.9857 257.419 70.209C257.218 70.4323 257.118 70.7012 257.118 71.0156ZM323.68 67.9531V68.0693C323.68 68.721 323.73 69.3317 323.83 69.9014C323.93 70.4665 324.065 70.9906 324.233 71.4736C324.402 71.9613 324.598 72.4033 324.821 72.7998C325.049 73.2008 325.288 73.5563 325.539 73.8662C325.79 74.1761 326.045 74.4382 326.305 74.6523C326.564 74.8711 326.815 75.0397 327.057 75.1582L327.385 74.2422C327.202 74.1009 327.02 73.9255 326.838 73.7158C326.656 73.5062 326.48 73.2646 326.312 72.9912C326.152 72.7223 325.999 72.4124 325.854 72.0615C325.712 71.7106 325.587 71.3301 325.478 70.9199C325.391 70.5781 325.316 70.1634 325.252 69.6758C325.188 69.1836 325.156 68.6527 325.156 68.083V67.9395C325.156 67.3561 325.188 66.8138 325.252 66.3125C325.32 65.8112 325.411 65.3532 325.525 64.9385C325.648 64.4964 325.794 64.0885 325.963 63.7148C326.136 63.3411 326.321 63.0153 326.517 62.7373C326.658 62.5413 326.801 62.3659 326.947 62.2109C327.093 62.056 327.239 61.9238 327.385 61.8145L327.057 60.8643C326.815 60.9827 326.564 61.1514 326.305 61.3701C326.045 61.5843 325.792 61.8464 325.546 62.1562C325.295 62.4661 325.056 62.8216 324.828 63.2227C324.605 63.6237 324.407 64.0635 324.233 64.542C324.065 65.0296 323.93 65.5605 323.83 66.1348C323.73 66.7044 323.68 67.3105 323.68 67.9531ZM336.23 74.4814L336.422 73.5244C336.171 73.5244 335.966 73.4561 335.807 73.3193C335.647 73.1872 335.52 73.014 335.424 72.7998C335.328 72.5856 335.262 72.3464 335.226 72.082C335.194 71.8177 335.178 71.5557 335.178 71.2959V70.1611C335.173 69.6188 335.041 69.1426 334.781 68.7324C334.526 68.3177 334.123 68.0033 333.571 67.7891C334.118 67.5703 334.521 67.2536 334.781 66.8389C335.046 66.4196 335.178 65.9388 335.178 65.3965V64.2617C335.178 64.002 335.185 63.7399 335.198 63.4756C335.216 63.2113 335.267 62.972 335.349 62.7578C335.431 62.5436 335.556 62.3704 335.725 62.2383C335.893 62.1016 336.126 62.0332 336.422 62.0332L336.23 61.083C335.779 61.0876 335.392 61.1787 335.068 61.3564C334.749 61.5296 334.492 61.7552 334.296 62.0332C334.068 62.3385 333.902 62.6917 333.797 63.0928C333.692 63.4938 333.64 63.8835 333.64 64.2617V65.3965C333.64 66.0299 333.492 66.4857 333.195 66.7637C332.904 67.0417 332.455 67.1807 331.849 67.1807V68.3906C332.455 68.3906 332.904 68.5296 333.195 68.8076C333.492 69.0856 333.64 69.5368 333.64 70.1611V71.2959C333.64 71.6559 333.69 72.0228 333.79 72.3965C333.89 72.7747 334.048 73.1165 334.262 73.4219C334.471 73.7318 334.74 73.9824 335.068 74.1738C335.396 74.3698 335.784 74.4723 336.23 74.4814ZM97.5605 91.0156C97.5605 91.3301 97.6631 91.5967 97.8682 91.8154C98.0778 92.0296 98.3695 92.1367 98.7432 92.1367C99.1123 92.1367 99.4017 92.0296 99.6113 91.8154C99.8255 91.6012 99.9326 91.3346 99.9326 91.0156C99.9326 90.6966 99.8278 90.4277 99.6182 90.209C99.4085 89.9857 99.1169 89.874 98.7432 89.874C98.3604 89.874 98.0664 89.9857 97.8613 90.209C97.6608 90.4323 97.5605 90.7012 97.5605 91.0156ZM97.5605 85.2256C97.5605 85.54 97.6631 85.8066 97.8682 86.0254C98.0778 86.2396 98.3695 86.3467 98.7432 86.3467C99.1123 86.3467 99.4017 86.2396 99.6113 86.0254C99.8255 85.8112 99.9326 85.5446 99.9326 85.2256C99.9326 84.9066 99.8278 84.6377 99.6182 84.4189C99.4085 84.1956 99.1169 84.084 98.7432 84.084C98.3604 84.084 98.0664 84.1956 97.8613 84.4189C97.6608 84.6423 97.5605 84.9111 97.5605 85.2256ZM117.617 94.4814L117.809 93.5244C117.558 93.5244 117.353 93.4561 117.193 93.3193C117.034 93.1872 116.906 93.014 116.811 92.7998C116.715 92.5856 116.649 92.3464 116.612 92.082C116.58 91.8177 116.564 91.5557 116.564 91.2959V90.1611C116.56 89.6188 116.428 89.1426 116.168 88.7324C115.913 88.3177 115.509 88.0033 114.958 87.7891C115.505 87.5703 115.908 87.2536 116.168 86.8389C116.432 86.4196 116.564 85.9388 116.564 85.3965V84.2617C116.564 84.002 116.571 83.7399 116.585 83.4756C116.603 83.2113 116.653 82.972 116.735 82.7578C116.817 82.5436 116.943 82.3704 117.111 82.2383C117.28 82.1016 117.512 82.0332 117.809 82.0332L117.617 81.083C117.166 81.0876 116.779 81.1787 116.455 81.3564C116.136 81.5296 115.879 81.7552 115.683 82.0332C115.455 82.3385 115.288 82.6917 115.184 83.0928C115.079 83.4938 115.026 83.8835 115.026 84.2617V85.3965C115.026 86.0299 114.878 86.4857 114.582 86.7637C114.29 87.0417 113.841 87.1807 113.235 87.1807V88.3906C113.841 88.3906 114.29 88.5296 114.582 88.8076C114.878 89.0856 115.026 89.5368 115.026 90.1611V91.2959C115.026 91.6559 115.076 92.0228 115.177 92.3965C115.277 92.7747 115.434 93.1165 115.648 93.4219C115.858 93.7318 116.127 93.9824 116.455 94.1738C116.783 94.3698 117.171 94.4723 117.617 94.4814ZM156.418 91.0156C156.418 91.3301 156.521 91.5967 156.726 91.8154C156.935 92.0296 157.227 92.1367 157.601 92.1367C157.97 92.1367 158.259 92.0296 158.469 91.8154C158.683 91.6012 158.79 91.3346 158.79 91.0156C158.79 90.6966 158.685 90.4277 158.476 90.209C158.266 89.9857 157.974 89.874 157.601 89.874C157.218 89.874 156.924 89.9857 156.719 90.209C156.518 90.4323 156.418 90.7012 156.418 91.0156ZM156.418 85.2256C156.418 85.54 156.521 85.8066 156.726 86.0254C156.935 86.2396 157.227 86.3467 157.601 86.3467C157.97 86.3467 158.259 86.2396 158.469 86.0254C158.683 85.8112 158.79 85.5446 158.79 85.2256C158.79 84.9066 158.685 84.6377 158.476 84.4189C158.266 84.1956 157.974 84.084 157.601 84.084C157.218 84.084 156.924 84.1956 156.719 84.4189C156.518 84.6423 156.418 84.9111 156.418 85.2256ZM222.631 93.5244L222.829 94.4814C223.276 94.4769 223.663 94.3766 223.991 94.1807C224.319 93.9847 224.588 93.7318 224.798 93.4219C225.003 93.1211 225.158 92.7816 225.263 92.4033C225.368 92.0251 225.42 91.6559 225.42 91.2959V90.1611C225.42 89.9059 225.445 89.6803 225.495 89.4844C225.545 89.2839 225.62 89.1152 225.721 88.9785C225.862 88.7734 226.056 88.6253 226.302 88.5342C226.548 88.4385 226.851 88.3906 227.211 88.3906V87.1807C226.855 87.1807 226.552 87.1351 226.302 87.0439C226.051 86.9482 225.857 86.8024 225.721 86.6064C225.616 86.4652 225.538 86.2943 225.488 86.0938C225.443 85.8932 225.42 85.6608 225.42 85.3965V84.2617C225.42 83.9017 225.372 83.5326 225.276 83.1543C225.185 82.7715 225.033 82.4274 224.818 82.1221C224.613 81.8122 224.347 81.5638 224.019 81.377C223.695 81.1855 223.299 81.0876 222.829 81.083L222.638 82.0332C222.934 82.0332 223.166 82.1016 223.335 82.2383C223.504 82.3704 223.629 82.5436 223.711 82.7578C223.788 82.972 223.836 83.2113 223.854 83.4756C223.877 83.7399 223.889 84.002 223.889 84.2617V85.3965C223.889 85.7292 223.934 86.0413 224.025 86.333C224.121 86.6201 224.267 86.8776 224.463 87.1055C224.586 87.2467 224.727 87.3766 224.887 87.4951C225.051 87.609 225.233 87.707 225.434 87.7891C225.206 87.8848 225.003 88.001 224.825 88.1377C224.652 88.2699 224.504 88.4202 224.381 88.5889C224.212 88.8031 224.087 89.0446 224.005 89.3135C223.927 89.5778 223.889 89.8604 223.889 90.1611V91.2959C223.889 91.5557 223.868 91.8177 223.827 92.082C223.791 92.3464 223.725 92.5856 223.629 92.7998C223.533 93.014 223.403 93.1872 223.239 93.3193C223.08 93.4561 222.877 93.5244 222.631 93.5244ZM29.2422 113.524L29.4404 114.481C29.887 114.477 30.2744 114.377 30.6025 114.181C30.9307 113.985 31.1995 113.732 31.4092 113.422C31.6143 113.121 31.7692 112.782 31.874 112.403C31.9788 112.025 32.0312 111.656 32.0312 111.296V110.161C32.0312 109.906 32.0563 109.68 32.1064 109.484C32.1566 109.284 32.2318 109.115 32.332 108.979C32.4733 108.773 32.667 108.625 32.9131 108.534C33.1592 108.438 33.4622 108.391 33.8223 108.391V107.181C33.4668 107.181 33.1637 107.135 32.9131 107.044C32.6624 106.948 32.4688 106.802 32.332 106.606C32.2272 106.465 32.1497 106.294 32.0996 106.094C32.054 105.893 32.0312 105.661 32.0312 105.396V104.262C32.0312 103.902 31.9834 103.533 31.8877 103.154C31.7965 102.771 31.6439 102.427 31.4297 102.122C31.2246 101.812 30.958 101.564 30.6299 101.377C30.3063 101.186 29.9098 101.088 29.4404 101.083L29.249 102.033C29.5452 102.033 29.7777 102.102 29.9463 102.238C30.1149 102.37 30.2402 102.544 30.3223 102.758C30.3997 102.972 30.4476 103.211 30.4658 103.476C30.4886 103.74 30.5 104.002 30.5 104.262V105.396C30.5 105.729 30.5456 106.041 30.6367 106.333C30.7324 106.62 30.8783 106.878 31.0742 107.105C31.1973 107.247 31.3385 107.377 31.498 107.495C31.6621 107.609 31.8444 107.707 32.0449 107.789C31.8171 107.885 31.6143 108.001 31.4365 108.138C31.2633 108.27 31.1152 108.42 30.9922 108.589C30.8236 108.803 30.6982 109.045 30.6162 109.313C30.5387 109.578 30.5 109.86 30.5 110.161V111.296C30.5 111.556 30.4795 111.818 30.4385 112.082C30.402 112.346 30.3359 112.586 30.2402 112.8C30.1445 113.014 30.0146 113.187 29.8506 113.319C29.6911 113.456 29.4883 113.524 29.2422 113.524ZM41.3418 108.069V107.953C41.3418 107.301 41.2894 106.698 41.1846 106.142C41.0798 105.581 40.943 105.059 40.7744 104.576C40.6058 104.089 40.4076 103.646 40.1797 103.25C39.9518 102.849 39.708 102.489 39.4482 102.17C39.1976 101.86 38.9378 101.596 38.6689 101.377C38.4046 101.154 38.1494 100.983 37.9033 100.864L37.582 101.78C37.7233 101.89 37.8669 102.026 38.0127 102.19C38.1631 102.35 38.3066 102.532 38.4434 102.737C38.6393 103.024 38.8262 103.364 39.0039 103.756C39.1862 104.148 39.3411 104.59 39.4688 105.082C39.5645 105.46 39.6442 105.889 39.708 106.367C39.7718 106.846 39.8037 107.37 39.8037 107.939V108.083C39.8037 108.634 39.7741 109.147 39.7148 109.621C39.6602 110.095 39.5827 110.533 39.4824 110.934C39.3776 111.367 39.2477 111.761 39.0928 112.116C38.9424 112.476 38.7806 112.798 38.6074 113.08C38.4434 113.335 38.2747 113.561 38.1016 113.757C37.9284 113.953 37.7552 114.115 37.582 114.242L37.9033 115.158C38.1494 115.04 38.4046 114.871 38.6689 114.652C38.9333 114.434 39.193 114.165 39.4482 113.846C39.7035 113.536 39.945 113.18 40.1729 112.779C40.4007 112.378 40.6012 111.934 40.7744 111.446C40.9476 110.963 41.0843 110.439 41.1846 109.874C41.2894 109.309 41.3418 108.707 41.3418 108.069Z" fill="white"/>
<path d="M108.525 29.71L109.195 32H110.897L107.712 22.0469H106.256L103.016 32H104.725L105.401 29.71H108.525ZM105.818 28.3018L106.98 24.3643L108.122 28.3018H105.818ZM113.864 28.2061H115.553C116.054 28.2061 116.514 28.1331 116.934 27.9873C117.357 27.8415 117.722 27.6341 118.027 27.3652C118.333 27.1009 118.57 26.7842 118.738 26.415C118.907 26.0413 118.991 25.6243 118.991 25.1641C118.991 24.6855 118.907 24.2549 118.738 23.8721C118.57 23.4893 118.333 23.1634 118.027 22.8945C117.722 22.6257 117.357 22.4183 116.934 22.2725C116.514 22.1266 116.054 22.0514 115.553 22.0469H112.224V32H113.864V28.2061ZM113.864 26.8662V23.3867H115.553C115.831 23.3913 116.079 23.4368 116.298 23.5234C116.521 23.61 116.71 23.7331 116.865 23.8926C117.02 24.0521 117.136 24.2412 117.214 24.46C117.296 24.6742 117.337 24.9134 117.337 25.1777C117.337 25.4193 117.296 25.6426 117.214 25.8477C117.136 26.0527 117.02 26.2305 116.865 26.3809C116.71 26.5312 116.521 26.6497 116.298 26.7363C116.079 26.8184 115.831 26.8617 115.553 26.8662H113.864ZM120.755 22.0469V23.4072H122.833V30.6465H120.755V32H126.62V30.6465H124.494V23.4072H126.62V22.0469H120.755ZM83.3555 72H84.8389V64.6035H83.1982V69.8398C83.1344 69.9766 83.057 70.1019 82.9658 70.2158C82.8747 70.3252 82.7699 70.4209 82.6514 70.5029C82.5101 70.5941 82.346 70.667 82.1592 70.7217C81.9723 70.7718 81.7604 70.7969 81.5234 70.7969C81.2956 70.7969 81.0973 70.7673 80.9287 70.708C80.7601 70.6488 80.6211 70.5485 80.5117 70.4072C80.4023 70.2705 80.3226 70.0882 80.2725 69.8604C80.2223 69.6279 80.1973 69.3408 80.1973 68.999V64.6035H78.5635V68.9854C78.5635 69.5413 78.625 70.0199 78.748 70.4209C78.8711 70.8174 79.0443 71.1432 79.2676 71.3984C79.4954 71.6536 79.7666 71.8428 80.0811 71.9658C80.4001 72.0843 80.751 72.1436 81.1338 72.1436C81.5804 72.1436 81.9837 72.041 82.3438 71.8359C82.7038 71.6263 83.0091 71.3369 83.2598 70.9678L83.3555 72ZM91.75 69.9971C91.75 70.1156 91.7227 70.2249 91.668 70.3252C91.6178 70.4209 91.5404 70.5098 91.4355 70.5918C91.3079 70.6921 91.137 70.7718 90.9229 70.8311C90.7132 70.8903 90.4671 70.9199 90.1846 70.9199C89.9749 70.9199 89.7676 70.8994 89.5625 70.8584C89.3574 70.8128 89.1751 70.7399 89.0156 70.6396C88.8516 70.5439 88.7148 70.4186 88.6055 70.2637C88.5007 70.1042 88.4414 69.9105 88.4277 69.6826H86.8418C86.8418 69.988 86.9147 70.2887 87.0605 70.585C87.2064 70.8812 87.4206 71.1432 87.7031 71.3711C87.9811 71.6035 88.3252 71.7904 88.7354 71.9316C89.1501 72.0729 89.624 72.1436 90.1572 72.1436C90.6357 72.1436 91.071 72.0889 91.4629 71.9795C91.8548 71.8701 92.1921 71.7174 92.4746 71.5215C92.7526 71.3255 92.9668 71.0908 93.1172 70.8174C93.2721 70.5439 93.3496 70.2432 93.3496 69.915C93.3496 69.5778 93.2767 69.2861 93.1309 69.04C92.985 68.7939 92.7799 68.5798 92.5156 68.3975C92.2513 68.2243 91.9323 68.0785 91.5586 67.96C91.1849 67.8415 90.7725 67.7412 90.3213 67.6592C89.9977 67.6045 89.7288 67.543 89.5146 67.4746C89.305 67.4062 89.141 67.3311 89.0225 67.249C88.8949 67.1715 88.806 67.0827 88.7559 66.9824C88.7057 66.8776 88.6807 66.7614 88.6807 66.6338C88.6807 66.5107 88.7103 66.3945 88.7695 66.2852C88.8288 66.1712 88.9176 66.0732 89.0361 65.9912C89.1546 65.9001 89.305 65.8294 89.4873 65.7793C89.6742 65.7246 89.8906 65.6973 90.1367 65.6973C90.4056 65.6973 90.6403 65.7337 90.8408 65.8066C91.0413 65.875 91.2054 65.9684 91.333 66.0869C91.4424 66.1872 91.5244 66.3011 91.5791 66.4287C91.6383 66.5518 91.668 66.6816 91.668 66.8184H93.3018C93.3018 66.4857 93.2288 66.1758 93.083 65.8887C92.9372 65.6016 92.7298 65.3532 92.4609 65.1436C92.1875 64.9339 91.8548 64.7699 91.4629 64.6514C91.071 64.5283 90.6289 64.4668 90.1367 64.4668C89.6764 64.4668 89.2572 64.526 88.8789 64.6445C88.5052 64.763 88.1862 64.9248 87.9219 65.1299C87.653 65.335 87.4456 65.5742 87.2998 65.8477C87.1585 66.1165 87.0879 66.4014 87.0879 66.7021C87.0879 67.0166 87.1585 67.2923 87.2998 67.5293C87.4411 67.7663 87.637 67.9714 87.8877 68.1445C88.1429 68.3268 88.446 68.4818 88.7969 68.6094C89.1523 68.737 89.5443 68.8441 89.9727 68.9307C90.3145 68.9945 90.5993 69.0628 90.8271 69.1357C91.055 69.2087 91.2396 69.2861 91.3809 69.3682C91.513 69.4593 91.6064 69.555 91.6611 69.6553C91.7204 69.7555 91.75 69.8695 91.75 69.9971ZM98.7773 72.1367C99.4974 72.1367 100.11 71.9954 100.616 71.7129C101.127 71.4303 101.505 71.1113 101.751 70.7559L100.876 69.9082C100.648 70.1999 100.359 70.4255 100.008 70.585C99.6569 70.7399 99.2786 70.8174 98.873 70.8174C98.5768 70.8174 98.3034 70.7673 98.0527 70.667C97.8066 70.5667 97.5924 70.4255 97.4102 70.2432C97.2279 70.07 97.0843 69.874 96.9795 69.6553C96.8747 69.4365 96.7972 69.1654 96.7471 68.8418V68.8076H101.874V68.1035C101.874 67.5749 101.803 67.0872 101.662 66.6406C101.521 66.194 101.311 65.8089 101.033 65.4854C100.755 65.1663 100.411 64.918 100.001 64.7402C99.5908 64.5579 99.1191 64.4668 98.5859 64.4668C98.1074 64.4668 97.6562 64.5579 97.2324 64.7402C96.8132 64.918 96.444 65.1732 96.125 65.5059C95.806 65.8385 95.5553 66.2396 95.373 66.709C95.1908 67.1784 95.0996 67.7025 95.0996 68.2812V68.5615C95.0996 69.0674 95.1862 69.5391 95.3594 69.9766C95.5371 70.4095 95.7878 70.7855 96.1113 71.1045C96.4349 71.4281 96.8223 71.681 97.2734 71.8633C97.7292 72.0456 98.2305 72.1367 98.7773 72.1367ZM98.5791 65.793C98.8525 65.793 99.0918 65.8408 99.2969 65.9365C99.5065 66.0277 99.6797 66.1507 99.8164 66.3057C99.9577 66.4652 100.067 66.652 100.145 66.8662C100.222 67.0758 100.261 67.2878 100.261 67.502V67.6113H96.7812C96.8314 67.3288 96.9089 67.0758 97.0137 66.8525C97.1185 66.6292 97.2484 66.4378 97.4033 66.2783C97.5583 66.1234 97.7337 66.0049 97.9297 65.9229C98.1302 65.8363 98.3467 65.793 98.5791 65.793ZM108.847 64.4668C108.336 64.4668 107.869 64.5853 107.445 64.8223C107.026 65.0592 106.666 65.3851 106.365 65.7998L106.358 65.6289L106.29 64.6035H104.759V72H106.393V67.4336C106.479 67.2148 106.586 67.0212 106.714 66.8525C106.841 66.6839 106.996 66.5449 107.179 66.4355C107.347 66.3216 107.541 66.2373 107.76 66.1826C107.979 66.1279 108.225 66.1006 108.498 66.1006C108.74 66.1006 108.981 66.1143 109.223 66.1416C109.469 66.1689 109.717 66.21 109.968 66.2646L110.2 64.6514C110.059 64.6012 109.863 64.5579 109.612 64.5215C109.366 64.485 109.111 64.4668 108.847 64.4668Z" fill="#F9C789"/>
<path d="M198.548 22.2383V21.5H197.297V22.3066V24.9658H198.37L198.548 22.2383ZM201.2 22.2383V21.5H199.956V22.293V24.9658H201.029L201.2 22.2383ZM206.669 31.0156C206.669 31.3301 206.771 31.5967 206.977 31.8154C207.186 32.0296 207.478 32.1367 207.852 32.1367C208.221 32.1367 208.51 32.0296 208.72 31.8154C208.934 31.6012 209.041 31.3346 209.041 31.0156C209.041 30.6966 208.936 30.4277 208.727 30.209C208.517 29.9857 208.225 29.874 207.852 29.874C207.469 29.874 207.175 29.9857 206.97 30.209C206.769 30.4323 206.669 30.7012 206.669 31.0156ZM215.077 32.8545L218.98 22.0469H217.483L213.573 32.8545H215.077ZM226.281 29.9971C226.281 30.1156 226.254 30.2249 226.199 30.3252C226.149 30.4209 226.072 30.5098 225.967 30.5918C225.839 30.6921 225.668 30.7718 225.454 30.8311C225.244 30.8903 224.998 30.9199 224.716 30.9199C224.506 30.9199 224.299 30.8994 224.094 30.8584C223.889 30.8128 223.706 30.7399 223.547 30.6396C223.383 30.5439 223.246 30.4186 223.137 30.2637C223.032 30.1042 222.973 29.9105 222.959 29.6826H221.373C221.373 29.988 221.446 30.2887 221.592 30.585C221.738 30.8812 221.952 31.1432 222.234 31.3711C222.512 31.6035 222.856 31.7904 223.267 31.9316C223.681 32.0729 224.155 32.1436 224.688 32.1436C225.167 32.1436 225.602 32.0889 225.994 31.9795C226.386 31.8701 226.723 31.7174 227.006 31.5215C227.284 31.3255 227.498 31.0908 227.648 30.8174C227.803 30.5439 227.881 30.2432 227.881 29.915C227.881 29.5778 227.808 29.2861 227.662 29.04C227.516 28.7939 227.311 28.5798 227.047 28.3975C226.783 28.2243 226.464 28.0785 226.09 27.96C225.716 27.8415 225.304 27.7412 224.853 27.6592C224.529 27.6045 224.26 27.543 224.046 27.4746C223.836 27.4062 223.672 27.3311 223.554 27.249C223.426 27.1715 223.337 27.0827 223.287 26.9824C223.237 26.8776 223.212 26.7614 223.212 26.6338C223.212 26.5107 223.242 26.3945 223.301 26.2852C223.36 26.1712 223.449 26.0732 223.567 25.9912C223.686 25.9001 223.836 25.8294 224.019 25.7793C224.205 25.7246 224.422 25.6973 224.668 25.6973C224.937 25.6973 225.172 25.7337 225.372 25.8066C225.573 25.875 225.737 25.9684 225.864 26.0869C225.974 26.1872 226.056 26.3011 226.11 26.4287C226.17 26.5518 226.199 26.6816 226.199 26.8184H227.833C227.833 26.4857 227.76 26.1758 227.614 25.8887C227.468 25.6016 227.261 25.3532 226.992 25.1436C226.719 24.9339 226.386 24.7699 225.994 24.6514C225.602 24.5283 225.16 24.4668 224.668 24.4668C224.208 24.4668 223.788 24.526 223.41 24.6445C223.036 24.763 222.717 24.9248 222.453 25.1299C222.184 25.335 221.977 25.5742 221.831 25.8477C221.69 26.1165 221.619 26.4014 221.619 26.7021C221.619 27.0166 221.69 27.2923 221.831 27.5293C221.972 27.7663 222.168 27.9714 222.419 28.1445C222.674 28.3268 222.977 28.4818 223.328 28.6094C223.684 28.737 224.076 28.8441 224.504 28.9307C224.846 28.9945 225.131 29.0628 225.358 29.1357C225.586 29.2087 225.771 29.2861 225.912 29.3682C226.044 29.4593 226.138 29.555 226.192 29.6553C226.252 29.7555 226.281 29.8695 226.281 29.9971ZM229.638 28.2471V28.3906C229.638 28.9238 229.706 29.4206 229.843 29.8809C229.979 30.3366 230.173 30.7308 230.424 31.0635C230.674 31.4007 230.98 31.665 231.34 31.8564C231.7 32.0433 232.105 32.1367 232.557 32.1367C232.985 32.1367 233.363 32.0592 233.691 31.9043C234.02 31.7448 234.302 31.5192 234.539 31.2275L234.614 32H236.098V21.5H234.464V25.2939C234.227 25.0296 233.953 24.8268 233.644 24.6855C233.338 24.5397 232.98 24.4668 232.57 24.4668C232.115 24.4668 231.704 24.5602 231.34 24.7471C230.98 24.9294 230.674 25.1868 230.424 25.5195C230.169 25.8522 229.973 26.251 229.836 26.7158C229.704 27.1761 229.638 27.6865 229.638 28.2471ZM231.271 28.3906V28.2471C231.271 27.9144 231.303 27.6022 231.367 27.3105C231.431 27.0143 231.534 26.7546 231.675 26.5312C231.807 26.3079 231.98 26.1325 232.194 26.0049C232.413 25.8773 232.675 25.8135 232.98 25.8135C233.345 25.8135 233.646 25.8955 233.883 26.0596C234.124 26.2191 234.318 26.4355 234.464 26.709V29.8877C234.318 30.1657 234.124 30.3867 233.883 30.5508C233.641 30.7103 233.336 30.79 232.967 30.79C232.666 30.79 232.409 30.7285 232.194 30.6055C231.98 30.4779 231.805 30.3024 231.668 30.0791C231.531 29.8649 231.431 29.612 231.367 29.3203C231.303 29.0286 231.271 28.7188 231.271 28.3906ZM240.808 28.7803L243.166 32H245.189L241.895 27.6865L244.772 24.6035H242.804L240.596 26.9277L239.919 27.6797V21.5H238.278V32H239.919V29.6211L240.808 28.7803ZM248.997 22.2383V21.5H247.746V22.3066V24.9658H248.819L248.997 22.2383ZM251.649 22.2383V21.5H250.405V22.293V24.9658H251.479L251.649 22.2383ZM173.323 82.2383V81.5H172.072V82.3066V84.9658H173.146L173.323 82.2383ZM175.976 82.2383V81.5H174.731V82.293V84.9658H175.805L175.976 82.2383ZM179.291 92H181.807C182.262 92 182.688 91.9453 183.085 91.8359C183.486 91.7266 183.851 91.5693 184.179 91.3643C184.47 91.1774 184.735 90.9518 184.972 90.6875C185.213 90.4232 185.418 90.1292 185.587 89.8057C185.76 89.473 185.892 89.1061 185.983 88.7051C186.079 88.2995 186.127 87.8711 186.127 87.4199V86.6406C186.127 86.1712 186.077 85.7292 185.977 85.3145C185.876 84.8997 185.735 84.5192 185.553 84.1729C185.375 83.8402 185.154 83.5394 184.89 83.2705C184.63 83.0016 184.331 82.7783 183.994 82.6006C183.684 82.4274 183.34 82.293 182.962 82.1973C182.584 82.097 182.18 82.0469 181.752 82.0469H179.291V92ZM180.952 83.3867H181.752C182.016 83.3913 182.262 83.4232 182.49 83.4824C182.718 83.5371 182.923 83.6169 183.105 83.7217C183.356 83.863 183.573 84.0475 183.755 84.2754C183.937 84.4987 184.083 84.7493 184.192 85.0273C184.279 85.2552 184.345 85.5036 184.391 85.7725C184.436 86.0413 184.459 86.3262 184.459 86.627V87.4199C184.459 87.7253 184.436 88.0124 184.391 88.2812C184.345 88.5501 184.279 88.7985 184.192 89.0264C184.092 89.2952 183.962 89.5345 183.803 89.7441C183.648 89.9492 183.47 90.1201 183.27 90.2568C183.074 90.389 182.853 90.4915 182.606 90.5645C182.365 90.6328 182.098 90.667 181.807 90.667H180.952V83.3867ZM192.539 92H194.207V91.8838C194.116 91.6924 194.045 91.4645 193.995 91.2002C193.95 90.9313 193.927 90.6305 193.927 90.2979V87.0098C193.927 86.5905 193.849 86.2214 193.694 85.9023C193.539 85.5788 193.325 85.3122 193.052 85.1025C192.778 84.8929 192.452 84.7357 192.074 84.6309C191.701 84.5215 191.297 84.4668 190.864 84.4668C190.381 84.4668 189.951 84.5306 189.572 84.6582C189.199 84.7812 188.884 84.9499 188.629 85.1641C188.365 85.3737 188.164 85.6152 188.027 85.8887C187.891 86.1621 187.82 86.4469 187.815 86.7432H189.456C189.456 86.6019 189.481 86.4697 189.531 86.3467C189.586 86.2191 189.668 86.112 189.777 86.0254C189.887 85.9297 190.023 85.8545 190.188 85.7998C190.356 85.7451 190.552 85.7178 190.775 85.7178C191.021 85.7178 191.238 85.7497 191.425 85.8135C191.616 85.8727 191.778 85.9593 191.91 86.0732C192.033 86.1872 192.127 86.3216 192.19 86.4766C192.259 86.6315 192.293 86.8047 192.293 86.9961V87.4951H191.104C190.57 87.4951 190.092 87.5452 189.668 87.6455C189.249 87.7458 188.896 87.8916 188.608 88.083C188.299 88.2881 188.062 88.5479 187.897 88.8623C187.738 89.1722 187.658 89.5299 187.658 89.9355C187.658 90.25 187.72 90.5439 187.843 90.8174C187.97 91.0863 188.148 91.3164 188.376 91.5078C188.599 91.7038 188.868 91.8587 189.183 91.9727C189.502 92.082 189.853 92.1367 190.235 92.1367C190.472 92.1367 190.693 92.1139 190.898 92.0684C191.104 92.0228 191.295 91.959 191.473 91.877C191.65 91.7995 191.81 91.7083 191.951 91.6035C192.097 91.4941 192.227 91.3802 192.341 91.2617C192.364 91.403 192.389 91.5397 192.416 91.6719C192.448 91.7995 192.489 91.9089 192.539 92ZM190.55 90.8242C190.34 90.8242 190.158 90.7992 190.003 90.749C189.848 90.6943 189.718 90.6214 189.613 90.5303C189.508 90.4391 189.429 90.3298 189.374 90.2021C189.319 90.07 189.292 89.9287 189.292 89.7783C189.292 89.596 189.324 89.432 189.388 89.2861C189.456 89.1403 189.559 89.015 189.695 88.9102C189.85 88.7871 190.058 88.6937 190.317 88.6299C190.577 88.5615 190.885 88.5273 191.24 88.5273H192.293V89.8945C192.234 90.013 192.149 90.127 192.04 90.2363C191.931 90.3457 191.801 90.4437 191.65 90.5303C191.5 90.6169 191.331 90.6875 191.145 90.7422C190.962 90.7969 190.764 90.8242 190.55 90.8242ZM198.644 92H200.086L202.984 84.6035H201.289L199.478 89.9697L199.368 90.4619L199.259 89.9697L197.427 84.6035H195.731L198.644 92ZM208.084 92.1367C208.804 92.1367 209.417 91.9954 209.923 91.7129C210.433 91.4303 210.812 91.1113 211.058 90.7559L210.183 89.9082C209.955 90.1999 209.665 90.4255 209.314 90.585C208.964 90.7399 208.585 90.8174 208.18 90.8174C207.883 90.8174 207.61 90.7673 207.359 90.667C207.113 90.5667 206.899 90.4255 206.717 90.2432C206.535 90.07 206.391 89.874 206.286 89.6553C206.181 89.4365 206.104 89.1654 206.054 88.8418V88.8076H211.181V88.1035C211.181 87.5749 211.11 87.0872 210.969 86.6406C210.827 86.194 210.618 85.8089 210.34 85.4854C210.062 85.1663 209.718 84.918 209.308 84.7402C208.897 84.5579 208.426 84.4668 207.893 84.4668C207.414 84.4668 206.963 84.5579 206.539 84.7402C206.12 84.918 205.751 85.1732 205.432 85.5059C205.113 85.8385 204.862 86.2396 204.68 86.709C204.497 87.1784 204.406 87.7025 204.406 88.2812V88.5615C204.406 89.0674 204.493 89.5391 204.666 89.9766C204.844 90.4095 205.094 90.7855 205.418 91.1045C205.742 91.4281 206.129 91.681 206.58 91.8633C207.036 92.0456 207.537 92.1367 208.084 92.1367ZM207.886 85.793C208.159 85.793 208.398 85.8408 208.604 85.9365C208.813 86.0277 208.986 86.1507 209.123 86.3057C209.264 86.4652 209.374 86.652 209.451 86.8662C209.529 87.0758 209.567 87.2878 209.567 87.502V87.6113H206.088C206.138 87.3288 206.215 87.0758 206.32 86.8525C206.425 86.6292 206.555 86.4378 206.71 86.2783C206.865 86.1234 207.04 86.0049 207.236 85.9229C207.437 85.8363 207.653 85.793 207.886 85.793ZM215.364 82.2383V81.5H214.113V82.3066V84.9658H215.187L215.364 82.2383ZM218.017 82.2383V81.5H216.772V82.293V84.9658H217.846L218.017 82.2383Z" fill="#ECC48D"/>
<path d="M126.928 66.9209V65.5537H120.611V66.9209H126.928ZM126.928 69.8193V68.459H120.611V69.8193H126.928Z" fill="#72C7BA"/>
<path d="M192.607 69.71L193.277 72H194.979L191.794 62.0469H190.338L187.098 72H188.807L189.483 69.71H192.607ZM189.9 68.3018L191.062 64.3643L192.204 68.3018H189.9ZM197.946 68.2061H199.635C200.136 68.2061 200.596 68.1331 201.016 67.9873C201.439 67.8415 201.804 67.6341 202.109 67.3652C202.415 67.1009 202.652 66.7842 202.82 66.415C202.989 66.0413 203.073 65.6243 203.073 65.1641C203.073 64.6855 202.989 64.2549 202.82 63.8721C202.652 63.4893 202.415 63.1634 202.109 62.8945C201.804 62.6257 201.439 62.4183 201.016 62.2725C200.596 62.1266 200.136 62.0514 199.635 62.0469H196.306V72H197.946V68.2061ZM197.946 66.8662V63.3867H199.635C199.913 63.3913 200.161 63.4368 200.38 63.5234C200.603 63.61 200.792 63.7331 200.947 63.8926C201.102 64.0521 201.218 64.2412 201.296 64.46C201.378 64.6742 201.419 64.9134 201.419 65.1777C201.419 65.4193 201.378 65.6426 201.296 65.8477C201.218 66.0527 201.102 66.2305 200.947 66.3809C200.792 66.5312 200.603 66.6497 200.38 66.7363C200.161 66.8184 199.913 66.8617 199.635 66.8662H197.946ZM204.837 62.0469V63.4072H206.915V70.6465H204.837V72H210.702V70.6465H208.576V63.4072H210.702V62.0469H204.837Z" fill="#7DD8C7"/>
<path d="M226.295 72H227.778V64.6035H226.138V69.8398C226.074 69.9766 225.996 70.1019 225.905 70.2158C225.814 70.3252 225.709 70.4209 225.591 70.5029C225.45 70.5941 225.285 70.667 225.099 70.7217C224.912 70.7718 224.7 70.7969 224.463 70.7969C224.235 70.7969 224.037 70.7673 223.868 70.708C223.7 70.6488 223.561 70.5485 223.451 70.4072C223.342 70.2705 223.262 70.0882 223.212 69.8604C223.162 69.6279 223.137 69.3408 223.137 68.999V64.6035H221.503V68.9854C221.503 69.5413 221.564 70.0199 221.688 70.4209C221.811 70.8174 221.984 71.1432 222.207 71.3984C222.435 71.6536 222.706 71.8428 223.021 71.9658C223.34 72.0843 223.69 72.1436 224.073 72.1436C224.52 72.1436 224.923 72.041 225.283 71.8359C225.643 71.6263 225.949 71.3369 226.199 70.9678L226.295 72ZM234.689 69.9971C234.689 70.1156 234.662 70.2249 234.607 70.3252C234.557 70.4209 234.48 70.5098 234.375 70.5918C234.247 70.6921 234.076 70.7718 233.862 70.8311C233.653 70.8903 233.407 70.9199 233.124 70.9199C232.914 70.9199 232.707 70.8994 232.502 70.8584C232.297 70.8128 232.115 70.7399 231.955 70.6396C231.791 70.5439 231.654 70.4186 231.545 70.2637C231.44 70.1042 231.381 69.9105 231.367 69.6826H229.781C229.781 69.988 229.854 70.2887 230 70.585C230.146 70.8812 230.36 71.1432 230.643 71.3711C230.921 71.6035 231.265 71.7904 231.675 71.9316C232.09 72.0729 232.563 72.1436 233.097 72.1436C233.575 72.1436 234.01 72.0889 234.402 71.9795C234.794 71.8701 235.132 71.7174 235.414 71.5215C235.692 71.3255 235.906 71.0908 236.057 70.8174C236.212 70.5439 236.289 70.2432 236.289 69.915C236.289 69.5778 236.216 69.2861 236.07 69.04C235.924 68.7939 235.719 68.5798 235.455 68.3975C235.191 68.2243 234.872 68.0785 234.498 67.96C234.124 67.8415 233.712 67.7412 233.261 67.6592C232.937 67.6045 232.668 67.543 232.454 67.4746C232.244 67.4062 232.08 67.3311 231.962 67.249C231.834 67.1715 231.745 67.0827 231.695 66.9824C231.645 66.8776 231.62 66.7614 231.62 66.6338C231.62 66.5107 231.65 66.3945 231.709 66.2852C231.768 66.1712 231.857 66.0732 231.976 65.9912C232.094 65.9001 232.244 65.8294 232.427 65.7793C232.614 65.7246 232.83 65.6973 233.076 65.6973C233.345 65.6973 233.58 65.7337 233.78 65.8066C233.981 65.875 234.145 65.9684 234.272 66.0869C234.382 66.1872 234.464 66.3011 234.519 66.4287C234.578 66.5518 234.607 66.6816 234.607 66.8184H236.241C236.241 66.4857 236.168 66.1758 236.022 65.8887C235.877 65.6016 235.669 65.3532 235.4 65.1436C235.127 64.9339 234.794 64.7699 234.402 64.6514C234.01 64.5283 233.568 64.4668 233.076 64.4668C232.616 64.4668 232.197 64.526 231.818 64.6445C231.445 64.763 231.126 64.9248 230.861 65.1299C230.592 65.335 230.385 65.5742 230.239 65.8477C230.098 66.1165 230.027 66.4014 230.027 66.7021C230.027 67.0166 230.098 67.2923 230.239 67.5293C230.381 67.7663 230.576 67.9714 230.827 68.1445C231.082 68.3268 231.385 68.4818 231.736 68.6094C232.092 68.737 232.484 68.8441 232.912 68.9307C233.254 68.9945 233.539 69.0628 233.767 69.1357C233.994 69.2087 234.179 69.2861 234.32 69.3682C234.452 69.4593 234.546 69.555 234.601 69.6553C234.66 69.7555 234.689 69.8695 234.689 69.9971ZM241.717 72.1367C242.437 72.1367 243.05 71.9954 243.556 71.7129C244.066 71.4303 244.444 71.1113 244.69 70.7559L243.815 69.9082C243.588 70.1999 243.298 70.4255 242.947 70.585C242.596 70.7399 242.218 70.8174 241.812 70.8174C241.516 70.8174 241.243 70.7673 240.992 70.667C240.746 70.5667 240.532 70.4255 240.35 70.2432C240.167 70.07 240.024 69.874 239.919 69.6553C239.814 69.4365 239.737 69.1654 239.687 68.8418V68.8076H244.813V68.1035C244.813 67.5749 244.743 67.0872 244.602 66.6406C244.46 66.194 244.251 65.8089 243.973 65.4854C243.695 65.1663 243.351 64.918 242.94 64.7402C242.53 64.5579 242.059 64.4668 241.525 64.4668C241.047 64.4668 240.596 64.5579 240.172 64.7402C239.753 64.918 239.383 65.1732 239.064 65.5059C238.745 65.8385 238.495 66.2396 238.312 66.709C238.13 67.1784 238.039 67.7025 238.039 68.2812V68.5615C238.039 69.0674 238.126 69.5391 238.299 69.9766C238.477 70.4095 238.727 70.7855 239.051 71.1045C239.374 71.4281 239.762 71.681 240.213 71.8633C240.669 72.0456 241.17 72.1367 241.717 72.1367ZM241.519 65.793C241.792 65.793 242.031 65.8408 242.236 65.9365C242.446 66.0277 242.619 66.1507 242.756 66.3057C242.897 66.4652 243.007 66.652 243.084 66.8662C243.161 67.0758 243.2 67.2878 243.2 67.502V67.6113H239.721C239.771 67.3288 239.848 67.0758 239.953 66.8525C240.058 66.6292 240.188 66.4378 240.343 66.2783C240.498 66.1234 240.673 66.0049 240.869 65.9229C241.07 65.8363 241.286 65.793 241.519 65.793ZM251.786 64.4668C251.276 64.4668 250.809 64.5853 250.385 64.8223C249.965 65.0592 249.605 65.3851 249.305 65.7998L249.298 65.6289L249.229 64.6035H247.698V72H249.332V67.4336C249.419 67.2148 249.526 67.0212 249.653 66.8525C249.781 66.6839 249.936 66.5449 250.118 66.4355C250.287 66.3216 250.48 66.2373 250.699 66.1826C250.918 66.1279 251.164 66.1006 251.438 66.1006C251.679 66.1006 251.921 66.1143 252.162 66.1416C252.408 66.1689 252.657 66.21 252.907 66.2646L253.14 64.6514C252.998 64.6012 252.802 64.5579 252.552 64.5215C252.306 64.485 252.05 64.4668 251.786 64.4668ZM263.277 68.2471V68.3906C263.277 68.9238 263.346 69.4206 263.482 69.8809C263.624 70.3366 263.822 70.7308 264.077 71.0635C264.337 71.4007 264.649 71.665 265.014 71.8564C265.378 72.0433 265.788 72.1367 266.244 72.1367C266.495 72.1367 266.727 72.1094 266.941 72.0547C267.156 72.0046 267.352 71.9294 267.529 71.8291C267.648 71.7653 267.757 71.6901 267.857 71.6035C267.962 71.5169 268.062 71.4235 268.158 71.3232V71.8359C268.158 72.1139 268.117 72.3623 268.035 72.5811C267.958 72.7998 267.846 72.9844 267.7 73.1348C267.541 73.2897 267.347 73.4082 267.119 73.4902C266.896 73.5723 266.638 73.6133 266.347 73.6133C266.178 73.6133 266.012 73.5951 265.848 73.5586C265.684 73.5267 265.522 73.4743 265.362 73.4014C265.203 73.3285 265.046 73.2327 264.891 73.1143C264.74 73.0003 264.599 72.8636 264.467 72.7041L263.694 73.6953C263.858 73.9141 264.054 74.1009 264.282 74.2559C264.51 74.4108 264.749 74.5361 265 74.6318C265.251 74.7275 265.501 74.7982 265.752 74.8438C266.003 74.8893 266.233 74.9121 266.442 74.9121C266.939 74.9121 267.393 74.8415 267.803 74.7002C268.217 74.5635 268.573 74.363 268.869 74.0986C269.161 73.8298 269.386 73.5016 269.546 73.1143C269.71 72.7314 269.792 72.2917 269.792 71.7949V64.6035H268.309L268.24 65.3486C268.149 65.2393 268.051 65.139 267.946 65.0479C267.841 64.9521 267.73 64.8701 267.611 64.8018C267.429 64.6924 267.226 64.6104 267.003 64.5557C266.78 64.4964 266.531 64.4668 266.258 64.4668C265.798 64.4668 265.383 64.5602 265.014 64.7471C264.649 64.9294 264.337 65.1868 264.077 65.5195C263.817 65.8522 263.619 66.251 263.482 66.7158C263.346 67.1761 263.277 67.6865 263.277 68.2471ZM264.918 68.3906V68.2471C264.918 67.9144 264.952 67.6022 265.021 67.3105C265.089 67.0143 265.196 66.7546 265.342 66.5312C265.483 66.3079 265.663 66.1325 265.882 66.0049C266.101 65.8773 266.363 65.8135 266.668 65.8135C266.841 65.8135 267.001 65.834 267.146 65.875C267.292 65.9115 267.424 65.9616 267.543 66.0254C267.675 66.1029 267.791 66.1963 267.892 66.3057C267.996 66.415 268.085 66.5381 268.158 66.6748V69.915C268.085 70.0472 268.001 70.168 267.905 70.2773C267.81 70.3867 267.7 70.4801 267.577 70.5576C267.454 70.6305 267.315 70.6875 267.16 70.7285C267.01 70.7695 266.841 70.79 266.654 70.79C266.354 70.79 266.094 70.7285 265.875 70.6055C265.656 70.4779 265.476 70.3024 265.335 70.0791C265.189 69.8649 265.082 69.612 265.014 69.3203C264.95 69.0286 264.918 68.7188 264.918 68.3906ZM275.35 72.1367C276.07 72.1367 276.683 71.9954 277.188 71.7129C277.699 71.4303 278.077 71.1113 278.323 70.7559L277.448 69.9082C277.22 70.1999 276.931 70.4255 276.58 70.585C276.229 70.7399 275.851 70.8174 275.445 70.8174C275.149 70.8174 274.876 70.7673 274.625 70.667C274.379 70.5667 274.165 70.4255 273.982 70.2432C273.8 70.07 273.657 69.874 273.552 69.6553C273.447 69.4365 273.369 69.1654 273.319 68.8418V68.8076H278.446V68.1035C278.446 67.5749 278.376 67.0872 278.234 66.6406C278.093 66.194 277.883 65.8089 277.605 65.4854C277.327 65.1663 276.983 64.918 276.573 64.7402C276.163 64.5579 275.691 64.4668 275.158 64.4668C274.68 64.4668 274.229 64.5579 273.805 64.7402C273.385 64.918 273.016 65.1732 272.697 65.5059C272.378 65.8385 272.128 66.2396 271.945 66.709C271.763 67.1784 271.672 67.7025 271.672 68.2812V68.5615C271.672 69.0674 271.758 69.5391 271.932 69.9766C272.109 70.4095 272.36 70.7855 272.684 71.1045C273.007 71.4281 273.395 71.681 273.846 71.8633C274.301 72.0456 274.803 72.1367 275.35 72.1367ZM275.151 65.793C275.425 65.793 275.664 65.8408 275.869 65.9365C276.079 66.0277 276.252 66.1507 276.389 66.3057C276.53 66.4652 276.639 66.652 276.717 66.8662C276.794 67.0758 276.833 67.2878 276.833 67.502V67.6113H273.354C273.404 67.3288 273.481 67.0758 273.586 66.8525C273.691 66.6292 273.821 66.4378 273.976 66.2783C274.131 66.1234 274.306 66.0049 274.502 65.9229C274.702 65.8363 274.919 65.793 275.151 65.793ZM283.587 62.7988H281.946V64.6035H280.155V65.8271H281.946V69.4639C281.946 69.9378 282.008 70.3434 282.131 70.6807C282.258 71.0179 282.434 71.2936 282.657 71.5078C282.881 71.7266 283.147 71.8883 283.457 71.9932C283.771 72.0934 284.116 72.1436 284.489 72.1436C284.694 72.1436 284.899 72.1322 285.104 72.1094C285.314 72.0911 285.515 72.0638 285.706 72.0273C285.897 71.9909 286.075 71.9476 286.239 71.8975C286.408 71.8428 286.551 71.779 286.67 71.7061L286.492 70.5781C286.41 70.5964 286.308 70.6191 286.185 70.6465C286.066 70.6693 285.938 70.6898 285.802 70.708C285.66 70.7308 285.515 70.749 285.364 70.7627C285.214 70.7764 285.068 70.7832 284.927 70.7832C284.731 70.7832 284.551 70.7604 284.387 70.7148C284.223 70.6693 284.081 70.5918 283.963 70.4824C283.844 70.3776 283.751 70.234 283.683 70.0518C283.619 69.8649 283.587 69.6348 283.587 69.3613V65.8271H286.369V64.6035H283.587V62.7988ZM288.659 72H292.104C292.597 72 293.052 71.9385 293.472 71.8154C293.896 71.6878 294.26 71.501 294.565 71.2549C294.871 71.0133 295.11 70.7126 295.283 70.3525C295.456 69.9925 295.541 69.5755 295.536 69.1016C295.536 68.8327 295.497 68.5775 295.42 68.3359C295.347 68.0898 295.238 67.8665 295.092 67.666C294.951 67.4792 294.775 67.3128 294.565 67.167C294.356 67.0166 294.103 66.9027 293.807 66.8252V66.8115C294.007 66.7295 294.183 66.6383 294.333 66.5381C294.488 66.4333 294.627 66.3125 294.75 66.1758C294.923 65.9889 295.055 65.7747 295.146 65.5332C295.242 65.2871 295.292 65.0228 295.297 64.7402C295.297 64.2754 295.208 63.8743 295.03 63.5371C294.857 63.1953 294.616 62.915 294.306 62.6963C293.996 62.4775 293.629 62.3158 293.205 62.2109C292.781 62.1016 292.328 62.0469 291.845 62.0469H288.659V72ZM290.313 67.502H292.2C292.469 67.5065 292.708 67.5475 292.918 67.625C293.128 67.6979 293.305 67.8027 293.451 67.9395C293.597 68.0762 293.706 68.2425 293.779 68.4385C293.852 68.6299 293.889 68.8509 293.889 69.1016C293.889 69.3385 293.843 69.555 293.752 69.751C293.665 69.9424 293.54 70.1042 293.376 70.2363C293.226 70.3639 293.043 70.4642 292.829 70.5371C292.615 70.61 292.378 70.6465 292.118 70.6465H290.313V67.502ZM290.313 66.251V63.4072H291.865C292.148 63.4118 292.405 63.446 292.638 63.5098C292.87 63.569 293.064 63.667 293.219 63.8037C293.355 63.9131 293.46 64.0544 293.533 64.2275C293.611 64.3962 293.649 64.5967 293.649 64.8291C293.649 65.0479 293.608 65.2415 293.526 65.4102C293.444 65.5788 293.333 65.7223 293.191 65.8408C293.036 65.973 292.845 66.0732 292.617 66.1416C292.394 66.21 292.148 66.2464 291.879 66.251H290.313ZM298.052 74.9873C298.412 74.9873 298.726 74.9235 298.995 74.7959C299.264 74.6729 299.496 74.5179 299.692 74.3311C299.888 74.1488 300.05 73.9482 300.178 73.7295C300.31 73.5153 300.419 73.3125 300.506 73.1211L304.259 64.6035H302.447L300.663 69.1426L300.355 69.9355L300.103 69.1221L298.264 64.6035H296.466L299.617 71.6719L299.152 72.5537C299.102 72.654 299.048 72.7497 298.988 72.8408C298.934 72.932 298.861 73.0368 298.77 73.1553C298.674 73.2738 298.562 73.3786 298.435 73.4697C298.307 73.5654 298.163 73.6133 298.004 73.6133C297.931 73.6133 297.835 73.6087 297.717 73.5996C297.603 73.5951 297.5 73.5905 297.409 73.5859L297.184 74.8643C297.316 74.8962 297.452 74.9235 297.594 74.9463C297.74 74.9736 297.892 74.9873 298.052 74.9873ZM305.735 62.0469V63.4072H307.813V70.6465H305.735V72H311.601V70.6465H309.475V63.4072H311.601V62.0469H305.735ZM313.72 68.2471V68.3906C313.72 68.9238 313.788 69.4206 313.925 69.8809C314.062 70.3366 314.255 70.7308 314.506 71.0635C314.757 71.4007 315.062 71.665 315.422 71.8564C315.782 72.0433 316.188 72.1367 316.639 72.1367C317.067 72.1367 317.445 72.0592 317.773 71.9043C318.102 71.7448 318.384 71.5192 318.621 71.2275L318.696 72H320.18V61.5H318.546V65.2939C318.309 65.0296 318.035 64.8268 317.726 64.6855C317.42 64.5397 317.062 64.4668 316.652 64.4668C316.197 64.4668 315.786 64.5602 315.422 64.7471C315.062 64.9294 314.757 65.1868 314.506 65.5195C314.251 65.8522 314.055 66.251 313.918 66.7158C313.786 67.1761 313.72 67.6865 313.72 68.2471ZM315.354 68.3906V68.2471C315.354 67.9144 315.385 67.6022 315.449 67.3105C315.513 67.0143 315.616 66.7546 315.757 66.5312C315.889 66.3079 316.062 66.1325 316.276 66.0049C316.495 65.8773 316.757 65.8135 317.062 65.8135C317.427 65.8135 317.728 65.8955 317.965 66.0596C318.206 66.2191 318.4 66.4355 318.546 66.709V69.8877C318.4 70.1657 318.206 70.3867 317.965 70.5508C317.723 70.7103 317.418 70.79 317.049 70.79C316.748 70.79 316.491 70.7285 316.276 70.6055C316.062 70.4779 315.887 70.3024 315.75 70.0791C315.613 69.8649 315.513 69.612 315.449 69.3203C315.385 69.0286 315.354 68.7188 315.354 68.3906ZM68.1934 88.377V88.2334C68.1934 87.8141 68.1546 87.4176 68.0771 87.0439C68.0042 86.6702 67.8949 86.3307 67.749 86.0254C67.6396 85.8066 67.512 85.6061 67.3662 85.4238C67.2249 85.237 67.0632 85.0798 66.8809 84.9521C66.6667 84.7972 66.4251 84.6787 66.1562 84.5967C65.8919 84.5101 65.6003 84.4668 65.2812 84.4668C65.0397 84.4668 64.8141 84.4919 64.6045 84.542C64.3994 84.5876 64.2103 84.6582 64.0371 84.7539C63.9049 84.8268 63.7819 84.9111 63.668 85.0068C63.554 85.1025 63.4492 85.2096 63.3535 85.3281V81.5H61.7197V92H63.1963L63.2715 91.1934C63.3535 91.2936 63.4378 91.387 63.5244 91.4736C63.6156 91.5557 63.7113 91.6331 63.8115 91.7061C64.0075 91.8473 64.2285 91.9544 64.4746 92.0273C64.7207 92.1003 64.9941 92.1367 65.2949 92.1367C65.5911 92.1367 65.8646 92.098 66.1152 92.0205C66.3704 91.9476 66.6006 91.8428 66.8057 91.7061C67.0609 91.5374 67.2796 91.3255 67.4619 91.0703C67.6442 90.8151 67.79 90.5303 67.8994 90.2158C67.9951 89.9515 68.068 89.6644 68.1182 89.3545C68.1683 89.0446 68.1934 88.7188 68.1934 88.377ZM66.5596 88.2334V88.377C66.5596 88.582 66.5482 88.7803 66.5254 88.9717C66.5026 89.1631 66.4684 89.3408 66.4229 89.5049C66.3682 89.7236 66.2884 89.9219 66.1836 90.0996C66.0833 90.2728 65.9535 90.4163 65.7939 90.5303C65.6755 90.6123 65.541 90.6784 65.3906 90.7285C65.2402 90.7741 65.0716 90.7969 64.8848 90.7969C64.6797 90.7969 64.4928 90.7718 64.3242 90.7217C64.1602 90.667 64.0143 90.5941 63.8867 90.5029C63.7728 90.4163 63.6702 90.3184 63.5791 90.209C63.4925 90.0951 63.4173 89.9697 63.3535 89.833V86.7705C63.4082 86.652 63.472 86.5426 63.5449 86.4424C63.6224 86.3376 63.709 86.2464 63.8047 86.1689C63.9368 86.055 64.0918 85.9684 64.2695 85.9092C64.4473 85.8454 64.6478 85.8135 64.8711 85.8135C65.0534 85.8135 65.2174 85.834 65.3633 85.875C65.5091 85.916 65.639 85.9775 65.7529 86.0596C65.9261 86.1781 66.0628 86.3239 66.1631 86.4971C66.2679 86.6657 66.3522 86.8548 66.416 87.0645C66.4616 87.2376 66.4958 87.4245 66.5186 87.625C66.5459 87.821 66.5596 88.0238 66.5596 88.2334ZM69.7998 88.2334V88.377C69.7998 88.9193 69.8773 89.4183 70.0322 89.874C70.1872 90.3298 70.4128 90.7262 70.709 91.0635C71.0007 91.4007 71.3607 91.665 71.7891 91.8564C72.2174 92.0479 72.7028 92.1436 73.2451 92.1436C73.7829 92.1436 74.2637 92.0479 74.6875 91.8564C75.1159 91.665 75.4759 91.4007 75.7676 91.0635C76.0592 90.7262 76.2826 90.3298 76.4375 89.874C76.5924 89.4183 76.6699 88.9193 76.6699 88.377V88.2334C76.6699 87.6956 76.5924 87.1989 76.4375 86.7432C76.2826 86.2829 76.0592 85.8841 75.7676 85.5469C75.4714 85.2096 75.109 84.9453 74.6807 84.7539C74.2568 84.5625 73.7738 84.4668 73.2314 84.4668C72.6891 84.4668 72.2061 84.5625 71.7822 84.7539C71.3584 84.9453 71.0007 85.2096 70.709 85.5469C70.4128 85.8841 70.1872 86.2829 70.0322 86.7432C69.8773 87.1989 69.7998 87.6956 69.7998 88.2334ZM71.4336 88.377V88.2334C71.4336 87.9098 71.4678 87.5999 71.5361 87.3037C71.609 87.0075 71.7207 86.7477 71.8711 86.5244C72.0169 86.3011 72.2015 86.1234 72.4248 85.9912C72.6527 85.859 72.9215 85.793 73.2314 85.793C73.5459 85.793 73.8148 85.859 74.0381 85.9912C74.266 86.1234 74.4551 86.3011 74.6055 86.5244C74.7467 86.7477 74.8538 87.0075 74.9268 87.3037C74.9997 87.5999 75.0361 87.9098 75.0361 88.2334V88.377C75.0361 88.7096 74.9997 89.0241 74.9268 89.3203C74.8584 89.6165 74.7513 89.8763 74.6055 90.0996C74.4596 90.3229 74.2728 90.5007 74.0449 90.6328C73.8171 90.7604 73.5505 90.8242 73.2451 90.8242C72.9307 90.8242 72.6595 90.7604 72.4316 90.6328C72.2038 90.5007 72.0169 90.3229 71.8711 90.0996C71.7207 89.8763 71.609 89.6165 71.5361 89.3203C71.4678 89.0241 71.4336 88.7096 71.4336 88.377ZM78.29 88.2471V88.3906C78.29 88.9238 78.3584 89.4206 78.4951 89.8809C78.6318 90.3366 78.8255 90.7308 79.0762 91.0635C79.3268 91.4007 79.6322 91.665 79.9922 91.8564C80.3522 92.0433 80.7578 92.1367 81.209 92.1367C81.6374 92.1367 82.0156 92.0592 82.3438 91.9043C82.6719 91.7448 82.9544 91.5192 83.1914 91.2275L83.2666 92H84.75V81.5H83.1162V85.2939C82.8792 85.0296 82.6058 84.8268 82.2959 84.6855C81.9906 84.5397 81.6328 84.4668 81.2227 84.4668C80.7669 84.4668 80.3568 84.5602 79.9922 84.7471C79.6322 84.9294 79.3268 85.1868 79.0762 85.5195C78.821 85.8522 78.625 86.251 78.4883 86.7158C78.3561 87.1761 78.29 87.6865 78.29 88.2471ZM79.9238 88.3906V88.2471C79.9238 87.9144 79.9557 87.6022 80.0195 87.3105C80.0833 87.0143 80.1859 86.7546 80.3271 86.5312C80.4593 86.3079 80.6325 86.1325 80.8467 86.0049C81.0654 85.8773 81.3275 85.8135 81.6328 85.8135C81.9974 85.8135 82.2982 85.8955 82.5352 86.0596C82.7767 86.2191 82.9704 86.4355 83.1162 86.709V89.8877C82.9704 90.1657 82.7767 90.3867 82.5352 90.5508C82.2936 90.7103 81.9883 90.79 81.6191 90.79C81.3184 90.79 81.0609 90.7285 80.8467 90.6055C80.6325 90.4779 80.457 90.3024 80.3203 90.0791C80.1836 89.8649 80.0833 89.612 80.0195 89.3203C79.9557 89.0286 79.9238 88.7188 79.9238 88.3906ZM87.8467 94.9873C88.2067 94.9873 88.5212 94.9235 88.79 94.7959C89.0589 94.6729 89.2913 94.5179 89.4873 94.3311C89.6833 94.1488 89.8451 93.9482 89.9727 93.7295C90.1048 93.5153 90.2142 93.3125 90.3008 93.1211L94.0537 84.6035H92.2422L90.458 89.1426L90.1504 89.9355L89.8975 89.1221L88.0586 84.6035H86.2607L89.4121 91.6719L88.9473 92.5537C88.8971 92.654 88.8424 92.7497 88.7832 92.8408C88.7285 92.932 88.6556 93.0368 88.5645 93.1553C88.4688 93.2738 88.3571 93.3786 88.2295 93.4697C88.1019 93.5654 87.9583 93.6133 87.7988 93.6133C87.7259 93.6133 87.6302 93.6087 87.5117 93.5996C87.3978 93.5951 87.2952 93.5905 87.2041 93.5859L86.9785 94.8643C87.1107 94.8962 87.2474 94.9235 87.3887 94.9463C87.5345 94.9736 87.6872 94.9873 87.8467 94.9873ZM120.55 92H122.184V86.7227C122.257 86.5996 122.341 86.4857 122.437 86.3809C122.532 86.276 122.635 86.1872 122.744 86.1143C122.885 86.0186 123.043 85.9456 123.216 85.8955C123.389 85.8408 123.576 85.8135 123.776 85.8135C124.018 85.8135 124.232 85.8408 124.419 85.8955C124.606 85.9456 124.765 86.0322 124.897 86.1553C125.03 86.2783 125.13 86.4424 125.198 86.6475C125.267 86.8525 125.301 87.1077 125.301 87.4131V92H126.935V87.3857C126.935 86.8662 126.873 86.4242 126.75 86.0596C126.627 85.6904 126.454 85.3874 126.23 85.1504C126.007 84.9134 125.738 84.7402 125.424 84.6309C125.109 84.5215 124.763 84.4668 124.385 84.4668C124.098 84.4668 123.824 84.5078 123.564 84.5898C123.305 84.6719 123.065 84.7881 122.847 84.9385C122.71 85.0342 122.58 85.1436 122.457 85.2666C122.339 85.3851 122.229 85.515 122.129 85.6562L122.026 84.6035H120.55V92ZM133.682 92H135.35V91.8838C135.258 91.6924 135.188 91.4645 135.138 91.2002C135.092 90.9313 135.069 90.6305 135.069 90.2979V87.0098C135.069 86.5905 134.992 86.2214 134.837 85.9023C134.682 85.5788 134.468 85.3122 134.194 85.1025C133.921 84.8929 133.595 84.7357 133.217 84.6309C132.843 84.5215 132.44 84.4668 132.007 84.4668C131.524 84.4668 131.093 84.5306 130.715 84.6582C130.341 84.7812 130.027 84.9499 129.771 85.1641C129.507 85.3737 129.307 85.6152 129.17 85.8887C129.033 86.1621 128.963 86.4469 128.958 86.7432H130.599C130.599 86.6019 130.624 86.4697 130.674 86.3467C130.729 86.2191 130.811 86.112 130.92 86.0254C131.029 85.9297 131.166 85.8545 131.33 85.7998C131.499 85.7451 131.695 85.7178 131.918 85.7178C132.164 85.7178 132.381 85.7497 132.567 85.8135C132.759 85.8727 132.921 85.9593 133.053 86.0732C133.176 86.1872 133.269 86.3216 133.333 86.4766C133.401 86.6315 133.436 86.8047 133.436 86.9961V87.4951H132.246C131.713 87.4951 131.234 87.5452 130.811 87.6455C130.391 87.7458 130.038 87.8916 129.751 88.083C129.441 88.2881 129.204 88.5479 129.04 88.8623C128.881 89.1722 128.801 89.5299 128.801 89.9355C128.801 90.25 128.862 90.5439 128.985 90.8174C129.113 91.0863 129.291 91.3164 129.519 91.5078C129.742 91.7038 130.011 91.8587 130.325 91.9727C130.644 92.082 130.995 92.1367 131.378 92.1367C131.615 92.1367 131.836 92.1139 132.041 92.0684C132.246 92.0228 132.438 91.959 132.615 91.877C132.793 91.7995 132.952 91.7083 133.094 91.6035C133.24 91.4941 133.369 91.3802 133.483 91.2617C133.506 91.403 133.531 91.5397 133.559 91.6719C133.59 91.7995 133.632 91.9089 133.682 92ZM131.692 90.8242C131.483 90.8242 131.3 90.7992 131.146 90.749C130.991 90.6943 130.861 90.6214 130.756 90.5303C130.651 90.4391 130.571 90.3298 130.517 90.2021C130.462 90.07 130.435 89.9287 130.435 89.7783C130.435 89.596 130.466 89.432 130.53 89.2861C130.599 89.1403 130.701 89.015 130.838 88.9102C130.993 88.7871 131.2 88.6937 131.46 88.6299C131.72 88.5615 132.027 88.5273 132.383 88.5273H133.436V89.8945C133.376 90.013 133.292 90.127 133.183 90.2363C133.073 90.3457 132.943 90.4437 132.793 90.5303C132.643 90.6169 132.474 90.6875 132.287 90.7422C132.105 90.7969 131.907 90.8242 131.692 90.8242ZM138.296 84.6035H136.874V92H138.378V86.3193C138.405 86.251 138.435 86.1895 138.467 86.1348C138.503 86.0801 138.544 86.0322 138.59 85.9912C138.649 85.932 138.72 85.8887 138.802 85.8613C138.888 85.8294 138.986 85.8135 139.096 85.8135C139.196 85.8135 139.285 85.8271 139.362 85.8545C139.444 85.8818 139.515 85.9251 139.574 85.9844C139.633 86.0436 139.677 86.1257 139.704 86.2305C139.736 86.3307 139.752 86.4538 139.752 86.5996V92H141.229V86.5107C141.229 86.4652 141.229 86.431 141.229 86.4082C141.229 86.3809 141.229 86.3581 141.229 86.3398C141.247 86.2624 141.274 86.194 141.311 86.1348C141.347 86.071 141.393 86.0163 141.447 85.9707C141.507 85.9206 141.575 85.8818 141.652 85.8545C141.73 85.8271 141.821 85.8135 141.926 85.8135C142.026 85.8135 142.117 85.8271 142.199 85.8545C142.286 85.8818 142.359 85.9251 142.418 85.9844C142.477 86.0482 142.523 86.1325 142.555 86.2373C142.587 86.3376 142.603 86.4606 142.603 86.6064V92H144.106V86.6201C144.106 86.2327 144.065 85.9023 143.983 85.6289C143.906 85.3509 143.794 85.1253 143.648 84.9521C143.503 84.7881 143.329 84.6673 143.129 84.5898C142.933 84.5078 142.716 84.4668 142.479 84.4668C142.297 84.4668 142.129 84.4896 141.974 84.5352C141.823 84.5807 141.687 84.6445 141.563 84.7266C141.468 84.7904 141.379 84.8678 141.297 84.959C141.215 85.0501 141.142 85.1481 141.078 85.2529C141.033 85.139 140.978 85.0387 140.914 84.9521C140.85 84.861 140.777 84.7835 140.695 84.7197C140.59 84.6331 140.465 84.5693 140.319 84.5283C140.174 84.4873 140.009 84.4668 139.827 84.4668C139.476 84.4668 139.175 84.5511 138.925 84.7197C138.679 84.8883 138.485 85.1208 138.344 85.417L138.296 84.6035ZM149.227 92.1367C149.947 92.1367 150.56 91.9954 151.065 91.7129C151.576 91.4303 151.954 91.1113 152.2 90.7559L151.325 89.9082C151.097 90.1999 150.808 90.4255 150.457 90.585C150.106 90.7399 149.728 90.8174 149.322 90.8174C149.026 90.8174 148.753 90.7673 148.502 90.667C148.256 90.5667 148.042 90.4255 147.859 90.2432C147.677 90.07 147.534 89.874 147.429 89.6553C147.324 89.4365 147.246 89.1654 147.196 88.8418V88.8076H152.323V88.1035C152.323 87.5749 152.253 87.0872 152.111 86.6406C151.97 86.194 151.76 85.8089 151.482 85.4854C151.204 85.1663 150.86 84.918 150.45 84.7402C150.04 84.5579 149.568 84.4668 149.035 84.4668C148.557 84.4668 148.105 84.5579 147.682 84.7402C147.262 84.918 146.893 85.1732 146.574 85.5059C146.255 85.8385 146.005 86.2396 145.822 86.709C145.64 87.1784 145.549 87.7025 145.549 88.2812V88.5615C145.549 89.0674 145.635 89.5391 145.809 89.9766C145.986 90.4095 146.237 90.7855 146.561 91.1045C146.884 91.4281 147.271 91.681 147.723 91.8633C148.178 92.0456 148.68 92.1367 149.227 92.1367ZM149.028 85.793C149.302 85.793 149.541 85.8408 149.746 85.9365C149.956 86.0277 150.129 86.1507 150.266 86.3057C150.407 86.4652 150.516 86.652 150.594 86.8662C150.671 87.0758 150.71 87.2878 150.71 87.502V87.6113H147.23C147.281 87.3288 147.358 87.0758 147.463 86.8525C147.568 86.6292 147.698 86.4378 147.853 86.2783C148.007 86.1234 148.183 86.0049 148.379 85.9229C148.579 85.8363 148.796 85.793 149.028 85.793Z" fill="#ADDB67"/>
</g>
<path d="M-1 8C-1 3.02944 3.02944 -1 8 -1H573C577.971 -1 582 3.02944 582 8H580C580 4.13401 576.866 1 573 1H8C4.13401 1 1 4.13401 1 8H-1ZM581 132H0H581ZM-1 132V8C-1 3.02944 3.02944 -1 8 -1V1C4.13401 1 1 4.13401 1 8V132H-1ZM573 -1C577.971 -1 582 3.02944 582 8V132H580V8C580 4.13401 576.866 1 573 1V-1Z" fill="white" fill-opacity="0.1" mask="url(#path-1-inside-1_837_734)"/>
</g>
<defs>
<filter id="filter0_b_837_734" x="-4" y="-4" width="589" height="140" filterUnits="userSpaceOnUse" color-interpolation-filters="sRGB">
<feFlood flood-opacity="0" result="BackgroundImageFix"/>
<feGaussianBlur in="BackgroundImageFix" stdDeviation="2"/>
<feComposite in2="SourceAlpha" operator="in" result="effect1_backgroundBlur_837_734"/>
<feBlend mode="normal" in="SourceGraphic" in2="effect1_backgroundBlur_837_734" result="shape"/>
</filter>
</defs>
</svg>
