<svg width="391" height="239" viewBox="0 0 391 239" fill="none" xmlns="http://www.w3.org/2000/svg">
<g clip-path="url(#clip0_877_27)">
<rect x="254" y="34" width="109" height="109" rx="12" fill="#161616" fill-opacity="0.5"/>
<path d="M313.468 86.63V86.62L313.46 86.615C312.148 85.851 311.259 84.446 311.259 82.822C311.259 80.392 313.232 78.42 315.661 78.42C318.09 78.42 320.063 80.392 320.063 82.822C320.063 84.446 319.174 85.851 317.862 86.615L317.854 86.62V86.63V87.242V87.248L317.853 87.267C317.853 87.283 317.852 87.308 317.851 87.34C317.848 87.405 317.843 87.5 317.834 87.62C317.815 87.861 317.778 88.206 317.706 88.62C317.563 89.447 317.28 90.551 316.725 91.654C316.169 92.756 315.34 93.859 314.103 94.686C312.866 95.512 311.221 96.064 309.032 96.064C307.323 96.064 306.272 96.705 305.626 97.499L305.616 97.51L305.626 97.521C306.351 98.308 306.804 99.349 306.804 100.501C306.804 102.93 304.832 104.903 302.402 104.903C299.972 104.903 298 102.93 298 100.501C298 98.876 298.888 97.472 300.201 96.709L300.209 96.704V96.694V82.21V82.2L300.201 82.195C298.888 81.431 298 80.026 298 78.402C298 75.972 299.972 74 302.402 74C304.832 74 306.804 75.972 306.804 78.402C306.804 80.026 305.916 81.431 304.603 82.195L304.595 82.2V82.21V92.656V92.685L304.62 92.671C305.769 92.071 307.202 91.679 309.032 91.679C310.139 91.679 310.972 91.402 311.596 90.985C312.221 90.569 312.637 90.014 312.914 89.459C313.191 88.905 313.33 88.351 313.399 87.935C313.434 87.727 313.451 87.554 313.46 87.433C313.464 87.372 313.466 87.324 313.467 87.292C313.468 87.276 313.468 87.263 313.468 87.255V87.245V87.243V86.63ZM304.629 78.402C304.629 77.17 303.634 76.175 302.402 76.175C301.17 76.175 300.175 77.17 300.175 78.402C300.175 79.634 301.17 80.629 302.402 80.629C303.634 80.629 304.629 79.634 304.629 78.402ZM300.175 100.501C300.175 101.732 301.17 102.728 302.402 102.728C303.634 102.728 304.629 101.732 304.629 100.501C304.629 99.272 303.634 98.274 302.402 98.274C301.17 98.274 300.175 99.272 300.175 100.501ZM313.434 82.822C313.434 84.054 314.43 85.049 315.661 85.049C316.892 85.049 317.888 84.054 317.888 82.822C317.888 81.59 316.892 80.595 315.661 80.595C314.43 80.595 313.434 81.59 313.434 82.822Z" fill="white"/>
<path d="M313.468 87.243V87.245V87.255C313.468 87.263 313.468 87.276 313.467 87.292C313.466 87.324 313.464 87.372 313.46 87.433C313.451 87.554 313.434 87.727 313.399 87.935C313.33 88.351 313.191 88.905 312.914 89.459C312.637 90.014 312.221 90.569 311.596 90.985C310.972 91.402 310.139 91.679 309.032 91.679C307.202 91.679 305.769 92.071 304.62 92.671L304.595 92.685V92.656V82.21V82.2L304.603 82.195C305.916 81.431 306.804 80.026 306.804 78.402C306.804 75.972 304.832 74 302.402 74C299.972 74 298 75.972 298 78.402C298 80.026 298.888 81.431 300.201 82.195L300.209 82.2V82.21V96.694V96.704L300.201 96.709C298.888 97.472 298 98.876 298 100.501C298 102.93 299.972 104.903 302.402 104.903C304.832 104.903 306.804 102.93 306.804 100.501C306.804 99.349 306.351 98.308 305.626 97.521L305.616 97.51L305.626 97.499C306.272 96.705 307.323 96.064 309.032 96.064C311.221 96.064 312.866 95.512 314.103 94.686C315.34 93.859 316.169 92.756 316.725 91.654C317.28 90.551 317.563 89.447 317.706 88.62C317.778 88.206 317.815 87.861 317.834 87.62C317.843 87.5 317.848 87.405 317.851 87.34C317.852 87.308 317.853 87.283 317.853 87.267L317.854 87.248V87.242V86.63V86.62L317.862 86.615C319.174 85.851 320.063 84.446 320.063 82.822C320.063 80.392 318.09 78.42 315.661 78.42C313.232 78.42 311.259 80.392 311.259 82.822C311.259 84.446 312.148 85.851 313.46 86.615L313.468 86.62V86.63V87.243ZM313.468 87.243L313.451 87.242M304.629 78.402C304.629 77.17 303.634 76.175 302.402 76.175C301.17 76.175 300.175 77.17 300.175 78.402C300.175 79.634 301.17 80.629 302.402 80.629C303.634 80.629 304.629 79.634 304.629 78.402ZM300.175 100.501C300.175 101.732 301.17 102.728 302.402 102.728C303.634 102.728 304.629 101.732 304.629 100.501C304.629 99.272 303.634 98.274 302.402 98.274C301.17 98.274 300.175 99.272 300.175 100.501ZM313.434 82.822C313.434 84.054 314.43 85.049 315.661 85.049C316.892 85.049 317.888 84.054 317.888 82.822C317.888 81.59 316.892 80.595 315.661 80.595C314.43 80.595 313.434 81.59 313.434 82.822Z" stroke="white" stroke-width="0.0345287"/>
<rect x="254.5" y="34.5" width="108" height="108" rx="11.5" stroke="white" stroke-opacity="0.1"/>
<rect x="254" y="159" width="64" height="64" rx="12" fill="#161616" fill-opacity="0.5"/>
<rect x="254.5" y="159.5" width="63" height="63" rx="11.5" stroke="white" stroke-opacity="0.1"/>
<path d="M275.01 190.047H279.529" stroke="white" stroke-width="2.00848" stroke-linecap="round"/>
<path d="M291.078 190.047H295.597" stroke="white" stroke-width="2.00848" stroke-linecap="round"/>
<path d="M285.053 195.07C287.826 195.07 290.074 192.822 290.074 190.049C290.074 187.276 287.826 185.028 285.053 185.028C282.28 185.028 280.032 187.276 280.032 190.049C280.032 192.822 282.28 195.07 285.053 195.07Z" stroke="white" stroke-width="2.00848" stroke-linecap="round"/>
<rect x="-60" y="34" width="250" height="250" rx="12" fill="#161616" fill-opacity="0.5"/>
<path d="M64.6667 133C58.3347 133 52.2093 135.254 47.3866 139.357C42.564 143.46 39.3587 149.146 38.3444 155.396C37.3301 161.646 38.5729 168.054 41.8505 173.472C45.128 178.889 50.2264 182.964 56.2334 184.967C57.5668 185.2 58.0668 184.4 58.0668 183.7C58.0668 183.067 58.0334 180.967 58.0334 178.734C51.3334 179.967 49.6001 177.1 49.0667 175.6C48.4749 174.141 47.5368 172.849 46.3334 171.834C45.4001 171.334 44.0667 170.1 46.3 170.067C47.1528 170.159 47.9707 170.456 48.6844 170.932C49.3981 171.408 49.9866 172.049 50.4001 172.8C50.7648 173.455 51.2552 174.032 51.8432 174.497C52.4313 174.963 53.1053 175.308 53.8268 175.512C54.5483 175.716 55.303 175.776 56.0477 175.688C56.7924 175.601 57.5125 175.367 58.1667 175C58.2821 173.644 58.8863 172.377 59.8667 171.434C53.9334 170.767 47.7334 168.467 47.7334 158.267C47.6959 155.617 48.6739 153.052 50.4667 151.1C49.6515 148.797 49.7469 146.269 50.7334 144.034C50.7334 144.034 52.9666 143.334 58.0667 146.767C62.4302 145.567 67.0366 145.567 71.4001 146.767C76.5 143.3 78.7334 144.034 78.7334 144.034C79.7201 146.269 79.8154 148.797 79.0001 151.1C80.7983 153.049 81.7771 155.616 81.7334 158.267C81.7334 168.5 75.5 170.767 69.5667 171.434C70.2031 172.079 70.6933 172.853 71.0038 173.704C71.3144 174.556 71.4382 175.464 71.3667 176.367C71.3667 179.934 71.3334 182.8 71.3334 183.7C71.3334 184.4 71.8334 185.234 73.1667 184.967C79.1631 182.948 84.2469 178.864 87.5105 173.443C90.774 168.022 92.005 161.618 90.984 155.374C89.962 149.13 86.7552 143.452 81.9346 139.354C77.1141 135.255 70.9939 133.003 64.6667 133Z" fill="white"/>
<rect x="-59.5" y="34.5" width="249" height="249" rx="11.5" stroke="white" stroke-opacity="0.2"/>
<rect x="-75.5" y="18.5" width="281" height="281" rx="19.5" stroke="white" stroke-opacity="0.1"/>
<rect x="-91.5" y="2.5" width="313" height="313" rx="27.5" stroke="white" stroke-opacity="0.05"/>
</g>
<defs>
<clipPath id="clip0_877_27">
<rect width="391" height="239" fill="white"/>
</clipPath>
</defs>
</svg>
