<svg width="48" height="48" viewBox="0 0 48 48" fill="none" xmlns="http://www.w3.org/2000/svg">
<rect width="48" height="48" rx="8" fill="#161616" fill-opacity="0.5"/>
<path fill-rule="evenodd" clip-rule="evenodd" d="M20.75 18.75H17.75C16.9544 18.75 16.1913 19.0661 15.6287 19.6287C15.0661 20.1913 14.75 20.9544 14.75 21.75V29.25C14.75 30.0456 15.0661 30.8087 15.6287 31.3713C16.1913 31.9339 16.9544 32.25 17.75 32.25H25.25C26.0456 32.25 26.8087 31.9339 27.3713 31.3713C27.9339 30.8087 28.25 30.0456 28.25 29.25V21.75C28.25 20.9544 27.9339 20.1913 27.3713 19.6287C26.8087 19.0661 26.0456 18.75 25.25 18.75H22.25V13.5C22.25 13.3011 22.171 13.1103 22.0303 12.9697C21.8897 12.829 21.6989 12.75 21.5 12.75C21.3011 12.75 21.1103 12.829 20.9697 12.9697C20.829 13.1103 20.75 13.3011 20.75 13.5V18.75ZM20.75 18.75H22.25V24.44L23.97 22.72C24.0387 22.6463 24.1215 22.5872 24.2135 22.5462C24.3055 22.5052 24.4048 22.4832 24.5055 22.4814C24.6062 22.4796 24.7062 22.4982 24.7996 22.5359C24.893 22.5736 24.9778 22.6297 25.049 22.701C25.1203 22.7722 25.1764 22.857 25.2141 22.9504C25.2518 23.0438 25.2704 23.1438 25.2686 23.2445C25.2668 23.3452 25.2448 23.4445 25.2038 23.5365C25.1628 23.6285 25.1037 23.7113 25.03 23.78L22.03 26.78C21.8894 26.9205 21.6988 26.9993 21.5 26.9993C21.3012 26.9993 21.1106 26.9205 20.97 26.78L17.97 23.78C17.8963 23.7113 17.8372 23.6285 17.7962 23.5365C17.7552 23.4445 17.7332 23.3452 17.7314 23.2445C17.7296 23.1438 17.7482 23.0438 17.7859 22.9504C17.8236 22.857 17.8797 22.7722 17.951 22.701C18.0222 22.6297 18.107 22.5736 18.2004 22.5359C18.2938 22.4982 18.3938 22.4796 18.4945 22.4814C18.5952 22.4832 18.6945 22.5052 18.7865 22.5462C18.8785 22.5872 18.9613 22.6463 19.03 22.72L20.75 24.44V18.75Z" fill="white"/>
<path d="M18.151 33.75C18.4143 34.2063 18.7931 34.5851 19.2494 34.8484C19.7057 35.1118 20.2232 35.2503 20.75 35.25H28.25C29.0457 35.25 29.8087 34.9339 30.3713 34.3713C30.9339 33.8087 31.25 33.0457 31.25 32.25V24.75C31.25 23.64 30.647 22.67 29.75 22.151V29.25C29.75 30.4435 29.2759 31.5881 28.432 32.432C27.5881 33.2759 26.4435 33.75 25.25 33.75H18.151Z" fill="white"/>
<rect x="0.5" y="0.5" width="47" height="47" rx="7.5" stroke="white" stroke-opacity="0.05"/>
</svg>
