<svg width="64" height="64" viewBox="0 0 64 64" fill="none" xmlns="http://www.w3.org/2000/svg">
<g filter="url(#filter0_b_905_27)">
<rect width="64" height="64" rx="6" fill="#1B1A1C" fill-opacity="0.25"/>
<path fill-rule="evenodd" clip-rule="evenodd" d="M20 24C20 22.9391 20.4214 21.9217 21.1716 21.1716C21.9217 20.4214 22.9391 20 24 20H40C41.0609 20 42.0783 20.4214 42.8284 21.1716C43.5786 21.9217 44 22.9391 44 24V40C44 41.0609 43.5786 42.0783 42.8284 42.8284C42.0783 43.5786 41.0609 44 40 44H24C22.9391 44 21.9217 43.5786 21.1716 42.8284C20.4214 42.0783 20 41.0609 20 40V24ZM39 32C38.9998 32.2651 38.8943 32.5193 38.7067 32.7067L35.7067 35.7067C35.6151 35.8049 35.5047 35.8837 35.3821 35.9384C35.2594 35.993 35.127 36.0224 34.9927 36.0248C34.8584 36.0272 34.7251 36.0025 34.6005 35.9522C34.476 35.9019 34.3629 35.827 34.2679 35.7321C34.173 35.6371 34.0981 35.524 34.0478 35.3995C33.9975 35.2749 33.9728 35.1416 33.9752 35.0073C33.9776 34.873 34.007 34.7406 34.0616 34.6179C34.1163 34.4953 34.1951 34.3849 34.2933 34.2933L36.5867 32L34.2933 29.7067C34.1951 29.6151 34.1163 29.5047 34.0616 29.3821C34.007 29.2594 33.9776 29.127 33.9752 28.9927C33.9728 28.8584 33.9975 28.7251 34.0478 28.6005C34.0981 28.476 34.173 28.3629 34.2679 28.2679C34.3629 28.173 34.476 28.0981 34.6005 28.0478C34.7251 27.9975 34.8584 27.9728 34.9927 27.9752C35.127 27.9776 35.2594 28.007 35.3821 28.0616C35.5047 28.1163 35.6151 28.1951 35.7067 28.2933L38.7067 31.2933C38.8947 31.48 39 31.7347 39 32ZM25.2933 31.2933C25.1061 31.4808 25.0009 31.735 25.0009 32C25.0009 32.265 25.1061 32.5192 25.2933 32.7067L28.2933 35.7067C28.3849 35.8049 28.4953 35.8837 28.6179 35.9384C28.7406 35.993 28.873 36.0224 29.0073 36.0248C29.1416 36.0272 29.2749 36.0025 29.3995 35.9522C29.524 35.9019 29.6371 35.827 29.7321 35.7321C29.827 35.6371 29.9019 35.524 29.9522 35.3995C30.0025 35.2749 30.0272 35.1416 30.0248 35.0073C30.0224 34.873 29.993 34.7406 29.9384 34.6179C29.8837 34.4953 29.8049 34.3849 29.7067 34.2933L27.4133 32L29.7067 29.7067C29.8049 29.6151 29.8837 29.5047 29.9384 29.3821C29.993 29.2594 30.0224 29.127 30.0248 28.9927C30.0272 28.8584 30.0025 28.7251 29.9522 28.6005C29.9019 28.476 29.827 28.3629 29.7321 28.2679C29.6371 28.173 29.524 28.0981 29.3995 28.0478C29.2749 27.9975 29.1416 27.9728 29.0073 27.9752C28.873 27.9776 28.7406 28.007 28.6179 28.0616C28.4953 28.1163 28.3849 28.1951 28.2933 28.2933L25.2933 31.2933Z" fill="white"/>
<rect x="0.5" y="0.5" width="63" height="63" rx="5.5" stroke="white" stroke-opacity="0.1"/>
</g>
<defs>
<filter id="filter0_b_905_27" x="-100" y="-100" width="264" height="264" filterUnits="userSpaceOnUse" color-interpolation-filters="sRGB">
<feFlood flood-opacity="0" result="BackgroundImageFix"/>
<feGaussianBlur in="BackgroundImageFix" stdDeviation="50"/>
<feComposite in2="SourceAlpha" operator="in" result="effect1_backgroundBlur_905_27"/>
<feBlend mode="normal" in="SourceGraphic" in2="effect1_backgroundBlur_905_27" result="shape"/>
</filter>
</defs>
</svg>
