<svg width="48" height="48" viewBox="0 0 48 48" fill="none" xmlns="http://www.w3.org/2000/svg">
<rect width="48" height="48" rx="8" fill="#121212"/>
<path d="M15.478 14.405C15.3481 14.3674 15.2105 14.3655 15.0797 14.3997C14.9489 14.4338 14.8297 14.5027 14.7348 14.599C14.6399 14.6954 14.5728 14.8155 14.5407 14.9469C14.5085 15.0782 14.5124 15.2158 14.552 15.345L16.984 23.25H25.5C25.6989 23.25 25.8897 23.3291 26.0303 23.4697C26.171 23.6104 26.25 23.8011 26.25 24C26.25 24.199 26.171 24.3897 26.0303 24.5304C25.8897 24.671 25.6989 24.75 25.5 24.75H16.984L14.552 32.655C14.5124 32.7843 14.5085 32.9219 14.5407 33.0532C14.5728 33.1846 14.6399 33.3047 14.7348 33.4011C14.8297 33.4974 14.9489 33.5663 15.0797 33.6004C15.2105 33.6346 15.3481 33.6327 15.478 33.595C22.093 31.6714 28.3309 28.6324 33.923 24.609C34.0196 24.5396 34.0983 24.4481 34.1526 24.3422C34.2069 24.2363 34.2353 24.119 34.2353 24C34.2353 23.881 34.2069 23.7637 34.1526 23.6579C34.0983 23.552 34.0196 23.4605 33.923 23.391C28.3309 19.3677 22.093 16.3287 15.478 14.405Z" fill="white"/>
<rect x="0.5" y="0.5" width="47" height="47" rx="7.5" stroke="white" stroke-opacity="0.05"/>
</svg>
